<?xml version="1.0" encoding="UTF-8"?>
<!DOCTYPE svg PUBLIC "-//W3C//DTD SVG 1.1//EN" "http://www.w3.org/Graphics/SVG/1.1/DTD/svg11.dtd">
<!-- Creator: CorelDRAW -->
<svg xmlns="http://www.w3.org/2000/svg" xml:space="preserve" width="81px" height="81px" version="1.1" style="shape-rendering:geometricPrecision; text-rendering:geometricPrecision; image-rendering:optimizeQuality; fill-rule:evenodd; clip-rule:evenodd"
viewBox="0 0 132.64 132.64"
 xmlns:xlink="http://www.w3.org/1999/xlink"
 xmlns:xodm="http://www.corel.com/coreldraw/odm/2003">
 <defs>
  <style type="text/css">
   <![CDATA[
    .fil0 {fill:#FEFEFE}
    .fil1 {fill:#BC005E}
   ]]>
  </style>
 </defs>
 <g id="Camada_x0020_1">
  <metadata id="CorelCorpID_0Corel-Layer"/>
  <g id="_2659305597264">
   <circle class="fil0" cx="66.32" cy="66.32" r="66.32"/>
   <g>
    <path class="fil1" d="M19.9 47.69c0,6 0.75,9.65 3.63,14.47 2.1,3.51 4.45,5.53 7.28,8.35l35.17 35.17c3.7,3.72 10.61,7 16.43,7 4.24,0 7.25,-0.2 11.19,-1.97 1.68,-0.76 3.17,-1.42 4.69,-2.54 1.7,-1.26 4.54,-3.53 5.66,-5.21 -0.88,-0.59 -19.24,-19.14 -21.49,-21.39 -4.34,-4.35 -2,-2.87 -5.94,-2.41 -2.83,0.32 -5.2,-0.55 -7.21,-2.54l-13.34 -13.35c-1.85,-1.86 -2.91,-4.36 -2.57,-7.04 0.56,-4.43 2.25,-1.47 -5.34,-9.06l-18.44 -18.54c-1.72,1.15 -3.85,3.86 -5.12,5.55 -1.11,1.47 -1.83,3.02 -2.57,4.68 -0.34,0.76 -0.76,1.79 -1,2.61 -0.5,1.72 -1.03,4.14 -1.03,6.22z"/>
    <path class="fil1" d="M33.81 24.63l24.16 24.25c2.34,-1.61 4.62,-4.83 4.62,-8.24 0,-4.21 -2.84,-6.37 -5,-8.53l-10.13 -10.07c-0.82,-0.64 -1.05,-0.9 -2.08,-1.36 -5.9,-2.62 -11.21,2.61 -11.57,3.95z"/>
    <path class="fil1" d="M83.94 74.75l24.16 24.26c1.07,-0.74 2.13,-2.05 2.95,-3.05 2.21,-2.7 2.14,-6.44 0.47,-9.52 -0.6,-1.1 -1.43,-1.83 -2.28,-2.68 -1.99,-1.99 -10.93,-11.2 -12.54,-12.24 -3.01,-1.93 -7.05,-1.84 -9.83,0.26 -0.63,0.48 -2.54,2.39 -2.93,2.97z"/>
    <path class="fil1" d="M66.02 29.39c0,1.21 0.85,2.38 1.85,2.73 1.34,0.48 2.62,0.17 4.2,0.37 2.83,0.37 5.11,0.89 7.61,1.74 2.07,0.7 4.43,1.93 6.13,3.01 3.59,2.3 7.01,5.58 9.34,9.15 1.14,1.75 2.47,4.19 3.16,6.18 0.76,2.2 1.55,4.81 1.8,7.35 0.11,1.11 0.08,3.36 0.26,4.31 0.62,3.15 5.24,3.25 5.81,-0.23 0.07,-0.41 -0.19,-4.09 -0.26,-4.55 -0.49,-3.19 -0.82,-5.04 -1.85,-8.07 -1.12,-3.29 -3.12,-7 -5.16,-9.71l-2.35 -2.79c-0.47,-0.52 -0.61,-0.81 -1.13,-1.34 -0.55,-0.55 -0.76,-0.67 -1.33,-1.15 -1.22,-1.02 -0.64,-0.76 -2.67,-2.29 -3.33,-2.49 -4,-2.74 -7.81,-4.58 -3.73,-1.82 -10.5,-2.99 -14.93,-2.99 -1.31,0 -2.67,1.52 -2.67,2.86z"/>
    <path class="fil1" d="M66.02 40.83c0,0.7 0.51,1.76 0.9,2.15 1.3,1.31 4.23,0.53 8.02,1.7 1.5,0.46 2.98,1.17 4.32,1.97 5.47,3.3 9.5,9.6 9.64,15.9 0.06,2.89 0.59,4.01 3.42,4.01 0.91,0 1.67,-0.76 2.03,-1.4 0.95,-1.67 -0.12,-7.03 -0.71,-8.87 -1.06,-3.3 -2.59,-6.46 -4.89,-9.03 -0.62,-0.7 -0.94,-1.13 -1.62,-1.81 -0.66,-0.66 -1.12,-1.01 -1.81,-1.62 -5.36,-4.71 -19.3,-9 -19.3,-3z"/>
   </g>
  </g>
 </g>
</svg>
