<svg id="Camada_1" data-name="Camada 1" xmlns="http://www.w3.org/2000/svg" viewBox="0 0 214.7 320.18"><defs><style>.cls-1,.cls-2{fill:#d91e3e;}.cls-1{fill-rule:evenodd;}</style></defs><title>acompanha_me - FOOTER</title><path class="cls-1" d="M0,64.12C0,78,1.74,86.45,8.4,97.6c4.84,8.1,10.29,12.76,16.83,19.3l81.32,81.32c8.56,8.61,24.55,16.2,38,16.2,9.8,0,16.76-.48,25.86-4.56A54.74,54.74,0,0,0,181.28,204c3.92-2.9,10.49-8.15,13.09-12-2-1.36-44.49-44.27-49.7-49.47-10-10.05-4.63-6.63-13.73-5.58A19.38,19.38,0,0,1,114.25,131L83.4,100.16a19.52,19.52,0,0,1-5.92-16.28c1.29-10.26,5.2-3.4-12.36-21L22.48,20.05c-4,2.66-8.91,8.94-11.85,12.84A53.63,53.63,0,0,0,4.7,43.7a49.41,49.41,0,0,0-2.32,6A55.5,55.5,0,0,0,0,64.12"/><path class="cls-1" d="M32.18,10.8,88,66.88c5.41-3.72,10.68-11.17,10.68-19.06,0-9.72-6.56-14.72-11.56-19.73L63.72,4.81a17.32,17.32,0,0,0-4.8-3.13C45.29-4.38,33,7.71,32.18,10.8"/><path class="cls-1" d="M148.09,126.71,204,182.79c2.48-1.69,5-4.74,6.84-7,5.09-6.23,4.94-14.88,1.07-22-1.38-2.54-3.3-4.24-5.26-6.2-4.61-4.6-25.26-25.89-29-28.29a20.2,20.2,0,0,0-22.73.59,54.92,54.92,0,0,0-6.78,6.88"/><path class="cls-1" d="M106.66,21.81a7,7,0,0,0,4.26,6.31c3.11,1.11,6.07.39,9.73.86a86.82,86.82,0,0,1,17.58,4,71.14,71.14,0,0,1,14.18,7A74.17,74.17,0,0,1,174,61.12a73.22,73.22,0,0,1,7.31,14.29,76.94,76.94,0,0,1,4.16,17c.26,2.58.18,7.76.61,10a6.8,6.8,0,0,0,13.42-.52c.16-1-.44-9.47-.6-10.54a93.31,93.31,0,0,0-4.26-18.65,86.77,86.77,0,0,0-11.93-22.45l-5.44-6.46c-1.09-1.19-1.41-1.87-2.63-3.1A34.36,34.36,0,0,0,171.58,38c-2.82-2.35-1.48-1.76-6.18-5.28-7.67-5.77-9.25-6.34-18-10.61s-24.29-6.9-34.53-6.9c-3,0-6.17,3.51-6.17,6.61"/><path class="cls-1" d="M106.66,48.26a9,9,0,0,0,2.07,5c3,3,9.8,1.23,18.55,3.94a45.74,45.74,0,0,1,10,4.56c12.66,7.63,22,22.2,22.3,36.76.14,6.68,1.36,9.27,7.92,9.27,2.1,0,3.84-1.76,4.69-3.25,2.2-3.86-.29-16.23-1.65-20.5-2.45-7.62-6-14.94-11.3-20.88-1.45-1.62-2.17-2.6-3.75-4.18s-2.6-2.33-4.2-3.74c-12.39-10.89-44.61-20.82-44.61-7"/><path class="cls-2" d="M74.11,319.08H62.48v-44a39.9,39.9,0,0,1-15,8.85V273.32a33.1,33.1,0,0,0,9.89-5.65A21.53,21.53,0,0,0,64.67,258h9.44Z"/><path class="cls-2" d="M118.18,279.47c0-3.76-.87-6.67-2.59-8.73a7.59,7.59,0,0,0-6-3.1,6.7,6.7,0,0,0-5.35,2.54q-2.14,2.55-2.14,8.32c0,3.92.78,6.79,2.33,8.63a7.4,7.4,0,0,0,11.43.1c1.52-1.77,2.29-4.35,2.29-7.76M92,305l11.29-1.25a8.29,8.29,0,0,0,2.13,5.13,6.31,6.31,0,0,0,4.56,1.67,7.43,7.43,0,0,0,6.09-3.34c1.66-2.22,2.72-6.84,3.19-13.81a13.91,13.91,0,0,1-11,5.09,16.39,16.39,0,0,1-12.36-5.53q-5.2-5.54-5.19-14.4,0-9.25,5.49-14.9a19.86,19.86,0,0,1,29.15,1.5q5.93,7.17,5.93,23.58,0,16.68-6.15,24.08a19.87,19.87,0,0,1-16,7.4q-7.11,0-11.48-3.82T92,305Z"/><path class="cls-2" d="M158.47,267.64a5.57,5.57,0,0,0-3.7,1.36,9,9,0,0,0-2.54,4.83Q151,278.36,151,289.08c0,7.17.36,12.07,1.07,14.75s1.6,4.46,2.67,5.35a5.78,5.78,0,0,0,7.41,0,9.05,9.05,0,0,0,2.52-4.84q1.18-4.49,1.19-15.23t-1.06-14.72q-1.07-4-2.67-5.36a5.57,5.57,0,0,0-3.7-1.36m0-9.68q8.84,0,13.81,6.32,5.92,7.47,5.93,24.8t-6,24.86q-5,6.24-13.77,6.24a17.39,17.39,0,0,1-14.3-6.83q-5.43-6.84-5.43-24.38,0-17.21,6-24.77Q149.64,258,158.47,258Z"/></svg>