<svg id="Camada_1" data-name="Camada 1" xmlns="http://www.w3.org/2000/svg" viewBox="0 0 331.01 331.43"><defs><style>.cls-1,.cls-2{fill:#d91e3e;}.cls-2{fill-rule:evenodd;}</style></defs><title>acompanha_me - FOOTER</title><path class="cls-1" d="M49.8,307.91l11.88,3.65q-2.73,10-9.11,14.91t-16.14,4.87q-12.12,0-19.92-8.28t-7.8-22.63q0-15.18,7.84-23.59t20.61-8.4q11.16,0,18.13,6.6c2.77,2.61,4.84,6.34,6.22,11.22l-12.14,2.89A12.55,12.55,0,0,0,36.56,279a13.82,13.82,0,0,0-11,4.86q-4.23,4.83-4.22,15.7,0,11.5,4.15,16.4a13.45,13.45,0,0,0,10.79,4.89,12.28,12.28,0,0,0,8.43-3.11c2.35-2.08,4.05-5.33,5.07-9.79"/><path class="cls-1" d="M81.39,308.38q0,6.56,3.1,10a9.85,9.85,0,0,0,7.67,3.5,9.73,9.73,0,0,0,7.62-3.5c2-2.32,3.09-5.7,3.09-10.13s-1-7.64-3.09-10a9.76,9.76,0,0,0-7.62-3.49,9.87,9.87,0,0,0-7.67,3.49c-2.07,2.32-3.1,5.68-3.1,10.05m-12-.62a23.81,23.81,0,0,1,2.86-11.25,19.63,19.63,0,0,1,8.1-8.31,24,24,0,0,1,11.7-2.87q10,0,16.38,6.49a22.53,22.53,0,0,1,6.38,16.43,22.82,22.82,0,0,1-6.44,16.6,21.81,21.81,0,0,1-16.23,6.58,25.62,25.62,0,0,1-11.54-2.75,18.77,18.77,0,0,1-8.35-8A26.71,26.71,0,0,1,69.42,307.76Z"/><path class="cls-1" d="M164.06,330.32H152.43V307.87c0-4.76-.26-7.83-.75-9.21a6.55,6.55,0,0,0-2.45-3.26,7.06,7.06,0,0,0-4.07-1.16,9.43,9.43,0,0,0-5.48,1.66,8.24,8.24,0,0,0-3.32,4.38q-.92,2.75-.91,10.12v19.92H123.82V286.26H134.6v6.47q5.79-7.41,14.59-7.4a17.7,17.7,0,0,1,7.07,1.39,11.83,11.83,0,0,1,4.85,3.53,12.71,12.71,0,0,1,2.3,4.9,35.44,35.44,0,0,1,.65,7.82Z"/><path class="cls-1" d="M196,286.26v9.26h-8v17.84a43.09,43.09,0,0,0,.23,6.32,2.59,2.59,0,0,0,1,1.49,3.27,3.27,0,0,0,2,.58,15,15,0,0,0,4.7-1.12l1,9.05a23.08,23.08,0,0,1-9.18,1.75,14.47,14.47,0,0,1-5.67-1.07,8.18,8.18,0,0,1-3.69-2.74,11,11,0,0,1-1.64-4.57,58.54,58.54,0,0,1-.37-8.25V295.52H171v-9.26h5.34v-8.74L188,270.64v15.62Z"/><path class="cls-1" d="M228.39,309.27c-1.48.49-3.85,1.09-7.09,1.78a22,22,0,0,0-6.34,2,4.89,4.89,0,0,0-2.27,4.11,5.72,5.72,0,0,0,1.82,4.23,6.4,6.4,0,0,0,4.64,1.78,10.16,10.16,0,0,0,6-2.06,7.36,7.36,0,0,0,2.78-3.87,23.19,23.19,0,0,0,.45-5.67Zm-15.62-9.42L202.24,298q1.78-6.45,6.14-9.55t12.94-3.1c5.19,0,9.07.61,11.61,1.84a11.67,11.67,0,0,1,5.37,4.68c1,1.9,1.55,5.37,1.55,10.43l-.17,13.58a48.75,48.75,0,0,0,.55,8.56,24.65,24.65,0,0,0,2.08,5.9H230.77c-.3-.76-.68-1.89-1.12-3.39a13.71,13.71,0,0,0-.41-1.36,20.66,20.66,0,0,1-6.37,4.38,18,18,0,0,1-7.23,1.48q-6.76,0-10.68-3.7a12.26,12.26,0,0,1-3.9-9.32,12.51,12.51,0,0,1,1.78-6.65,11.59,11.59,0,0,1,5-4.47,39.6,39.6,0,0,1,9.26-2.72,63.44,63.44,0,0,0,11.3-2.86v-1.17q0-3.39-1.65-4.85t-6.29-1.45a8.13,8.13,0,0,0-4.85,1.25A8.56,8.56,0,0,0,212.77,299.85Z"/><path class="cls-1" d="M271.44,286.26v9.26h-8v17.84a44.73,44.73,0,0,0,.23,6.32,2.63,2.63,0,0,0,1.05,1.49,3.3,3.3,0,0,0,2,.58,15,15,0,0,0,4.7-1.12l1,9.05a23.08,23.08,0,0,1-9.18,1.75,14.39,14.39,0,0,1-5.66-1.07,8.16,8.16,0,0,1-3.7-2.74,11,11,0,0,1-1.64-4.57,58.54,58.54,0,0,1-.37-8.25V295.52h-5.34v-9.26h5.34v-8.74l11.63-6.88v15.62Z"/><path class="cls-1" d="M288.85,308.38q0,6.56,3.1,10a10.1,10.1,0,0,0,15.29,0q3.08-3.48,3.08-10.13c0-4.31-1-7.64-3.08-10a10.12,10.12,0,0,0-15.29,0c-2.07,2.32-3.1,5.68-3.1,10.05m-12-.62a23.81,23.81,0,0,1,2.86-11.25,19.63,19.63,0,0,1,8.1-8.31,24,24,0,0,1,11.7-2.87c6.67,0,12.11,2.17,16.37,6.49a22.49,22.49,0,0,1,6.38,16.43,22.82,22.82,0,0,1-6.43,16.6,21.82,21.82,0,0,1-16.23,6.58,25.66,25.66,0,0,1-11.55-2.75,18.8,18.8,0,0,1-8.34-8A26.71,26.71,0,0,1,276.88,307.76Z"/><path class="cls-2" d="M68.26,203.42c6,21.41,24.78,22.24,40.72,22.24H235.81c10,0,18.82-.78,25.3-5.85,5.61-4.39,11-11.27,12.28-20.38,3-29.66-5.35-46.24-31.37-59.82C197.69,116.48,137,116,95.52,141.5c-9.33,5.75-18.44,13-23.6,22s-7.18,28.71-3.66,39.9M123.8,55.89c.8,11.88,9.63,21.65,15.64,27,7.82,7,19.12,11.62,32.48,11.14,23.14-.84,42.88-19.46,44.71-42.17C218.21,21.93,197.36-1,167.86,0,141.12,1,117.53,25.86,123.8,55.89Z"/><path class="cls-2" d="M.82,115.58c2.77,10,11.52,10.34,18.93,10.34h59c4.65,0,8.76-.36,11.77-2.72a14.74,14.74,0,0,0,5.71-9.47c1.4-13.8-2.49-21.51-14.59-27.82-20.61-10.75-48.82-11-68.12.88-4.34,2.67-8.57,6-11,10.24S-.82,110.38.82,115.58M26.64,47c.37,5.52,4.48,10.07,7.27,12.56A21.3,21.3,0,0,0,49,64.72c10.76-.39,19.94-9,20.78-19.6.74-13.93-9-24.6-22.67-24.11C34.69,21.45,23.73,33,26.64,47Z"/><path class="cls-2" d="M235.35,115.58c2.78,10,11.52,10.34,18.94,10.34h59c4.64,0,8.75-.36,11.77-2.72a14.73,14.73,0,0,0,5.7-9.47c1.41-13.8-2.48-21.51-14.58-27.82-20.61-10.75-48.82-11-68.12.88-4.34,2.67-8.58,6-11,10.24s-3.34,13.35-1.7,18.55M261.18,47c.37,5.52,4.47,10.07,7.27,12.56a21.29,21.29,0,0,0,15.1,5.18c10.76-.39,19.94-9,20.79-19.6.74-13.93-9-24.6-22.67-24.11C269.23,21.45,258.26,33,261.18,47Z"/></svg>