<svg id="Camada_1" data-name="Camada 1" xmlns="http://www.w3.org/2000/svg" viewBox="0 0 237.72 331.43"><defs><style>.cls-1,.cls-2{fill:#d91e3e;}.cls-1{fill-rule:evenodd;}</style></defs><title>acompanha_me - FOOTER</title><path class="cls-1" d="M107.6,72.75A5.66,5.66,0,1,1,108.71,84c-21,2.11-23.79,20-24.7,25.88l-.06.36a5.65,5.65,0,1,1-11.17-1.73l.06-.36c1.24-8,5-32.43,34.76-35.41M55.39,108.42v67.44H181.88V115.92c0-11-1.7-19.41-4.9-27.27l-4-7.91c-2.85-4.49-6.83-10.34-10.83-13.85-3.7-3.25-9.85-8.13-14.09-10.16-13.68-6.54-27.71-9.4-43.12-5.85C87,55,70.23,67.64,62,84.18,58.82,90.56,55.39,101,55.39,108.42Z"/><path class="cls-1" d="M25,208.91v16.75H212.74c0-12.57,2-25.86-7.93-34.38-.73-.62-2.15-1.69-3-2.28a15.46,15.46,0,0,0-8-2.12H43.93c-10.16,0-18.95,11.76-18.95,22"/><path class="cls-1" d="M153.24,41.87c0,4.38,1.06,6.61,6.17,6.61,4.19,0,7.21-7.6,10.39-13,1.33-2.25,8.12-13.54,8.12-15.24,0-3.85-6.29-11.24-11.93-1.34-1.51,2.65-12.75,20.79-12.75,22.94"/><path class="cls-1" d="M59.8,19.83c0,2.63,6.62,13.09,8,15.41s3,5,4.39,7.51c2.28,4.22,2.94,5.73,7.49,5.73,4.15,0,4.85-3.59,4.85-6.61,0-1.71-10.71-19.53-12.43-22.39-1.49-2.51-2.53-5.37-6.52-5.37-2.74,0-5.73,3.1-5.73,5.72"/><path class="cls-1" d="M182.32,71.4c0,4.08,2.42,6.61,5.29,6.61s12.31-6.22,15.72-8.08c4.7-2.57,13.37-6.66,13.37-10.87s-2.78-5.73-6.61-5.73c-2.09,0-19.13,10.32-22.22,12.16-2.36,1.39-5.55,2.4-5.55,5.91"/><path class="cls-1" d="M21,58.62c0,3.69,2.68,5.2,5.58,6.76C30.72,67.62,47.27,78,49.66,78c3.61,0,5.73-2.64,5.73-6.61,0-4.17-7.46-6.88-12.81-10.11-3.26-2-12.39-8-15.84-8A5.52,5.52,0,0,0,21,58.62"/><path class="cls-1" d="M112.69,5.29V31.73c0,8.37,11.46,7.73,11.46.89V5.29A5.62,5.62,0,0,0,119.21,0h-1.78a5.22,5.22,0,0,0-3.07,1.68,6.13,6.13,0,0,0-1.67,3.61"/><path class="cls-2" d="M38.46,306.21,30,283.72,21.8,306.21ZM61,330.32H47.69l-5.25-13.84H18.07L13,330.32H0l23.6-60.78h13Z"/><rect class="cls-2" x="67.42" y="269.54" width="11.63" height="60.78"/><path class="cls-2" d="M117.15,304.6c-.09-3.38-1-6-2.61-7.71a7.93,7.93,0,0,0-6-2.65,8.07,8.07,0,0,0-6.28,2.79,10.78,10.78,0,0,0-2.43,7.57Zm-.68,11.8,11.63,2a19.17,19.17,0,0,1-7.06,9.74A20.86,20.86,0,0,1,109,331.43q-11.48,0-17-7.52-4.35-6-4.35-15.21,0-10.95,5.71-17.16a18.8,18.8,0,0,1,14.46-6.21q9.81,0,15.49,6.49t5.42,19.91H99.57c.09,3.45,1,6.14,2.82,8.07a8.75,8.75,0,0,0,6.68,2.88,7.07,7.07,0,0,0,4.58-1.48A9.16,9.16,0,0,0,116.47,316.4Z"/><path class="cls-2" d="M149.33,330.32H137.7V286.26h10.78v6.26q2.79-4.44,5-5.82a9.4,9.4,0,0,1,5-1.37,15,15,0,0,1,7.69,2.19l-3.61,10.16a10.27,10.27,0,0,0-5.48-1.91,6.53,6.53,0,0,0-4.16,1.34,9.27,9.27,0,0,0-2.67,4.87c-.65,2.35-1,7.28-1,14.76Z"/><path class="cls-2" d="M191.36,286.26v9.26h-8v17.84a45.56,45.56,0,0,0,.22,6.32,2.63,2.63,0,0,0,1,1.49,3.33,3.33,0,0,0,2,.58,15,15,0,0,0,4.69-1.12l1,9.06a23.22,23.22,0,0,1-9.18,1.74,14.39,14.39,0,0,1-5.66-1.07,8.07,8.07,0,0,1-3.69-2.74,11,11,0,0,1-1.65-4.57,59,59,0,0,1-.36-8.25V295.52h-5.35v-9.26h5.35v-8.74l11.63-6.87v15.61Z"/><path class="cls-2" d="M223.79,309.27c-1.48.49-3.84,1.09-7.08,1.78s-5.35,1.37-6.34,2a4.85,4.85,0,0,0-2.28,4.1,5.7,5.7,0,0,0,1.83,4.23,6.32,6.32,0,0,0,4.63,1.78,10.18,10.18,0,0,0,6-2.06,7.39,7.39,0,0,0,2.77-3.87,23.19,23.19,0,0,0,.45-5.67Zm-15.62-9.42L197.65,298q1.78-6.45,6.14-9.55t12.93-3.1q7.78,0,11.62,1.84a11.65,11.65,0,0,1,5.36,4.68c1,1.9,1.55,5.37,1.55,10.43l-.17,13.58a47.49,47.49,0,0,0,.56,8.56,24.22,24.22,0,0,0,2.08,5.9H226.17c-.3-.76-.68-1.89-1.12-3.39a11.35,11.35,0,0,0-.41-1.36,20.74,20.74,0,0,1-6.36,4.38,18,18,0,0,1-7.23,1.48q-6.78,0-10.69-3.7a12.26,12.26,0,0,1-3.9-9.32,12.51,12.51,0,0,1,1.78-6.65,11.62,11.62,0,0,1,5-4.47,39.35,39.35,0,0,1,9.25-2.72,63.44,63.44,0,0,0,11.3-2.86v-1.17q0-3.39-1.65-4.85t-6.28-1.45a8.17,8.17,0,0,0-4.86,1.25A8.62,8.62,0,0,0,208.17,299.85Z"/></svg>