<?xml version="1.0" encoding="UTF-8"?>
<!DOCTYPE svg PUBLIC "-//W3C//DTD SVG 1.1//EN" "http://www.w3.org/Graphics/SVG/1.1/DTD/svg11.dtd">
<!-- Creator: CorelDRAW -->
<svg xmlns="http://www.w3.org/2000/svg" xml:space="preserve" width="186px" height="171px" version="1.1" style="shape-rendering:geometricPrecision; text-rendering:geometricPrecision; image-rendering:optimizeQuality; fill-rule:evenodd; clip-rule:evenodd"
viewBox="0 0 186 171.13"
 xmlns:xlink="http://www.w3.org/1999/xlink"
 xmlns:xodm="http://www.corel.com/coreldraw/odm/2003">
 <defs>
  <style type="text/css">
   <![CDATA[
    .fil1 {fill:#FEFEFE;fill-rule:nonzero}
    .fil0 {fill:url(#id0)}
   ]]>
  </style>
  <linearGradient id="id0" gradientUnits="userSpaceOnUse" x1="141.21" y1="64.31" x2="42.62" y2="156.27">
   <stop offset="0" style="stop-opacity:1; stop-color:#ED9DE2"/>
   <stop offset="0.811765" style="stop-opacity:1; stop-color:#E56C9B"/>
   <stop offset="1" style="stop-opacity:1; stop-color:#DC3B53"/>
  </linearGradient>
 </defs>
 <g id="Camada_x0020_1">
  <metadata id="CorelCorpID_0Corel-Layer"/>
  <g id="_2659369533056">
   <path class="fil0" d="M133.05 73.48c-0.21,-2.1 -40.19,3.38 -57.57,12.04 -1.83,0.91 -4.87,2.54 -4.79,4.4 0.14,3.01 8.41,4.78 12.76,5.65 29.11,5.86 50.61,5.66 51.03,8.8 0.47,3.56 -25.08,10.88 -26.58,11.31 -35.6,10.1 -66.97,13.82 -66.97,13.82 -13.79,1.63 -21.09,1.87 -23.17,7.43 -2.95,7.91 7.14,20.63 13.07,27.12 27.08,29.67 139.08,-42.18 132.35,-62.82 -4.48,-13.74 -59.99,-7.98 -60.11,-14.17 -0.06,-3.17 14.49,-8.16 24.91,-11.73 4.35,-1.5 5.1,-1.56 5.07,-1.85z"/>
   <path class="fil1" d="M168.14 66.38c0.15,-0.22 0.29,-0.42 0.42,-0.61 0.32,-0.49 0.62,-0.94 0.99,-1.35 0.13,-0.16 0.36,-0.29 0.59,-0.36 0.23,-0.07 0.49,-0.1 0.69,-0.05 1.64,0.39 3.26,0.85 4.8,1.48 1.55,0.65 3.02,1.48 4.34,2.62 0.36,0.32 0.69,0.65 0.98,0.98 1.04,1.2 1.56,2.5 1.56,3.8 0,1.3 -0.52,2.6 -1.57,3.81 -0.28,0.33 -0.61,0.66 -0.97,0.97 -1.38,1.19 -2.9,2.06 -4.52,2.72 -1.6,0.66 -3.29,1.11 -5,1.48 -4.32,0.91 -8.63,1.34 -12.91,1.18 -4.29,-0.16 -8.54,-0.92 -12.75,-2.37 -0.94,-0.32 -1.88,-0.75 -2.78,-1.24 -0.93,-0.5 -1.82,-1.09 -2.65,-1.72 -0.48,-0.38 -0.9,-0.77 -1.24,-1.18 -0.93,-1.09 -1.39,-2.31 -1.41,-3.55 -0.01,-1.23 0.42,-2.47 1.29,-3.61 0.35,-0.45 0.77,-0.89 1.25,-1.3 1.34,-1.12 2.81,-1.95 4.35,-2.59 1.55,-0.64 3.17,-1.1 4.81,-1.48 0.21,-0.05 0.46,0 0.7,0.1 0.24,0.1 0.48,0.26 0.63,0.42 0.34,0.36 0.6,0.77 0.9,1.22 0.13,0.19 0.26,0.39 0.41,0.61l0.26 0.37 -0.44 0.12c-0.37,0.09 -0.73,0.17 -1.09,0.25 -0.74,0.17 -1.45,0.32 -2.09,0.6l-1.09 0.46c-1.74,0.73 -3.5,1.47 -5.02,2.5 -0.41,0.28 -0.73,0.57 -0.97,0.86 -0.33,0.41 -0.5,0.83 -0.51,1.26 -0.01,0.43 0.14,0.87 0.44,1.31 0.25,0.37 0.59,0.73 1.04,1.09 1.23,1 2.59,1.73 4.02,2.27 1.44,0.55 2.96,0.93 4.5,1.23 3.89,0.76 7.77,1.11 11.62,0.95 3.85,-0.15 7.67,-0.82 11.44,-2.1 0.78,-0.26 1.54,-0.6 2.27,-0.99 0.78,-0.42 1.53,-0.9 2.23,-1.42 0.36,-0.26 0.64,-0.52 0.87,-0.79 0.37,-0.45 0.57,-0.91 0.58,-1.36 0,-0.46 -0.17,-0.93 -0.52,-1.41 -0.23,-0.3 -0.52,-0.6 -0.89,-0.91 -1.16,-0.98 -2.46,-1.67 -3.83,-2.2 -1.38,-0.53 -2.84,-0.92 -4.3,-1.28l-1.69 -0.42 0.26 -0.37zm-162.03 20.44c-1.27,0 -2.24,-0.39 -2.91,-1.17 -0.69,-0.78 -1.02,-2.19 -1.02,-4.23 0,-0.96 0.11,-2.12 0.32,-3.48 0.22,-1.35 0.52,-2.79 0.92,-4.32 0.39,-1.53 0.85,-3.06 1.38,-4.59 0.52,-1.53 1.09,-2.95 1.7,-4.28 0.79,-1.68 1.6,-2.99 2.43,-3.93 0.83,-0.92 1.69,-1.58 2.6,-1.96 0.9,-0.38 1.87,-0.57 2.89,-0.57 1.53,0 2.94,0.46 4.23,1.38 1.29,0.94 2.39,2.56 3.34,4.89 0.56,1.42 1.09,3.04 1.59,4.83 0.5,1.8 0.9,3.69 1.19,5.65 0.29,1.96 0.43,3.89 0.43,5.78 0,2.07 -0.42,3.58 -1.25,4.55 -0.85,0.96 -2.02,1.45 -3.53,1.45 -1.3,0 -2.33,-0.39 -3.08,-1.17 -0.74,-0.78 -1.21,-2.06 -1.39,-3.84 -0.1,-1.15 -0.16,-2.34 -0.16,-3.56 0,-1.23 0.06,-2.4 0.16,-3.52l1.98 2.91c-0.7,0.23 -1.59,0.37 -2.64,0.42 -1.07,0.06 -2.16,0.02 -3.3,-0.07 -1.14,-0.1 -2.2,-0.31 -3.2,-0.62l3.03 -2.56c0.03,1.25 -0.04,2.47 -0.19,3.65 -0.16,1.19 -0.33,2.27 -0.54,3.23 -0.15,1.12 -0.42,2.06 -0.83,2.83 -0.4,0.77 -0.93,1.35 -1.6,1.73 -0.67,0.38 -1.52,0.57 -2.55,0.57zm8.08 -14.34c1.15,0 2.04,-0.25 2.66,-0.75 0.61,-0.5 0.93,-1.17 0.93,-2 0,-0.42 -0.09,-0.88 -0.26,-1.4 -0.19,-0.52 -0.42,-1.01 -0.73,-1.46 -0.31,-0.44 -0.68,-0.82 -1.11,-1.12 -0.44,-0.31 -0.9,-0.46 -1.41,-0.46 -0.54,0 -1.02,0.16 -1.46,0.48 -0.43,0.31 -0.8,0.71 -1.1,1.18 -0.32,0.47 -0.57,0.99 -0.75,1.54 -0.2,0.56 -0.29,1.07 -0.29,1.54 0,0.74 0.31,1.33 0.94,1.78 0.62,0.44 1.48,0.67 2.58,0.67zm26.51 14.49c-3.66,0 -6.33,-0.92 -8.06,-2.75 -1.72,-1.83 -2.58,-4.39 -2.58,-7.65 0,-2.53 0.51,-4.76 1.53,-6.72 1.02,-1.95 2.49,-3.47 4.42,-4.59 1.92,-1.11 4.24,-1.66 6.94,-1.66 2.45,0 4.33,0.45 5.63,1.38 1.29,0.92 1.94,2.17 1.94,3.75 0,1.09 -0.36,1.96 -1.06,2.6 -0.72,0.64 -1.75,0.95 -3.1,0.95 -0.57,0 -1.11,-0.04 -1.63,-0.12 -0.52,-0.07 -1.03,-0.13 -1.53,-0.18 -0.5,-0.05 -1,-0.08 -1.51,-0.08 -1.22,0 -2.15,0.3 -2.79,0.88 -0.64,0.59 -0.96,1.45 -0.96,2.6 0,1.06 0.32,1.83 0.96,2.31 0.64,0.5 1.5,0.75 2.6,0.75 0.49,0 1,-0.05 1.53,-0.17 0.53,-0.12 1.09,-0.23 1.67,-0.33 0.57,-0.09 1.13,-0.15 1.66,-0.15 1.02,0 1.86,0.28 2.54,0.86 0.68,0.57 1.01,1.43 1.01,2.55 0,1.11 -0.33,2.12 -1.01,3 -0.68,0.88 -1.7,1.56 -3.05,2.05 -1.37,0.49 -3.08,0.72 -5.15,0.72zm25.16 -0.3c-2.22,0 -4.15,-0.46 -5.81,-1.37 -1.66,-0.9 -2.94,-2.2 -3.84,-3.88 -0.91,-1.68 -1.37,-3.68 -1.37,-6 0,-2.42 0.46,-4.55 1.38,-6.36 0.92,-1.81 2.22,-3.22 3.9,-4.23 1.68,-1.02 3.64,-1.53 5.86,-1.53 2.39,0 4.46,0.48 6.21,1.47 1.75,0.99 3.11,2.35 4.08,4.11 0.96,1.77 1.45,3.82 1.45,6.16 0,2.39 -0.49,4.46 -1.48,6.2 -0.98,1.73 -2.36,3.07 -4.12,4.01 -1.77,0.94 -3.86,1.42 -6.26,1.42zm0.53 -7.2c1.15,0 2.07,-0.44 2.77,-1.34 0.68,-0.89 1.03,-2.07 1.03,-3.55 0,-1.48 -0.35,-2.66 -1.03,-3.56 -0.7,-0.89 -1.62,-1.34 -2.77,-1.34 -1.17,0 -2.1,0.45 -2.79,1.33 -0.68,0.87 -1.03,2.07 -1.03,3.57 0,1.48 0.35,2.66 1.03,3.55 0.69,0.9 1.62,1.34 2.79,1.34zm35.81 -10.44c0.25,-1.04 0.71,-1.98 1.38,-2.83 0.66,-0.83 1.47,-1.5 2.43,-2 0.95,-0.5 1.99,-0.75 3.11,-0.75 1.37,0 2.6,0.31 3.66,0.95 1.05,0.64 1.89,1.69 2.51,3.15 0.6,1.45 0.91,3.39 0.91,5.81 0,1.2 -0.06,2.4 -0.16,3.63 -0.09,1.22 -0.22,2.35 -0.38,3.4 -0.16,1.05 -0.32,1.93 -0.49,2.64 -0.32,1.2 -0.85,2.09 -1.6,2.68 -0.75,0.59 -1.67,0.88 -2.76,0.88 -1.03,0 -1.83,-0.31 -2.42,-0.94 -0.59,-0.62 -0.88,-1.51 -0.88,-2.65 0,-0.47 0.07,-1.08 0.2,-1.85 0.12,-0.76 0.26,-1.58 0.42,-2.48 0.15,-0.89 0.29,-1.77 0.42,-2.64 0.12,-0.86 0.19,-1.61 0.19,-2.25 0,-0.94 -0.18,-1.68 -0.53,-2.2 -0.36,-0.52 -0.87,-0.78 -1.53,-0.78 -0.8,0 -1.45,0.49 -1.93,1.45 -0.5,0.97 -0.82,2.38 -0.95,4.21 -0.07,1.45 -0.17,2.74 -0.27,3.88 -0.1,1.14 -0.29,2.08 -0.57,2.85 -0.27,0.86 -0.7,1.51 -1.26,1.94 -0.56,0.43 -1.31,0.65 -2.25,0.65 -1.02,0 -1.85,-0.3 -2.47,-0.92 -0.62,-0.61 -0.96,-1.56 -1.01,-2.86 -0.04,-0.81 -0.04,-1.78 -0.03,-2.87 0.01,-1.1 0.04,-2.17 0.05,-3.25 0.01,-1.07 -0.01,-1.96 -0.07,-2.67 -0.05,-1.12 -0.25,-1.95 -0.61,-2.48 -0.35,-0.52 -0.88,-0.78 -1.57,-0.78 -0.73,0 -1.32,0.38 -1.75,1.13 -0.44,0.75 -0.72,1.8 -0.85,3.15 -0.05,0.65 -0.06,1.41 -0.05,2.34 0.01,0.92 0.03,1.83 0.04,2.73 0.01,0.91 0,1.68 -0.02,2.32 -0.06,1.75 -0.4,3.01 -1.05,3.76 -0.65,0.75 -1.55,1.13 -2.7,1.13 -1.3,0 -2.27,-0.37 -2.89,-1.11 -0.63,-0.74 -1.02,-1.93 -1.17,-3.59 -0.1,-1.05 -0.17,-2.09 -0.23,-3.14 -0.05,-1.04 -0.07,-2.08 -0.07,-3.13 0,-1.06 0.04,-2.17 0.12,-3.38 0.07,-1.19 0.16,-2.34 0.26,-3.43 0.2,-1.58 0.58,-2.91 1.15,-3.98 0.56,-1.07 1.48,-1.61 2.75,-1.61 1.15,0 1.97,0.36 2.47,1.09 0.49,0.72 0.74,1.84 0.74,3.35 0,0.51 -0.03,0.99 -0.11,1.42l-0.12 -0.77c0.51,-1.66 1.36,-2.95 2.53,-3.88 1.17,-0.93 2.47,-1.4 3.9,-1.4 1.86,0 3.31,0.57 4.34,1.73 1.03,1.16 1.6,2.77 1.7,4.82l-0.53 -0.47zm25.46 37.53c1.28,0 2.31,0.38 3.09,1.13 0.77,0.74 1.16,1.85 1.16,3.3 0,1.3 -0.37,2.42 -1.1,3.34 -0.75,0.93 -1.93,1.4 -3.57,1.4 -1.35,0 -2.34,-0.38 -2.96,-1.15 -0.62,-0.76 -0.93,-1.83 -0.93,-3.21 0,-0.81 0.13,-1.59 0.38,-2.33 0.25,-0.74 0.69,-1.33 1.33,-1.8 0.64,-0.45 1.51,-0.68 2.6,-0.68zm27.42 7.95c-0.81,0 -1.52,-0.17 -2.13,-0.5 -0.62,-0.33 -1.1,-0.9 -1.43,-1.72 -0.35,-0.81 -0.52,-1.96 -0.52,-3.44 0,-1.4 0.05,-2.9 0.15,-4.48 0.1,-1.57 0.24,-3.18 0.4,-4.79 0.16,-1.62 0.35,-3.18 0.55,-4.69l-0.15 0c-0.77,2.96 -1.6,5.1 -2.5,6.42 -0.91,1.33 -1.93,2 -3.05,2 -0.68,0 -1.31,-0.24 -1.86,-0.73 -0.57,-0.49 -1.1,-1.37 -1.61,-2.65 -0.51,-1.26 -1.07,-3.08 -1.69,-5.43l-0.15 0c0.13,1.13 0.25,2.33 0.35,3.62 0.09,1.29 0.19,2.57 0.28,3.86 0.08,1.29 0.15,2.52 0.19,3.69 0.04,1.18 0.06,2.22 0.06,3.14 0,1.08 -0.12,2.04 -0.36,2.92 -0.25,0.88 -0.68,1.58 -1.3,2.1 -0.63,0.53 -1.5,0.79 -2.59,0.79 -1.36,0 -2.37,-0.45 -3.04,-1.36 -0.68,-0.9 -1.02,-2.4 -1.02,-4.49 0,-0.99 0.04,-2.14 0.1,-3.43 0.06,-1.29 0.15,-2.6 0.27,-3.95 0.12,-1.36 0.26,-2.66 0.42,-3.93 0.17,-1.26 0.35,-2.39 0.56,-3.41 0.43,-2.17 1.03,-3.74 1.8,-4.73 0.77,-0.97 1.74,-1.46 2.93,-1.46 0.9,0 1.76,0.24 2.6,0.7 0.82,0.47 1.6,1.3 2.33,2.48 0.72,1.19 1.35,2.88 1.88,5.08l0.16 0c0.54,-2.3 1.14,-4.11 1.81,-5.42 0.66,-1.31 1.38,-2.24 2.17,-2.78 0.8,-0.53 1.61,-0.8 2.44,-0.8 1.28,0 2.3,0.52 3.07,1.55 0.76,1.03 1.37,2.43 1.83,4.2 0.36,1.35 0.67,2.86 0.93,4.54 0.25,1.68 0.44,3.4 0.57,5.16 0.12,1.77 0.18,3.46 0.18,5.09 0,2.51 -0.42,4.27 -1.25,5.3 -0.85,1.03 -1.98,1.55 -3.38,1.55zm20.32 -26.16c1.75,0 3.13,0.16 4.13,0.49 0.98,0.34 1.7,0.82 2.12,1.46 0.42,0.64 0.63,1.41 0.63,2.33 0,1.46 -0.55,2.55 -1.65,3.25 -1.09,0.72 -2.8,1.07 -5.08,1.07 -0.95,0 -2.01,-0.02 -3.18,-0.05 -1.17,-0.03 -2.41,-0.11 -3.71,-0.22l0.31 -0.33c0.22,0.73 0.33,1.52 0.31,2.38 -0.03,0.86 -0.17,1.68 -0.43,2.47l-0.23 -0.27c0.51,-0.07 1.12,-0.14 1.82,-0.19 0.71,-0.06 1.43,-0.09 2.2,-0.12 0.76,-0.02 1.46,-0.04 2.1,-0.04 1.58,0 2.69,0.28 3.33,0.83 0.64,0.55 0.96,1.21 0.96,2 0,0.9 -0.35,1.65 -1.03,2.25 -0.7,0.6 -1.87,0.9 -3.53,0.9 -0.92,0 -1.89,-0.1 -2.92,-0.29 -1.03,-0.19 -2.08,-0.57 -3.12,-1.13l0.31 -0.08c0.23,0.49 0.39,1.05 0.48,1.7 0.08,0.65 0.09,1.3 0.02,1.93 -0.08,0.64 -0.25,1.2 -0.5,1.68l-0.12 -0.33c0.77,-0.23 1.64,-0.42 2.62,-0.58 0.99,-0.15 1.99,-0.27 3.01,-0.36 1.01,-0.09 1.97,-0.13 2.86,-0.13 1.71,0 2.99,0.23 3.84,0.72 0.83,0.49 1.25,1.29 1.25,2.41 0,0.74 -0.17,1.34 -0.53,1.83 -0.36,0.49 -0.97,0.93 -1.84,1.35 -0.64,0.3 -1.44,0.56 -2.41,0.78 -0.96,0.21 -2,0.38 -3.1,0.49 -1.09,0.12 -2.17,0.18 -3.21,0.18 -1.92,0 -3.5,-0.24 -4.76,-0.73 -1.27,-0.49 -2.18,-1.18 -2.74,-2.1 -0.51,-0.92 -0.88,-2.13 -1.13,-3.62 -0.25,-1.49 -0.37,-3.54 -0.37,-6.14 0,-3.64 0.21,-6.49 0.62,-8.56 0.4,-2.08 0.93,-3.55 1.57,-4.44 0.61,-0.81 1.5,-1.42 2.68,-1.82 1.17,-0.39 2.49,-0.65 3.98,-0.78 1.47,-0.13 2.95,-0.19 4.44,-0.19zm-171.62 3.37c0.95,0 1.73,0.42 2.35,1.26 0.6,0.84 1.04,2.16 1.28,3.97l-0.8 0.5c0.47,-1.79 1.33,-3.15 2.57,-4.1 1.25,-0.94 2.72,-1.41 4.44,-1.41 1.6,0 3.03,0.42 4.3,1.23 1.26,0.81 2.25,2.05 2.96,3.69 0.72,1.64 1.07,3.7 1.07,6.18 0,4 -0.73,6.95 -2.21,8.84 -1.48,1.9 -3.49,2.85 -6.02,2.85 -1.7,0 -3.05,-0.38 -4.04,-1.15 -1,-0.75 -1.69,-1.69 -2.07,-2.78l0.46 -0.23c0.2,1.45 0.37,2.88 0.52,4.3 0.14,1.42 0.2,2.66 0.2,3.73 0,1.27 -0.3,2.35 -0.9,3.21 -0.59,0.87 -1.55,1.3 -2.84,1.3 -1.2,0 -2.11,-0.4 -2.75,-1.2 -0.64,-0.8 -1.1,-1.9 -1.35,-3.27 -0.15,-1.08 -0.3,-2.43 -0.45,-4.09 -0.15,-1.66 -0.27,-3.45 -0.36,-5.38 -0.1,-1.92 -0.14,-3.81 -0.14,-5.68 0,-1.85 0.08,-3.6 0.22,-5.24 0.14,-1.63 0.3,-2.96 0.51,-3.97 0.22,-0.87 0.6,-1.51 1.12,-1.93 0.52,-0.43 1.16,-0.63 1.93,-0.63zm7.24 6.16c-1.08,0 -1.92,0.52 -2.56,1.56 -0.64,1.05 -0.97,2.39 -0.97,4.05 0,1.71 0.33,2.99 0.97,3.83 0.64,0.84 1.46,1.27 2.48,1.27 1.22,0 2.09,-0.48 2.62,-1.42 0.52,-0.95 0.78,-2.18 0.78,-3.71 0,-1.92 -0.33,-3.33 -0.99,-4.23 -0.67,-0.9 -1.45,-1.35 -2.33,-1.35zm30.82 17.93c-1.3,0 -2.17,-0.34 -2.59,-1.02 -0.44,-0.67 -0.65,-1.75 -0.65,-3.22l0.56 0.18c-1.38,2.79 -4.02,4.18 -7.95,4.18 -1.79,0 -3.26,-0.33 -4.43,-0.97 -1.18,-0.64 -2.05,-1.47 -2.63,-2.5 -0.57,-1.03 -0.86,-2.17 -0.86,-3.42 0,-2.13 0.78,-3.84 2.34,-5.08 1.55,-1.25 3.62,-1.88 6.19,-1.88 1.6,0 3.01,0.24 4.23,0.73 1.2,0.49 2.22,1.16 3.03,2.02l-1.06 -0.07c-0.05,-2.15 -0.46,-3.68 -1.26,-4.58 -0.79,-0.9 -1.94,-1.35 -3.44,-1.35 -0.7,0 -1.41,0.11 -2.15,0.32 -0.74,0.22 -1.46,0.44 -2.19,0.67 -0.73,0.22 -1.46,0.34 -2.21,0.34 -0.92,0 -1.63,-0.26 -2.14,-0.77 -0.51,-0.51 -0.77,-1.17 -0.77,-1.98 0,-1.12 0.49,-2.13 1.45,-3.03 0.97,-0.88 2.26,-1.59 3.85,-2.11 1.6,-0.52 3.32,-0.78 5.19,-0.78 2.37,0 4.43,0.47 6.18,1.41 1.74,0.94 2.99,2.38 3.76,4.32 0.58,1.46 1,3.09 1.24,4.92 0.24,1.82 0.36,3.76 0.36,5.83 0,2.07 -0.13,3.66 -0.4,4.8 -0.27,1.14 -0.7,1.92 -1.3,2.37 -0.6,0.44 -1.39,0.67 -2.35,0.67zm-7.72 -5.24c0.58,0 1.18,-0.1 1.8,-0.29 0.61,-0.19 1.13,-0.47 1.55,-0.83 0.42,-0.35 0.63,-0.8 0.63,-1.33 0,-0.49 -0.17,-0.89 -0.5,-1.2 -0.34,-0.32 -0.78,-0.56 -1.34,-0.7 -0.56,-0.14 -1.15,-0.2 -1.8,-0.2 -1.12,0 -2,0.21 -2.64,0.65 -0.64,0.43 -0.95,0.99 -0.95,1.68 0,0.66 0.29,1.2 0.87,1.6 0.59,0.41 1.38,0.62 2.38,0.62zm19.2 -18.93c1.15,0 1.95,0.33 2.39,0.99 0.45,0.66 0.67,1.65 0.67,2.95 0,0.3 -0.03,0.62 -0.06,0.97 -0.03,0.35 -0.1,0.66 -0.17,0.93l-0.08 -0.75c0.62,-1.66 1.55,-2.95 2.8,-3.89 1.25,-0.93 2.57,-1.39 3.97,-1.39 1.71,0 3.13,0.46 4.25,1.4 1.11,0.95 1.96,2.28 2.52,3.98 0.56,1.72 0.84,3.73 0.84,6.05 0,1.25 -0.06,2.48 -0.15,3.67 -0.1,1.2 -0.24,2.3 -0.42,3.29 -0.18,1 -0.41,1.81 -0.69,2.45 -0.38,0.93 -0.92,1.61 -1.6,2.06 -0.69,0.47 -1.52,0.7 -2.49,0.7 -1.03,0 -1.82,-0.35 -2.37,-1.05 -0.56,-0.71 -0.85,-1.68 -0.85,-2.93 0,-0.79 0.05,-1.73 0.14,-2.82 0.09,-1.07 0.18,-2.17 0.25,-3.26 0.08,-1.1 0.11,-2.03 0.11,-2.8 0,-2.44 -0.77,-3.66 -2.3,-3.66 -0.83,0 -1.54,0.39 -2.11,1.16 -0.58,0.78 -0.96,1.87 -1.13,3.27 -0.07,0.64 -0.13,1.42 -0.15,2.36 -0.03,0.95 -0.05,1.89 -0.08,2.82 -0.03,0.93 -0.06,1.72 -0.12,2.35 -0.15,1.76 -0.56,3.02 -1.23,3.77 -0.68,0.74 -1.61,1.12 -2.79,1.12 -1.4,0 -2.46,-0.44 -3.16,-1.32 -0.72,-0.88 -1.08,-2.35 -1.08,-4.44 0,-1.08 0.03,-2.27 0.08,-3.6 0.05,-1.33 0.12,-2.66 0.22,-4 0.08,-1.34 0.19,-2.55 0.31,-3.65 0.26,-2.09 0.74,-3.74 1.44,-4.94 0.71,-1.19 1.72,-1.79 3.04,-1.79zm24.93 -6.5c1.27,0 2.16,0.38 2.66,1.12 0.5,0.75 0.75,1.87 0.75,3.35 0,1.08 -0.07,2.29 -0.21,3.67 -0.14,1.37 -0.35,2.63 -0.59,3.75l-0.23 0c0.79,-1.32 1.81,-2.4 3.06,-3.21 1.24,-0.81 2.58,-1.22 3.97,-1.22 1.36,0 2.56,0.32 3.61,0.98 1.06,0.66 1.92,1.69 2.59,3.07 0.58,1.17 1.01,2.56 1.3,4.16 0.28,1.62 0.42,3.15 0.42,4.6 0,2.37 -0.21,4.26 -0.63,5.66 -0.42,1.4 -1,2.42 -1.73,3.04 -0.75,0.62 -1.62,0.94 -2.62,0.94 -2.39,0 -3.59,-1.52 -3.59,-4.56 0,-1.2 0.08,-2.41 0.22,-3.65 0.14,-1.23 0.21,-2.36 0.21,-3.38 0,-1.28 -0.21,-2.23 -0.63,-2.85 -0.43,-0.62 -1.02,-0.94 -1.79,-0.94 -0.92,0 -1.66,0.44 -2.23,1.29 -0.58,0.87 -0.86,2.08 -0.86,3.6 0,0.95 0.06,1.92 0.21,2.91 0.14,1 0.2,2.09 0.2,3.3 0,1.78 -0.37,3.06 -1.1,3.83 -0.74,0.78 -1.69,1.17 -2.83,1.17 -0.77,0 -1.46,-0.11 -2.06,-0.36 -0.62,-0.24 -1.13,-0.74 -1.55,-1.49 -0.43,-0.75 -0.75,-1.85 -0.98,-3.32 -0.16,-0.94 -0.3,-2.04 -0.42,-3.28 -0.13,-1.25 -0.24,-2.56 -0.33,-3.93 -0.1,-1.35 -0.17,-2.68 -0.23,-3.99 -0.06,-1.3 -0.09,-2.46 -0.09,-3.48 0,-3.75 0.47,-6.48 1.43,-8.2 0.95,-1.73 2.31,-2.58 4.07,-2.58zm37.56 30.67c-1.3,0 -2.17,-0.34 -2.59,-1.02 -0.44,-0.67 -0.65,-1.75 -0.65,-3.22l0.56 0.18c-1.38,2.79 -4.02,4.18 -7.95,4.18 -1.78,0 -3.26,-0.33 -4.43,-0.97 -1.18,-0.64 -2.05,-1.47 -2.62,-2.5 -0.58,-1.03 -0.87,-2.17 -0.87,-3.42 0,-2.13 0.78,-3.84 2.34,-5.08 1.55,-1.25 3.62,-1.88 6.19,-1.88 1.61,0 3.02,0.24 4.23,0.73 1.2,0.49 2.22,1.16 3.04,2.02l-1.07 -0.07c-0.05,-2.15 -0.46,-3.68 -1.25,-4.58 -0.8,-0.9 -1.95,-1.35 -3.45,-1.35 -0.7,0 -1.41,0.11 -2.15,0.32 -0.74,0.22 -1.46,0.44 -2.19,0.67 -0.73,0.22 -1.46,0.34 -2.21,0.34 -0.92,0 -1.63,-0.26 -2.14,-0.77 -0.51,-0.51 -0.77,-1.17 -0.77,-1.98 0,-1.12 0.49,-2.13 1.46,-3.03 0.96,-0.88 2.25,-1.59 3.85,-2.11 1.59,-0.52 3.31,-0.78 5.18,-0.78 2.37,0 4.43,0.47 6.18,1.41 1.74,0.94 2.99,2.38 3.76,4.32 0.59,1.46 1,3.09 1.25,4.92 0.24,1.82 0.35,3.76 0.35,5.83 0,2.07 -0.13,3.66 -0.4,4.8 -0.27,1.14 -0.7,1.92 -1.3,2.37 -0.59,0.44 -1.39,0.67 -2.35,0.67zm-7.72 -5.24c0.59,0 1.18,-0.1 1.8,-0.29 0.61,-0.19 1.13,-0.47 1.55,-0.83 0.42,-0.35 0.63,-0.8 0.63,-1.33 0,-0.49 -0.16,-0.89 -0.5,-1.2 -0.34,-0.32 -0.78,-0.56 -1.33,-0.7 -0.57,-0.14 -1.16,-0.2 -1.8,-0.2 -1.13,0 -2.01,0.21 -2.65,0.65 -0.64,0.43 -0.95,0.99 -0.95,1.68 0,0.66 0.29,1.2 0.88,1.6 0.58,0.41 1.37,0.62 2.37,0.62zm66.07 -80.17c-1.66,2.47 -3.63,4.66 -5.84,6.61 -2.19,1.92 -4.64,3.62 -7.28,5.11 -0.37,0.21 -0.87,0.33 -1.31,0.34 -0.46,0 -0.97,-0.09 -1.35,-0.31l-0.13 -0.08c-2.69,-1.53 -5.18,-3.25 -7.38,-5.22 -2.27,-2.01 -4.28,-4.3 -5.96,-6.9 -0.76,-1.19 -1.4,-2.44 -1.84,-3.77 -0.44,-1.35 -0.66,-2.77 -0.59,-4.28 0.02,-0.43 0.08,-0.85 0.15,-1.26 0.44,-2.34 1.74,-4.34 3.54,-5.71 1.79,-1.36 4.08,-2.12 6.52,-1.99 0.46,0.02 0.93,0.07 1.4,0.16 1.35,0.25 2.52,0.76 3.54,1.46 0.77,0.53 1.45,1.16 2.05,1.86 1.27,-1.47 2.84,-2.51 4.56,-3.06 1.81,-0.59 3.78,-0.62 5.7,-0.06 1.98,0.59 3.66,1.72 4.86,3.21 1.22,1.49 1.97,3.34 2.07,5.33l0 0.04c0.08,1.59 -0.18,3.1 -0.67,4.53 -0.49,1.42 -1.2,2.74 -2.04,3.99zm3.58 -19.19c-1.87,-2.2 -4.11,-3.94 -6.55,-5.23 -4.34,-2.3 -9.35,-3.16 -14.2,-2.65 -4.85,0.5 -9.52,2.37 -13.2,5.5 -2,1.7 -3.71,3.78 -5,6.22 -1.56,2.95 -2.31,5.92 -2.4,8.9 -0.08,3.01 0.51,6.06 1.65,9.14 2.26,6.14 5.42,11.81 9.05,17.22 3.65,5.45 7.81,10.67 12.03,15.86l0.12 0.13c0.11,0.08 0.22,0.12 0.32,0.12 0.13,0 0.29,-0.07 0.45,-0.19l0.21 -0.22c3.44,-4.21 6.8,-8.46 9.87,-12.81 3.08,-4.37 5.9,-8.88 8.28,-13.61 1.21,-2.42 2.31,-4.88 3.1,-7.36 0.78,-2.44 1.28,-4.94 1.35,-7.48 -0.04,-2.56 -0.47,-4.96 -1.3,-7.21 -0.84,-2.25 -2.1,-4.36 -3.78,-6.33zm-5.06 -8.05c2.78,1.46 5.33,3.46 7.49,5.99 1.92,2.26 3.36,4.69 4.33,7.28 0.97,2.59 1.46,5.35 1.5,8.29l0 0.09c-0.07,2.88 -0.63,5.66 -1.5,8.38 -0.85,2.67 -2.01,5.28 -3.29,7.83 -2.47,4.92 -5.37,9.55 -8.51,14.01 -3.16,4.49 -6.55,8.78 -10.01,13 -0.21,0.25 -0.44,0.48 -0.67,0.67 -0.71,0.57 -1.53,0.88 -2.36,0.91 -0.87,0.02 -1.72,-0.25 -2.43,-0.84 -0.19,-0.15 -0.37,-0.33 -0.54,-0.53l-0.05 -0.06c-4.25,-5.24 -8.46,-10.53 -12.2,-16.1 -3.77,-5.61 -7.05,-11.5 -9.4,-17.89 -1.27,-3.44 -1.93,-6.88 -1.83,-10.33 0.1,-3.46 0.97,-6.9 2.76,-10.29 1.48,-2.81 3.45,-5.2 5.76,-7.16 4.18,-3.57 9.47,-5.68 14.93,-6.25 5.45,-0.57 11.1,0.4 16.02,3z"/>
  </g>
 </g>
</svg>
