<?xml version="1.0" encoding="UTF-8"?>
<!DOCTYPE svg PUBLIC "-//W3C//DTD SVG 1.1//EN" "http://www.w3.org/Graphics/SVG/1.1/DTD/svg11.dtd">
<!-- Creator: CorelDRAW -->
<svg xmlns="http://www.w3.org/2000/svg" xml:space="preserve" width="192px" height="220px" version="1.1" style="shape-rendering:geometricPrecision; text-rendering:geometricPrecision; image-rendering:optimizeQuality; fill-rule:evenodd; clip-rule:evenodd"
viewBox="0 0 192.74 220.82"
 xmlns:xlink="http://www.w3.org/1999/xlink"
 xmlns:xodm="http://www.corel.com/coreldraw/odm/2003">
 <defs>
  <style type="text/css">
   <![CDATA[
    .fil1 {fill:#FEFEFE;fill-rule:nonzero}
    .fil0 {fill:url(#id0)}
   ]]>
  </style>
  <linearGradient id="id0" gradientUnits="userSpaceOnUse" x1="146.34" y1="110.12" x2="44.17" y2="205.41">
   <stop offset="0" style="stop-opacity:1; stop-color:#ED9DE2"/>
   <stop offset="0.811765" style="stop-opacity:1; stop-color:#E56C9B"/>
   <stop offset="1" style="stop-opacity:1; stop-color:#DC3B53"/>
  </linearGradient>
 </defs>
 <g id="Camada_x0020_1">
  <metadata id="CorelCorpID_0Corel-Layer"/>
  <path class="fil0" d="M137.87 119.62c-0.21,-2.18 -41.64,3.5 -59.66,12.48 -1.89,0.94 -5.04,2.62 -4.95,4.55 0.14,3.13 8.71,4.96 13.21,5.86 30.17,6.07 52.45,5.86 52.88,9.12 0.49,3.68 -25.99,11.28 -27.54,11.72 -36.89,10.47 -69.4,14.32 -69.4,14.32 -14.28,1.69 -21.85,1.94 -24,7.7 -3.06,8.19 7.39,21.38 13.54,28.11 28.06,30.74 144.12,-43.72 137.15,-65.11 -4.64,-14.23 -62.17,-8.27 -62.29,-14.68 -0.06,-3.28 15.01,-8.45 25.81,-12.16 4.51,-1.54 5.28,-1.61 5.25,-1.91z"/>
  <path class="fil1" d="M174.24 68.79c0.16,-0.23 0.3,-0.44 0.43,-0.64 0.33,-0.5 0.64,-0.97 1.02,-1.4 0.15,-0.16 0.38,-0.29 0.62,-0.37 0.24,-0.07 0.51,-0.1 0.72,-0.05 1.7,0.41 3.38,0.88 4.97,1.54 1.6,0.67 3.12,1.53 4.5,2.71 0.37,0.33 0.71,0.67 1.01,1.01 1.08,1.25 1.62,2.6 1.62,3.95 0,1.35 -0.54,2.69 -1.62,3.94 -0.3,0.34 -0.64,0.68 -1.02,1.01 -1.42,1.23 -3,2.13 -4.67,2.81 -1.67,0.69 -3.42,1.16 -5.19,1.53 -4.48,0.95 -8.94,1.4 -13.38,1.23 -4.44,-0.17 -8.85,-0.95 -13.21,-2.45 -0.98,-0.34 -1.95,-0.78 -2.88,-1.29 -0.97,-0.52 -1.89,-1.13 -2.75,-1.79 -0.5,-0.38 -0.93,-0.79 -1.29,-1.21 -0.95,-1.13 -1.44,-2.4 -1.45,-3.68 -0.02,-1.28 0.43,-2.57 1.34,-3.74 0.36,-0.47 0.79,-0.92 1.29,-1.35 1.38,-1.16 2.91,-2.02 4.51,-2.69 1.6,-0.66 3.28,-1.13 4.98,-1.53 0.22,-0.05 0.48,0 0.72,0.1 0.25,0.11 0.5,0.27 0.66,0.44 0.35,0.38 0.62,0.8 0.93,1.26 0.13,0.2 0.27,0.41 0.43,0.64l0.27 0.38 -0.46 0.12c-0.38,0.1 -0.76,0.18 -1.13,0.27 -0.77,0.17 -1.5,0.33 -2.17,0.62l-1.13 0.47c-1.8,0.76 -3.62,1.53 -5.19,2.59 -0.43,0.29 -0.76,0.59 -1.01,0.9 -0.35,0.42 -0.52,0.86 -0.53,1.3 -0.01,0.44 0.14,0.9 0.45,1.36 0.26,0.38 0.62,0.76 1.08,1.13 1.28,1.04 2.68,1.78 4.17,2.35 1.49,0.57 3.07,0.96 4.66,1.27 4.04,0.79 8.06,1.16 12.05,0.99 3.98,-0.16 7.94,-0.85 11.86,-2.18 0.8,-0.27 1.59,-0.62 2.35,-1.03 0.8,-0.43 1.58,-0.93 2.31,-1.47 0.36,-0.27 0.66,-0.54 0.89,-0.82 0.39,-0.46 0.59,-0.94 0.6,-1.41 0.01,-0.47 -0.17,-0.96 -0.54,-1.45 -0.23,-0.31 -0.54,-0.63 -0.91,-0.95 -1.21,-1.01 -2.56,-1.72 -3.97,-2.27 -1.43,-0.56 -2.95,-0.96 -4.47,-1.33l-1.74 -0.43 0.27 -0.39zm-167.9 21.18c-1.32,0 -2.33,-0.4 -3.03,-1.21 -0.7,-0.81 -1.05,-2.27 -1.05,-4.38 0,-1 0.11,-2.21 0.33,-3.61 0.23,-1.4 0.54,-2.9 0.96,-4.48 0.4,-1.59 0.88,-3.17 1.43,-4.75 0.53,-1.59 1.12,-3.06 1.76,-4.44 0.82,-1.74 1.65,-3.1 2.52,-4.07 0.85,-0.95 1.75,-1.64 2.69,-2.03 0.93,-0.4 1.93,-0.6 2.99,-0.6 1.58,0 3.05,0.48 4.38,1.44 1.34,0.97 2.48,2.65 3.46,5.07 0.59,1.47 1.14,3.14 1.65,5 0.52,1.86 0.94,3.82 1.24,5.85 0.3,2.03 0.45,4.03 0.45,5.99 0,2.14 -0.44,3.72 -1.3,4.72 -0.88,1 -2.09,1.5 -3.66,1.5 -1.34,0 -2.41,-0.4 -3.19,-1.21 -0.77,-0.81 -1.25,-2.14 -1.45,-3.98 -0.1,-1.19 -0.15,-2.43 -0.15,-3.7 0,-1.27 0.05,-2.48 0.15,-3.64l2.06 3.01c-0.73,0.24 -1.65,0.39 -2.74,0.44 -1.1,0.06 -2.24,0.03 -3.42,-0.07 -1.18,-0.11 -2.28,-0.32 -3.31,-0.65l3.13 -2.65c0.04,1.29 -0.03,2.56 -0.19,3.79 -0.17,1.22 -0.35,2.35 -0.56,3.35 -0.16,1.15 -0.44,2.13 -0.85,2.93 -0.42,0.8 -0.97,1.39 -1.67,1.79 -0.69,0.39 -1.57,0.59 -2.63,0.59zm8.36 -14.86c1.2,0 2.12,-0.26 2.76,-0.78 0.64,-0.51 0.96,-1.21 0.96,-2.08 0,-0.42 -0.09,-0.91 -0.27,-1.45 -0.19,-0.53 -0.43,-1.04 -0.75,-1.5 -0.33,-0.46 -0.71,-0.85 -1.16,-1.17 -0.45,-0.31 -0.93,-0.47 -1.46,-0.47 -0.55,0 -1.05,0.17 -1.5,0.49 -0.45,0.33 -0.83,0.74 -1.15,1.23 -0.32,0.48 -0.58,1.02 -0.77,1.59 -0.21,0.59 -0.31,1.12 -0.31,1.6 0,0.76 0.33,1.38 0.98,1.84 0.64,0.46 1.54,0.7 2.67,0.7zm27.47 15.02c-3.78,0 -6.56,-0.96 -8.35,-2.85 -1.78,-1.9 -2.67,-4.56 -2.67,-7.94 0,-2.61 0.53,-4.93 1.59,-6.95 1.05,-2.02 2.58,-3.61 4.58,-4.77 1.99,-1.14 4.39,-1.71 7.19,-1.71 2.54,0 4.48,0.47 5.83,1.42 1.34,0.96 2.01,2.25 2.01,3.89 0,1.13 -0.37,2.03 -1.1,2.7 -0.74,0.66 -1.81,0.99 -3.21,0.99 -0.59,0 -1.15,-0.05 -1.69,-0.13 -0.54,-0.08 -1.07,-0.13 -1.58,-0.19 -0.52,-0.06 -1.04,-0.08 -1.56,-0.08 -1.27,0 -2.24,0.31 -2.9,0.91 -0.67,0.61 -0.99,1.51 -0.99,2.7 0,1.09 0.32,1.89 0.99,2.39 0.66,0.52 1.56,0.78 2.69,0.78 0.51,0 1.04,-0.06 1.59,-0.18 0.55,-0.13 1.13,-0.24 1.73,-0.34 0.59,-0.1 1.17,-0.16 1.72,-0.16 1.05,0 1.93,0.29 2.64,0.89 0.69,0.6 1.04,1.48 1.04,2.64 0,1.16 -0.35,2.2 -1.04,3.11 -0.71,0.91 -1.77,1.62 -3.17,2.13 -1.42,0.5 -3.19,0.75 -5.34,0.75zm26.08 -0.32c-2.31,0 -4.31,-0.47 -6.02,-1.41 -1.72,-0.93 -3.05,-2.28 -3.98,-4.02 -0.94,-1.75 -1.42,-3.82 -1.42,-6.23 0,-2.5 0.48,-4.71 1.43,-6.58 0.96,-1.88 2.3,-3.34 4.04,-4.39 1.75,-1.06 3.77,-1.59 6.07,-1.59 2.48,0 4.63,0.51 6.44,1.53 1.81,1.02 3.22,2.44 4.22,4.26 1,1.83 1.51,3.95 1.51,6.38 0,2.48 -0.51,4.63 -1.53,6.43 -1.02,1.79 -2.45,3.17 -4.28,4.15 -1.83,0.98 -4,1.47 -6.48,1.47zm0.55 -7.46c1.19,0 2.14,-0.46 2.86,-1.39 0.71,-0.92 1.07,-2.15 1.07,-3.67 0,-1.54 -0.36,-2.77 -1.07,-3.7 -0.72,-0.92 -1.67,-1.38 -2.86,-1.38 -1.22,0 -2.18,0.46 -2.89,1.37 -0.71,0.91 -1.07,2.15 -1.07,3.71 0,1.52 0.36,2.75 1.07,3.67 0.71,0.93 1.67,1.39 2.89,1.39zm37.11 -10.81c0.25,-1.08 0.74,-2.06 1.42,-2.94 0.69,-0.86 1.53,-1.56 2.52,-2.08 0.99,-0.51 2.07,-0.77 3.22,-0.77 1.43,0 2.7,0.33 3.8,0.99 1.09,0.66 1.96,1.75 2.6,3.26 0.62,1.5 0.94,3.51 0.94,6.02 0,1.24 -0.06,2.49 -0.16,3.76 -0.1,1.27 -0.23,2.44 -0.39,3.53 -0.17,1.09 -0.34,2 -0.52,2.73 -0.32,1.25 -0.87,2.17 -1.65,2.77 -0.77,0.62 -1.73,0.92 -2.86,0.92 -1.07,0 -1.9,-0.32 -2.51,-0.97 -0.61,-0.64 -0.91,-1.56 -0.91,-2.75 0,-0.49 0.07,-1.12 0.2,-1.91 0.13,-0.79 0.27,-1.64 0.44,-2.58 0.16,-0.92 0.3,-1.83 0.44,-2.73 0.12,-0.9 0.19,-1.67 0.19,-2.33 0,-0.98 -0.18,-1.75 -0.55,-2.29 -0.37,-0.53 -0.9,-0.8 -1.58,-0.8 -0.82,0 -1.5,0.5 -2,1.5 -0.52,1 -0.85,2.46 -0.98,4.36 -0.08,1.51 -0.18,2.84 -0.28,4.02 -0.1,1.18 -0.31,2.16 -0.6,2.96 -0.28,0.88 -0.72,1.56 -1.3,2.01 -0.59,0.45 -1.36,0.67 -2.34,0.67 -1.05,0 -1.91,-0.31 -2.55,-0.95 -0.65,-0.63 -1,-1.62 -1.05,-2.97 -0.04,-0.84 -0.04,-1.84 -0.03,-2.97 0.01,-1.14 0.04,-2.25 0.05,-3.36 0.01,-1.12 -0.01,-2.04 -0.07,-2.78 -0.05,-1.16 -0.26,-2.01 -0.63,-2.56 -0.37,-0.54 -0.92,-0.81 -1.63,-0.81 -0.76,0 -1.37,0.39 -1.82,1.17 -0.45,0.77 -0.74,1.86 -0.87,3.27 -0.06,0.66 -0.07,1.46 -0.06,2.41 0.01,0.96 0.03,1.9 0.04,2.83 0.02,0.95 0,1.75 -0.02,2.41 -0.05,1.82 -0.41,3.12 -1.09,3.9 -0.67,0.77 -1.6,1.17 -2.79,1.17 -1.35,0 -2.35,-0.39 -2.99,-1.15 -0.65,-0.76 -1.06,-2 -1.22,-3.72 -0.1,-1.09 -0.18,-2.17 -0.23,-3.26 -0.06,-1.08 -0.08,-2.15 -0.08,-3.24 0,-1.09 0.04,-2.25 0.12,-3.5 0.08,-1.23 0.17,-2.43 0.27,-3.56 0.22,-1.64 0.61,-3.01 1.19,-4.12 0.59,-1.12 1.54,-1.67 2.86,-1.67 1.19,0 2.04,0.37 2.56,1.13 0.5,0.75 0.76,1.91 0.76,3.47 0,0.53 -0.03,1.02 -0.11,1.47l-0.12 -0.8c0.52,-1.72 1.4,-3.05 2.61,-4.02 1.22,-0.97 2.57,-1.45 4.05,-1.45 1.92,0 3.42,0.6 4.49,1.8 1.07,1.2 1.67,2.86 1.77,4.99l-0.55 -0.48zm26.38 38.88c1.33,0 2.4,0.4 3.21,1.17 0.79,0.78 1.2,1.92 1.2,3.43 0,1.35 -0.38,2.5 -1.15,3.46 -0.77,0.96 -2,1.45 -3.7,1.45 -1.4,0 -2.42,-0.4 -3.06,-1.19 -0.64,-0.79 -0.97,-1.9 -0.97,-3.33 0,-0.84 0.14,-1.65 0.39,-2.41 0.26,-0.77 0.72,-1.39 1.39,-1.87 0.66,-0.47 1.56,-0.71 2.69,-0.71zm28.42 8.24c-0.84,0 -1.58,-0.17 -2.21,-0.52 -0.64,-0.34 -1.14,-0.93 -1.49,-1.77 -0.36,-0.85 -0.54,-2.04 -0.54,-3.58 0,-1.45 0.06,-3 0.16,-4.64 0.1,-1.63 0.25,-3.29 0.42,-4.96 0.17,-1.68 0.36,-3.29 0.57,-4.86l-0.16 0c-0.79,3.07 -1.66,5.28 -2.59,6.66 -0.95,1.38 -2,2.06 -3.16,2.06 -0.71,0 -1.36,-0.25 -1.93,-0.75 -0.59,-0.51 -1.14,-1.42 -1.66,-2.74 -0.53,-1.32 -1.12,-3.19 -1.76,-5.63l-0.15 0c0.13,1.17 0.25,2.41 0.36,3.75 0.1,1.34 0.2,2.67 0.29,4 0.09,1.34 0.15,2.61 0.2,3.82 0.03,1.23 0.06,2.3 0.06,3.26 0,1.11 -0.13,2.11 -0.38,3.02 -0.25,0.91 -0.7,1.64 -1.34,2.18 -0.65,0.55 -1.55,0.82 -2.69,0.82 -1.4,0 -2.45,-0.47 -3.14,-1.41 -0.71,-0.94 -1.06,-2.49 -1.06,-4.66 0,-1.02 0.03,-2.21 0.1,-3.55 0.07,-1.33 0.16,-2.69 0.28,-4.1 0.13,-1.4 0.27,-2.75 0.44,-4.06 0.17,-1.31 0.36,-2.49 0.57,-3.54 0.45,-2.25 1.07,-3.88 1.87,-4.9 0.8,-1.01 1.81,-1.52 3.04,-1.52 0.93,0 1.82,0.25 2.69,0.73 0.85,0.49 1.66,1.35 2.41,2.58 0.76,1.22 1.41,2.97 1.96,5.25l0.15 0c0.57,-2.38 1.2,-4.25 1.88,-5.61 0.69,-1.36 1.44,-2.32 2.26,-2.88 0.82,-0.55 1.66,-0.83 2.53,-0.83 1.32,0 2.38,0.54 3.18,1.61 0.78,1.06 1.41,2.51 1.89,4.34 0.38,1.41 0.69,2.97 0.96,4.71 0.26,1.74 0.46,3.53 0.6,5.35 0.12,1.83 0.19,3.58 0.19,5.28 0,2.59 -0.44,4.41 -1.31,5.48 -0.87,1.07 -2.04,1.61 -3.49,1.61zm21.05 -27.11c1.82,0 3.24,0.17 4.28,0.52 1.02,0.34 1.76,0.84 2.2,1.5 0.44,0.66 0.65,1.46 0.65,2.42 0,1.51 -0.57,2.64 -1.71,3.37 -1.13,0.74 -2.9,1.11 -5.27,1.11 -0.97,0 -2.08,-0.02 -3.29,-0.06 -1.21,-0.03 -2.49,-0.11 -3.84,-0.22l0.31 -0.35c0.24,0.76 0.35,1.58 0.33,2.47 -0.03,0.89 -0.18,1.74 -0.45,2.56l-0.24 -0.28c0.53,-0.08 1.16,-0.14 1.89,-0.2 0.73,-0.06 1.48,-0.09 2.28,-0.12 0.79,-0.03 1.52,-0.04 2.18,-0.04 1.63,0 2.79,0.28 3.45,0.86 0.66,0.57 0.99,1.25 0.99,2.08 0,0.93 -0.36,1.7 -1.07,2.32 -0.72,0.62 -1.93,0.93 -3.65,0.93 -0.95,0 -1.97,-0.1 -3.03,-0.3 -1.07,-0.19 -2.15,-0.58 -3.23,-1.17l0.32 -0.08c0.23,0.51 0.4,1.09 0.49,1.77 0.09,0.67 0.1,1.33 0.02,2 -0.07,0.66 -0.25,1.23 -0.51,1.74l-0.13 -0.35c0.8,-0.24 1.7,-0.44 2.72,-0.6 1.03,-0.15 2.06,-0.28 3.11,-0.38 1.06,-0.09 2.05,-0.13 2.97,-0.13 1.78,0 3.1,0.24 3.98,0.75 0.86,0.51 1.3,1.34 1.3,2.49 0,0.77 -0.18,1.4 -0.55,1.9 -0.37,0.51 -1.01,0.97 -1.91,1.4 -0.66,0.31 -1.49,0.58 -2.49,0.8 -1,0.23 -2.08,0.4 -3.22,0.52 -1.13,0.12 -2.24,0.18 -3.32,0.18 -1.99,0 -3.63,-0.25 -4.93,-0.75 -1.32,-0.51 -2.26,-1.23 -2.85,-2.18 -0.52,-0.96 -0.91,-2.2 -1.17,-3.75 -0.25,-1.54 -0.38,-3.67 -0.38,-6.36 0,-3.78 0.22,-6.73 0.64,-8.88 0.42,-2.14 0.97,-3.67 1.63,-4.59 0.63,-0.85 1.55,-1.47 2.78,-1.89 1.21,-0.41 2.58,-0.67 4.12,-0.81 1.53,-0.13 3.06,-0.2 4.6,-0.2zm-177.84 3.49c0.98,0 1.79,0.44 2.43,1.31 0.63,0.87 1.08,2.24 1.33,4.12l-0.83 0.52c0.49,-1.86 1.37,-3.27 2.67,-4.25 1.29,-0.98 2.82,-1.46 4.59,-1.46 1.66,0 3.15,0.43 4.46,1.27 1.3,0.84 2.33,2.12 3.07,3.82 0.74,1.71 1.11,3.84 1.11,6.4 0,4.15 -0.76,7.2 -2.29,9.17 -1.54,1.97 -3.62,2.95 -6.24,2.95 -1.76,0 -3.17,-0.39 -4.19,-1.19 -1.03,-0.78 -1.75,-1.75 -2.14,-2.88l0.47 -0.24c0.21,1.51 0.39,2.99 0.54,4.46 0.14,1.47 0.21,2.75 0.21,3.86 0,1.32 -0.31,2.43 -0.93,3.33 -0.62,0.9 -1.61,1.35 -2.94,1.35 -1.25,0 -2.2,-0.42 -2.86,-1.25 -0.66,-0.83 -1.13,-1.96 -1.39,-3.39 -0.16,-1.11 -0.32,-2.52 -0.47,-4.24 -0.16,-1.72 -0.28,-3.57 -0.37,-5.57 -0.1,-1.99 -0.15,-3.95 -0.15,-5.89 0,-1.92 0.08,-3.73 0.22,-5.42 0.15,-1.7 0.32,-3.07 0.53,-4.13 0.24,-0.89 0.63,-1.56 1.17,-2 0.54,-0.43 1.2,-0.65 2,-0.65zm7.49 6.38c-1.11,0 -1.98,0.54 -2.65,1.62 -0.66,1.09 -1,2.49 -1,4.2 0,1.78 0.34,3.1 1,3.97 0.67,0.88 1.52,1.31 2.58,1.31 1.26,0 2.16,-0.49 2.71,-1.47 0.54,-0.98 0.81,-2.26 0.81,-3.84 0,-1.99 -0.35,-3.45 -1.03,-4.38 -0.69,-0.93 -1.49,-1.41 -2.42,-1.41zm31.94 18.59c-1.34,0 -2.24,-0.35 -2.68,-1.06 -0.45,-0.7 -0.67,-1.81 -0.67,-3.34l0.58 0.19c-1.43,2.89 -4.17,4.33 -8.24,4.33 -1.85,0 -3.38,-0.34 -4.59,-1 -1.22,-0.66 -2.12,-1.53 -2.72,-2.6 -0.6,-1.06 -0.9,-2.24 -0.9,-3.53 0,-2.22 0.81,-3.98 2.43,-5.27 1.61,-1.3 3.75,-1.95 6.41,-1.95 1.67,0 3.13,0.25 4.38,0.76 1.25,0.5 2.31,1.2 3.15,2.1l-1.1 -0.08c-0.06,-2.23 -0.48,-3.81 -1.3,-4.74 -0.82,-0.94 -2.01,-1.41 -3.58,-1.41 -0.72,0 -1.46,0.12 -2.22,0.34 -0.76,0.22 -1.52,0.45 -2.27,0.69 -0.75,0.23 -1.52,0.36 -2.29,0.36 -0.96,0 -1.69,-0.27 -2.21,-0.8 -0.53,-0.53 -0.8,-1.22 -0.8,-2.06 0,-1.16 0.5,-2.2 1.5,-3.13 1,-0.92 2.34,-1.65 3.99,-2.19 1.65,-0.54 3.44,-0.81 5.37,-0.81 2.46,0 4.6,0.48 6.4,1.46 1.81,0.98 3.11,2.47 3.9,4.48 0.61,1.51 1.04,3.2 1.3,5.09 0.24,1.89 0.37,3.9 0.37,6.04 0,2.15 -0.14,3.8 -0.42,4.98 -0.28,1.18 -0.73,1.99 -1.35,2.45 -0.62,0.46 -1.44,0.7 -2.44,0.7zm-7.99 -5.43c0.6,0 1.22,-0.1 1.86,-0.3 0.63,-0.19 1.17,-0.49 1.61,-0.86 0.44,-0.37 0.65,-0.83 0.65,-1.38 0,-0.5 -0.17,-0.92 -0.52,-1.25 -0.35,-0.32 -0.81,-0.57 -1.38,-0.72 -0.58,-0.14 -1.2,-0.21 -1.87,-0.21 -1.16,0 -2.07,0.23 -2.74,0.68 -0.66,0.45 -0.99,1.03 -0.99,1.74 0,0.68 0.31,1.24 0.92,1.66 0.6,0.43 1.42,0.64 2.46,0.64zm19.89 -19.62c1.19,0 2.02,0.34 2.48,1.03 0.47,0.68 0.69,1.7 0.69,3.05 0,0.32 -0.02,0.65 -0.06,1.01 -0.03,0.36 -0.1,0.69 -0.18,0.97l-0.07 -0.79c0.64,-1.72 1.6,-3.05 2.89,-4.02 1.3,-0.96 2.67,-1.45 4.12,-1.45 1.77,0 3.24,0.49 4.4,1.46 1.16,0.98 2.03,2.36 2.62,4.13 0.57,1.77 0.86,3.86 0.86,6.26 0,1.3 -0.05,2.57 -0.15,3.8 -0.11,1.25 -0.25,2.38 -0.43,3.42 -0.19,1.03 -0.43,1.87 -0.72,2.54 -0.39,0.95 -0.96,1.66 -1.66,2.13 -0.71,0.48 -1.58,0.72 -2.58,0.72 -1.06,0 -1.88,-0.36 -2.46,-1.09 -0.58,-0.73 -0.87,-1.74 -0.87,-3.03 0,-0.82 0.04,-1.8 0.14,-2.92 0.09,-1.12 0.18,-2.25 0.26,-3.39 0.08,-1.13 0.11,-2.1 0.11,-2.89 0,-2.53 -0.79,-3.8 -2.38,-3.8 -0.86,0 -1.59,0.4 -2.19,1.2 -0.59,0.81 -0.99,1.94 -1.17,3.39 -0.07,0.67 -0.13,1.48 -0.15,2.45 -0.04,0.98 -0.06,1.96 -0.08,2.92 -0.04,0.97 -0.07,1.78 -0.13,2.44 -0.15,1.82 -0.58,3.12 -1.28,3.9 -0.7,0.78 -1.66,1.17 -2.88,1.17 -1.45,0 -2.55,-0.46 -3.28,-1.37 -0.75,-0.91 -1.12,-2.44 -1.12,-4.61 0,-1.11 0.03,-2.35 0.08,-3.73 0.06,-1.37 0.12,-2.75 0.23,-4.14 0.09,-1.39 0.2,-2.64 0.32,-3.78 0.27,-2.17 0.77,-3.87 1.5,-5.12 0.73,-1.24 1.77,-1.86 3.14,-1.86zm25.84 -6.74c1.32,0 2.24,0.4 2.75,1.17 0.52,0.78 0.78,1.93 0.78,3.47 0,1.12 -0.07,2.37 -0.21,3.8 -0.15,1.43 -0.36,2.73 -0.62,3.89l-0.24 0c0.82,-1.37 1.88,-2.48 3.17,-3.33 1.29,-0.84 2.67,-1.27 4.12,-1.27 1.41,0 2.66,0.34 3.75,1.03 1.09,0.68 1.98,1.75 2.67,3.17 0.61,1.22 1.05,2.66 1.35,4.32 0.29,1.67 0.44,3.26 0.44,4.76 0,2.46 -0.22,4.42 -0.66,5.87 -0.43,1.45 -1.03,2.5 -1.79,3.14 -0.78,0.65 -1.68,0.98 -2.71,0.98 -2.48,0 -3.72,-1.57 -3.72,-4.72 0,-1.24 0.08,-2.5 0.22,-3.78 0.15,-1.29 0.22,-2.45 0.22,-3.51 0,-1.33 -0.22,-2.31 -0.65,-2.95 -0.44,-0.65 -1.06,-0.97 -1.86,-0.97 -0.95,0 -1.72,0.45 -2.31,1.34 -0.6,0.9 -0.89,2.14 -0.89,3.73 0,0.97 0.07,1.98 0.21,3.01 0.15,1.03 0.22,2.16 0.22,3.41 0,1.86 -0.38,3.18 -1.15,3.98 -0.76,0.81 -1.74,1.21 -2.93,1.21 -0.8,0 -1.51,-0.12 -2.14,-0.38 -0.64,-0.25 -1.16,-0.76 -1.6,-1.54 -0.44,-0.77 -0.78,-1.92 -1.01,-3.44 -0.17,-0.97 -0.32,-2.11 -0.44,-3.4 -0.14,-1.29 -0.25,-2.65 -0.34,-4.07 -0.1,-1.4 -0.18,-2.78 -0.23,-4.13 -0.07,-1.35 -0.11,-2.55 -0.11,-3.61 0,-3.88 0.5,-6.72 1.49,-8.5 0.99,-1.79 2.39,-2.68 4.22,-2.68zm38.92 31.79c-1.35,0 -2.25,-0.35 -2.69,-1.06 -0.44,-0.7 -0.67,-1.81 -0.67,-3.34l0.58 0.19c-1.42,2.89 -4.16,4.33 -8.23,4.33 -1.86,0 -3.38,-0.34 -4.6,-1 -1.22,-0.66 -2.12,-1.53 -2.71,-2.6 -0.6,-1.06 -0.9,-2.24 -0.9,-3.53 0,-2.22 0.81,-3.98 2.42,-5.27 1.61,-1.3 3.76,-1.95 6.42,-1.95 1.66,0 3.12,0.25 4.38,0.76 1.25,0.5 2.3,1.2 3.15,2.1l-1.11 -0.08c-0.05,-2.23 -0.48,-3.81 -1.3,-4.74 -0.82,-0.94 -2.01,-1.41 -3.57,-1.41 -0.72,0 -1.46,0.12 -2.23,0.34 -0.76,0.22 -1.51,0.45 -2.27,0.69 -0.75,0.23 -1.51,0.36 -2.29,0.36 -0.95,0 -1.68,-0.27 -2.21,-0.8 -0.53,-0.53 -0.8,-1.22 -0.8,-2.06 0,-1.16 0.51,-2.2 1.51,-3.13 1,-0.92 2.33,-1.65 3.99,-2.19 1.65,-0.54 3.43,-0.81 5.37,-0.81 2.46,0 4.59,0.48 6.4,1.46 1.81,0.98 3.1,2.47 3.9,4.48 0.61,1.51 1.03,3.2 1.29,5.09 0.25,1.89 0.37,3.9 0.37,6.04 0,2.15 -0.13,3.8 -0.41,4.98 -0.29,1.18 -0.74,1.99 -1.35,2.45 -0.62,0.46 -1.44,0.7 -2.44,0.7zm-8 -5.43c0.61,0 1.22,-0.1 1.87,-0.3 0.62,-0.19 1.16,-0.49 1.6,-0.86 0.44,-0.37 0.65,-0.83 0.65,-1.38 0,-0.5 -0.17,-0.92 -0.51,-1.25 -0.35,-0.32 -0.81,-0.57 -1.39,-0.72 -0.58,-0.14 -1.2,-0.21 -1.86,-0.21 -1.17,0 -2.08,0.23 -2.74,0.68 -0.66,0.45 -0.99,1.03 -0.99,1.74 0,0.68 0.3,1.24 0.91,1.66 0.61,0.43 1.43,0.64 2.46,0.64zm68.47 -83.08c-1.73,2.56 -3.77,4.83 -6.06,6.85 -2.26,1.99 -4.8,3.75 -7.54,5.3 -0.39,0.22 -0.9,0.34 -1.36,0.35 -0.48,0 -1,-0.1 -1.4,-0.32l-0.13 -0.08c-2.79,-1.59 -5.36,-3.37 -7.65,-5.41 -2.35,-2.09 -4.44,-4.46 -6.17,-7.16 -0.79,-1.23 -1.46,-2.53 -1.91,-3.9 -0.45,-1.4 -0.69,-2.87 -0.61,-4.43 0.02,-0.45 0.08,-0.89 0.15,-1.31 0.46,-2.43 1.8,-4.5 3.68,-5.92 1.85,-1.41 4.22,-2.19 6.74,-2.07 0.48,0.03 0.97,0.09 1.46,0.18 1.39,0.26 2.6,0.78 3.66,1.51 0.8,0.55 1.5,1.2 2.13,1.93 1.31,-1.53 2.95,-2.61 4.72,-3.18 1.88,-0.6 3.92,-0.64 5.91,-0.06 2.06,0.61 3.79,1.79 5.04,3.32 1.27,1.55 2.04,3.47 2.14,5.53l0.01 0.04c0.07,1.65 -0.19,3.22 -0.7,4.7 -0.51,1.47 -1.24,2.83 -2.11,4.13zm3.71 -19.88c-1.95,-2.29 -4.26,-4.09 -6.79,-5.43 -4.5,-2.38 -9.69,-3.26 -14.72,-2.74 -5.02,0.52 -9.86,2.45 -13.68,5.7 -2.06,1.76 -3.84,3.91 -5.17,6.45 -1.62,3.06 -2.4,6.13 -2.49,9.22 -0.09,3.11 0.53,6.28 1.7,9.47 2.35,6.37 5.62,12.24 9.38,17.84 3.79,5.65 8.1,11.06 12.47,16.44l0.13 0.13c0.11,0.09 0.23,0.13 0.33,0.13 0.14,0 0.3,-0.07 0.46,-0.2l0.22 -0.22c3.57,-4.37 7.05,-8.78 10.23,-13.28 3.19,-4.53 6.11,-9.2 8.57,-14.1 1.27,-2.51 2.4,-5.06 3.22,-7.63 0.81,-2.53 1.33,-5.12 1.4,-7.75 -0.04,-2.66 -0.48,-5.15 -1.35,-7.47 -0.87,-2.33 -2.17,-4.52 -3.91,-6.56zm-5.25 -8.35c2.88,1.52 5.53,3.59 7.76,6.21 2,2.35 3.49,4.86 4.49,7.55 1,2.68 1.51,5.54 1.55,8.59l0 0.09c-0.07,2.98 -0.65,5.87 -1.55,8.68 -0.88,2.77 -2.08,5.47 -3.41,8.12 -2.55,5.09 -5.56,9.89 -8.82,14.52 -3.27,4.65 -6.79,9.09 -10.37,13.47 -0.22,0.26 -0.45,0.49 -0.7,0.69 -0.72,0.6 -1.58,0.91 -2.44,0.94 -0.9,0.03 -1.78,-0.26 -2.52,-0.86 -0.19,-0.16 -0.38,-0.35 -0.55,-0.56l-0.06 -0.06c-4.41,-5.43 -8.77,-10.91 -12.64,-16.68 -3.9,-5.82 -7.3,-11.92 -9.74,-18.54 -1.31,-3.56 -2,-7.13 -1.9,-10.7 0.1,-3.59 1.01,-7.16 2.86,-10.67 1.54,-2.91 3.58,-5.39 5.97,-7.42 4.34,-3.7 9.81,-5.89 15.47,-6.48 5.65,-0.59 11.51,0.42 16.6,3.11z"/>
 </g>
</svg>
