<?xml version="1.0" encoding="UTF-8"?>
<!DOCTYPE svg PUBLIC "-//W3C//DTD SVG 1.1//EN" "http://www.w3.org/Graphics/SVG/1.1/DTD/svg11.dtd">
<!-- Creator: CorelDRAW -->
<svg xmlns="http://www.w3.org/2000/svg" xml:space="preserve" width="171px" height="171px" version="1.1" style="shape-rendering:geometricPrecision; text-rendering:geometricPrecision; image-rendering:optimizeQuality; fill-rule:evenodd; clip-rule:evenodd"
viewBox="0 0 69.23 69.23"
 xmlns:xlink="http://www.w3.org/1999/xlink"
 xmlns:xodm="http://www.corel.com/coreldraw/odm/2003">
 <defs>
  <style type="text/css">
   <![CDATA[
    .fil1 {fill:#FEFEFE}
    .fil0 {fill:#0F2B72}
    .fil5 {fill:#E85387}
    .fil4 {fill:#0F2B72;fill-rule:nonzero}
    .fil3 {fill:white;fill-rule:nonzero}
    .fil2 {fill:url(#id0)}
    .fil6 {fill:url(#id1)}
   ]]>
  </style>
  <linearGradient id="id0" gradientUnits="userSpaceOnUse" x1="19.27" y1="39.03" x2="45.33" y2="39.03">
   <stop offset="0" style="stop-opacity:1; stop-color:#9D5164"/>
   <stop offset="0.14902" style="stop-opacity:1; stop-color:#B77477"/>
   <stop offset="1" style="stop-opacity:1; stop-color:#D1988B"/>
  </linearGradient>
  <linearGradient id="id1" gradientUnits="userSpaceOnUse" x1="115.26" y1="97.99" x2="-39.05" y2="72.15">
   <stop offset="0" style="stop-opacity:1; stop-color:#07006A"/>
   <stop offset="0.117647" style="stop-opacity:1; stop-color:#04659F"/>
   <stop offset="0.560784" style="stop-opacity:1; stop-color:#00CBD4"/>
   <stop offset="0.803922" style="stop-opacity:1; stop-color:#7FE5E9"/>
   <stop offset="0.960784" style="stop-opacity:1; stop-color:white"/>
   <stop offset="1" style="stop-opacity:1; stop-color:white"/>
  </linearGradient>
 </defs>
 <g id="Camada_x0020_1">
  <metadata id="CorelCorpID_0Corel-Layer"/>
  <g id="_2659309124320">
   <circle class="fil0" cx="34.62" cy="34.62" r="34.62"/>
   <circle class="fil1" cx="34.62" cy="34.62" r="32.38"/>
   <path class="fil2" d="M30.76 22.63l-0.82 1.82 -2.72 1.39 -2.33 1.27 -0.7 2.47 -0.41 2.26 0 1.43 0 1.66 -1.85 -0.21 -2.3 0.21c0,0 0.16,1.35 0,1.59 -0.16,0.25 -0.36,1.72 -0.36,1.91 -0.01,0.19 0.61,2.44 0.61,2.44l1.32 1.03 1.35 0.82 1.02 0.82 0.62 0.82 1.03 2.06 0 0.88 0 1.17c-0.14,0.89 -0.28,1.78 -0.41,2.67l-0.21 2.26 -0.21 1.02c0,0 1.03,1.23 1.24,1.23 0.2,0 4.51,1.24 4.51,1.24l4.52 0.82c0,0 2.67,-0.82 3.08,-1.03 0.41,-0.2 2.57,-1.8 2.57,-1.8l0.92 -1.69 -0.92 -1.04 -0.76 -2.57 -0.37 -1.65 -1.44 0.13 2.57 -0.97 2.77 -2.32 1.84 -4.51 0.41 -3.49 -0.16 -3.69 -1.48 -4.32 -0.82 -2.46 -0.94 -2.11 -2.75 -2.77 -4.89 -1.07 -3.53 2.28z"/>
   <path class="fil3" d="M36.1 41.9c-0.65,0.01 -1.13,-0.24 -1.44,-0.41 -0.3,-0.16 -0.71,-0.38 -1.03,-0.82 -0.55,-0.76 -0.65,-1.95 -0.2,-2.26 0.14,-0.1 0.25,-0.04 0.82,0 0.24,0.02 0.71,0.01 1.64,0 0.79,-0.01 1.06,-0.03 1.64,0 0.81,0.05 0.94,0.14 1.03,0.21 0.42,0.35 0.42,1.12 0.2,1.64 -0.19,0.48 -0.56,0.72 -1.02,1.03 -0.41,0.26 -0.92,0.6 -1.64,0.61z"/>
   <path class="fil4" d="M38.56 40.26c-0.43,0.99 -1.65,1.49 -2.67,1.44 -0.26,-0.02 -1.36,-0.11 -2.05,-1.03 -0.43,-0.56 -0.81,-1.57 -0.41,-2.05 0.34,-0.42 0.93,-0.01 2.87,0 1.37,0 1.93,-0.2 2.26,0.2 0.4,0.48 0.04,1.34 0,1.44zm0.82 -2.05c-0.15,-0.15 -0.37,-0.17 -0.82,-0.21 -0.53,-0.04 -1.03,-0.01 -1.23,0 -0.6,0.04 -0.77,0.1 -0.82,0 -0.08,-0.12 0.13,-0.33 0.61,-1.03 0.15,-0.21 0.36,-0.52 0.41,-0.61 0.23,-0.4 0.08,-1.26 -1.63,-3.28 0.31,0.72 0.49,1.23 0.73,1.7 0.27,0.54 0.22,0.8 0.2,1.03 -0.04,0.35 -0.2,0.62 -0.53,1.16 -0.37,0.61 -0.55,0.91 -0.82,1.03 -0.22,0.1 -0.56,0.07 -1.23,0 -0.75,-0.07 -0.97,-0.16 -1.23,0 -0.25,0.15 -0.35,0.42 -0.41,0.62 -0.28,0.82 0.09,1.62 0.17,1.78 0.52,1.12 1.83,1.85 3.11,1.91 1.15,0.05 2.53,-0.43 3.19,-1.52 0.4,-0.63 0.44,-1.3 0.47,-1.78 0.02,-0.45 -0.03,-0.66 -0.17,-0.8z"/>
   <path class="fil4" d="M41.44 31.6c0.02,0.74 -0.4,1.21 -1.07,1.22 -0.72,0.02 -1.16,-0.48 -1.19,-1.24 -0.03,-0.7 0.29,-1.19 0.98,-1.32 0.55,-0.09 1.26,0.71 1.28,1.34z"/>
   <path class="fil4" d="M31.34 28.92c-1.46,0.47 -3.05,0.63 -4.11,1.99 -0.1,-1.15 0.68,-1.55 1.38,-1.9 0.82,-0.41 1.71,-0.9 2.73,-0.09z"/>
   <path class="fil4" d="M37.28 28.19c1.13,-1.36 3.48,-1.44 4.65,-0.22 -1.53,0.07 -3.03,0.14 -4.65,0.22z"/>
   <path class="fil5" d="M35.38 10.92c-3.29,0.97 -6.55,1.75 -10.03,1.66 -4.2,-0.11 -6.73,1.92 -8.14,5.89 -0.68,1.94 -1.82,3.02 -3.87,3.33 -2.18,0.33 -4.02,1.46 -4.46,3.71 -0.44,2.25 -0.12,4.13 0.09,5.21 0.32,1.61 0.67,3.9 0.8,6.92 0.05,1.02 0.03,2.04 0.18,3.05 0.41,2.67 2.29,4.12 4.48,5.38 1.15,0.66 2.23,1.54 3.14,2.51 0.84,0.89 1.4,2.05 2.1,3.08 0.61,0.88 2.53,1.29 3.45,0.72 0.2,-0.13 0.41,-0.39 0.44,-0.61 0.07,-0.62 0.01,-1.25 0.06,-1.86 0.1,-1.32 0.23,-2.63 0.37,-3.94 0.11,-1.06 -0.38,-1.78 -1.31,-2.17 -2.02,-0.83 -3.18,-2.39 -3.96,-4.37 -1.18,-3 0.43,-5.13 2.56,-5.53 1.47,-0.29 1.51,-0.27 1.46,-1.73 -0.09,-3.1 1.39,-5.24 3.94,-6.85 1.61,-1.01 3.21,-1.96 4.39,-3.63 1.16,-1.64 3.08,-2.61 5.2,-2.1 3.45,0.82 5.86,3.17 7.29,6.27 1.1,2.38 1.68,5.03 2.33,7.6 0.68,2.69 0.31,5.45 -0.52,8 -0.88,2.71 -2.39,5.16 -5.06,6.62 -0.54,0.3 -0.71,0.77 -0.31,1.38 0.37,0.56 0.74,1.15 0.96,1.77 0.34,0.96 1.11,1.18 1.95,1.33 1.68,0.31 3.41,0.47 5.05,0.95 2.35,0.7 4.59,1.19 6.68,-0.61 0.31,-0.26 0.67,-0.46 0.98,-0.73 2.14,-1.79 3.31,-3.93 2.7,-6.85 -0.17,-0.83 -0.16,-1.83 0.13,-2.61 0.56,-1.54 1.42,-2.97 2.09,-4.47 0.34,-0.78 0.65,-1.61 0.78,-2.45 0.3,-1.97 -0.9,-3.43 -2,-4.8 -1.87,-2.35 -2.93,-4.99 -3.3,-7.92 -0.43,-3.36 -2.6,-5.73 -5.8,-6 -2.74,-0.23 -4.86,-1.3 -6.36,-3.69 -0.84,-1.35 -1.99,-2.67 -3.67,-2.82 -0.49,-0.05 -0.99,-0.07 -1.49,-0.07 -1.13,0 -2.27,0.12 -3.32,0.43z"/>
   <path class="fil4" d="M31.89 33.7c0.02,0.74 -0.39,1.22 -1.07,1.23 -0.72,0.01 -1.16,-0.48 -1.19,-1.24 -0.03,-0.7 0.29,-1.2 0.99,-1.32 0.54,-0.1 1.26,0.7 1.27,1.33z"/>
   <path class="fil6" d="M55.26 59.56l-4.8 -3.5c-0.02,0.01 -0.06,0.01 -0.1,-0.01 -0.02,-0.01 -0.03,-0.01 -0.05,-0.02 -3.06,-1.6 -5.63,-2.32 -6.85,-2.4 -0.41,-0.03 -1.17,-0.04 -1.62,-0.03 -0.71,0.02 -1.31,0.1 -1.75,0.19 -0.06,0.01 -0.12,0.04 -0.17,0.08 -0.96,0.74 -3.3,2.35 -6.7,2.61 -4.29,0.32 -7.39,-1.72 -8.33,-2.4 -0.06,-0.05 -0.12,-0.07 -0.19,-0.08 -1.22,-0.11 -2.72,-0.16 -4.41,0.01 -1.61,0.16 -3,0.48 -4.13,0.81 -0.02,0.01 -0.04,0.01 -0.06,0.02 -1.79,0.55 -3.45,1.24 -4.99,2.04 5.9,6.23 14.25,10.12 23.51,10.12 7.84,0 15.04,-2.79 20.64,-7.44z"/>
   <path class="fil4" d="M9.51 56.06c0.83,-0.42 1.93,-0.86 3.05,-1.25 1.05,-0.38 2.19,-0.74 3.12,-1.02l0.01 -0.01c0.06,-0.02 0.12,-0.04 0.17,-0.05 0.58,-0.17 1.24,-0.34 1.96,-0.49 0.72,-0.14 1.51,-0.27 2.36,-0.36 0.88,-0.08 1.72,-0.12 2.5,-0.11 0.78,0 1.49,0.04 2.12,0.1l0.06 0.01c0.12,0.02 0.23,0.05 0.34,0.09 0.13,0.04 0.25,0.11 0.36,0.19l0.06 0.04c0.45,0.33 1.34,0.91 2.59,1.4 1.3,0.5 2.98,0.89 4.93,0.74 1.53,-0.11 2.84,-0.54 3.87,-1.02 1.03,-0.48 1.78,-1.01 2.21,-1.35l0.12 -0.08c0.06,-0.04 0.12,-0.07 0.18,-0.1l0.01 0c0.11,-0.05 0.22,-0.09 0.34,-0.12l0.08 -0.01c0.24,-0.04 0.5,-0.08 0.78,-0.12 0.31,-0.03 0.67,-0.06 1.09,-0.07l0 0c0.25,-0.01 0.6,-0.01 0.93,0 0.33,0 0.62,0.01 0.79,0.02 0.76,0.06 1.95,0.32 3.41,0.83 1.1,0.39 2.37,0.92 3.75,1.63 0.17,0.04 0.33,0.11 0.46,0.22l5.9 3.96c0.52,0.35 0.65,1.05 0.31,1.57 -0.07,0.09 -0.14,0.17 -0.22,0.24 -2.88,2.39 -5.97,4.45 -9.59,5.9 -3.61,1.46 -7.74,2.31 -12.68,2.26 -4.95,-0.04 -9.76,-1.08 -14.16,-2.99 -4.37,-1.91 -8.32,-4.69 -11.59,-8.24 -0.42,-0.46 -0.39,-1.18 0.07,-1.6 0.09,-0.09 0.2,-0.16 0.31,-0.21zm3.81 0.89c-0.49,0.17 -0.97,0.35 -1.42,0.52 2.82,2.78 6.13,4.99 9.73,6.56 4.12,1.8 8.63,2.77 13.27,2.81 4.62,0.04 8.46,-0.74 11.82,-2.1 2.88,-1.16 5.42,-2.74 7.79,-4.59l-4.48 -3.01 -0.04 -0.01 0 -0.01c-0.06,-0.02 -0.13,-0.05 -0.19,-0.08l-0.02 -0.01c-1.31,-0.69 -2.52,-1.2 -3.57,-1.57 -1.26,-0.44 -2.24,-0.66 -2.83,-0.7 -0.2,-0.02 -0.43,-0.03 -0.65,-0.03 -0.31,0 -0.62,0 -0.85,0l-0.01 0c-0.3,0.01 -0.6,0.03 -0.88,0.07 -0.19,0.02 -0.36,0.04 -0.51,0.07 -0.54,0.41 -1.39,0.99 -2.52,1.51 -1.23,0.58 -2.8,1.08 -4.65,1.23 -2.34,0.18 -4.36,-0.29 -5.92,-0.9 -1.39,-0.54 -2.43,-1.2 -3,-1.6 -0.53,-0.05 -1.11,-0.08 -1.72,-0.08 -0.7,0 -1.46,0.03 -2.27,0.11 -0.76,0.08 -1.48,0.19 -2.13,0.32 -0.64,0.13 -1.24,0.29 -1.78,0.44l-0.06 0.02c-0.85,0.27 -1.97,0.62 -3.11,1.03z"/>
   <path class="fil4" d="M61.32 35.79c-0.13,0.84 -0.44,1.67 -0.78,2.45 -0.67,1.5 -1.53,2.93 -2.09,4.46 -0.29,0.79 -0.3,1.79 -0.13,2.62 0.61,2.92 -0.56,5.06 -2.7,6.86 -0.31,0.26 -0.67,0.46 -0.98,0.72 -2.09,1.8 -4.33,1.31 -6.68,0.61 -1.64,-0.48 -3.37,-0.64 -5.05,-0.95 -0.84,-0.15 -1.61,-0.37 -1.95,-1.33 -0.22,-0.63 -0.59,-1.21 -0.96,-1.77 -0.4,-0.61 -0.23,-1.08 0.31,-1.38 2.67,-1.46 4.18,-3.91 5.06,-6.62 0.83,-2.55 1.2,-5.31 0.52,-8 -0.65,-2.57 -1.23,-5.22 -2.33,-7.6 -1.43,-3.1 -3.84,-5.45 -7.29,-6.27 -2.12,-0.51 -4.04,0.46 -5.2,2.1 -1.18,1.67 -2.78,2.62 -4.39,3.63 -2.55,1.61 -4.03,3.75 -3.93,6.86 0.04,1.45 0,1.43 -1.47,1.72 -2.13,0.4 -3.74,2.53 -2.56,5.53 0.78,1.98 1.94,3.54 3.96,4.37 0.93,0.39 1.42,1.11 1.31,2.18 -0.14,1.3 -0.27,2.62 -0.37,3.93 -0.05,0.61 0.01,1.24 -0.06,1.86 -0.03,0.22 -0.24,0.48 -0.44,0.61 -0.92,0.57 -2.84,0.17 -3.45,-0.72 -0.71,-1.03 -1.26,-2.19 -2.1,-3.08 -0.91,-0.97 -1.99,-1.85 -3.14,-2.51 -2.19,-1.26 -4.07,-2.71 -4.48,-5.38 -0.15,-1.01 -0.13,-2.03 -0.19,-3.05 -0.12,-3.02 -0.47,-5.31 -0.79,-6.92 -0.21,-1.08 -0.53,-2.96 -0.09,-5.21 0.44,-2.25 2.28,-3.38 4.46,-3.71 2.05,-0.31 3.19,-1.39 3.87,-3.33 1.41,-3.97 3.94,-6 8.14,-5.89 3.48,0.09 6.74,-0.69 10.03,-1.66 1.52,-0.44 3.22,-0.51 4.81,-0.36 1.68,0.15 2.83,1.47 3.68,2.82 1.49,2.39 3.61,3.46 6.35,3.69 3.2,0.27 5.37,2.64 5.8,6 0.37,2.93 1.43,5.57 3.3,7.92 1.1,1.37 2.3,2.83 2,4.8zm1.18 -3.55c-0.79,-1.22 -1.68,-2.37 -2.53,-3.56 -1.34,-1.9 -1.71,-4.12 -2.12,-6.33 -0.53,-2.87 -1.7,-5.29 -4.66,-6.36 -1.13,-0.41 -2.3,-0.85 -3.48,-0.95 -1.87,-0.16 -3.16,-1.03 -4.11,-2.56 -0.28,-0.47 -0.63,-0.89 -0.98,-1.3 -1.62,-1.93 -3.76,-3.06 -6.22,-2.88 -2.01,0.14 -3.97,0.93 -5.95,1.44 -0.65,0.16 -1.28,0.47 -1.93,0.51 -1.94,0.13 -3.88,0.08 -5.81,0.25 -2.28,0.21 -4.41,0.88 -6.19,2.46 -1.65,1.46 -2.6,3.35 -3.34,5.36 -0.33,0.88 -0.74,1.3 -1.78,1.45 -2.14,0.32 -4.12,1.16 -5.4,3.06 -1.62,2.4 -1.78,5.04 -1.12,7.78 0.53,2.2 1.01,4.4 0.9,6.69 -0.05,1.17 -0.07,2.36 0.1,3.5 0.53,3.45 2.86,5.51 5.77,7 1.39,0.71 2.41,1.69 3.19,3.01 0.57,0.96 1.17,1.91 1.83,2.8 0.15,0.21 0.31,0.39 0.49,0.54 0.4,0.34 0.89,0.54 1.51,0.48 1.04,-0.11 2.09,-0.14 3.14,-0.22 0.24,-0.02 0.44,-0.05 0.61,-0.11 0.18,-0.06 0.32,-0.14 0.43,-0.25l0 0c0.24,-0.24 0.34,-0.62 0.38,-1.2 0.08,-1.48 0.3,-2.96 0.36,-4.44 0.07,-1.75 0.59,-3.61 -0.76,-5.13 -0.38,-0.43 -1,-0.92 -1.52,-0.93 -1.17,-0.01 -1.82,-0.65 -2.39,-1.47 -0.86,-1.2 -1.16,-2.56 -1.05,-4.03 0.09,-1.19 0.85,-1.79 2,-1.49 0.39,0.11 0.72,0.38 1.11,0.49 0.4,0.12 0.99,0.31 1.2,0.13 0.29,-0.24 0.4,-0.82 0.39,-1.25 -0.02,-0.88 -0.17,-1.75 -0.26,-2.62 -0.12,-3.48 0.99,-4.37 3.44,-5.59 1.64,-0.83 3.04,-1.96 4.08,-3.57 0.83,-1.3 2.02,-2.1 3.73,-2.02 2.27,0.09 3.73,1.43 5.11,2.95 1.35,1.48 2,3.34 2.61,5.2 1.13,3.45 1.39,7.02 0.98,10.59 -0.31,2.76 -1.56,5.16 -3.99,6.75 -1.53,1.01 -3.21,1.53 -5.06,1.44 -0.28,-0.01 -0.57,0.23 -0.85,0.36 0.22,0.21 0.42,0.5 0.69,0.62 0.73,0.32 1.49,0.62 2.26,0.82 1.43,0.38 2.33,1.07 2.32,2.73 -0.01,0.52 0.09,1.05 0.44,1.41 0.15,0.16 0.36,0.28 0.63,0.35 0.12,0.04 0.25,0.06 0.39,0.06 3.05,0.17 6,0.75 8.91,1.66 0.19,0.06 0.38,0.12 0.57,0.18 0.62,0.2 1.47,0.25 2.03,-0.02 1.6,-0.78 3.26,-1.57 4.63,-2.68 2.44,-1.98 3.61,-4.66 3.21,-7.83 -0.22,-1.71 -0.18,-3.29 0.78,-4.77 0.42,-0.65 0.85,-1.31 1.27,-1.96 1.41,-2.18 1.39,-4.38 0.01,-6.55z"/>
  </g>
 </g>
</svg>
