<?xml version="1.0" encoding="UTF-8"?>
<!DOCTYPE svg PUBLIC "-//W3C//DTD SVG 1.1//EN" "http://www.w3.org/Graphics/SVG/1.1/DTD/svg11.dtd">
<!-- Creator: CorelDRAW -->
<svg xmlns="http://www.w3.org/2000/svg" xml:space="preserve" width="345px" height="290px" version="1.1" style="shape-rendering:geometricPrecision; text-rendering:geometricPrecision; image-rendering:optimizeQuality; fill-rule:evenodd; clip-rule:evenodd"
viewBox="0 0 345 289.83"
 xmlns:xlink="http://www.w3.org/1999/xlink"
 xmlns:xodm="http://www.corel.com/coreldraw/odm/2003">
 <defs>
  <style type="text/css">
   <![CDATA[
    .fil1 {fill:#FEFEFE}
    .fil2 {fill:#FEFEFE}
    .fil0 {fill:#BC005E}
    .fil3 {fill:#BC005E;fill-rule:nonzero}
   ]]>
  </style>
 </defs>
 <g id="Camada_x0020_1">
  <metadata id="CorelCorpID_0Corel-Layer"/>
  <g id="_2659309080272">
   <g>
    <path class="fil0" d="M94.92 283.91c-1.61,-2.97 -0.76,-13 -0.49,-17.06 1,-15.3 10.22,-25.59 16.23,-37.6 7.92,-15.81 25.45,-48.49 0.81,-63.83 -13.41,-8.34 -8.49,7.48 -14.82,-39.13 -1.27,-9.35 -4.69,-38.49 -7.5,-46.32 -1.86,-5.17 -2.87,-9.29 -9.12,-9.14 -5.83,1.59 -7.23,8.96 -6.88,15.6l3.82 58.41c0.15,1.94 0.63,4.17 -0.33,5.73 -2.34,-0.65 -1.62,-2.28 -1.8,-5.02 -0.13,-2.02 -0.34,-4.3 -0.51,-6.42l-4.93 -62.84c-0.63,-8.42 -1.13,-17.27 -10.84,-16.52 -10.34,0.79 -9.38,11.92 -8.88,17.88l4.2 50.12c0.35,4.13 0.7,8.49 1.05,12.6 0.27,3.21 1.86,9.97 0.06,11.95 -1.88,-0.97 -1.65,-6.6 -1.98,-10.49 -1.08,-12.75 -3.8,-48.95 -5.63,-58.32 -1.2,-6.18 -2.36,-17.11 -11.11,-13.78 -9.31,3.55 -5.1,33.03 -4.17,43.15l3.09 35.11c0.43,4.71 1.77,10.23 -0.35,11.47 -1.43,-0.98 -1.75,-13.37 -1.94,-15.65 -0.43,-5.38 -0.91,-10.83 -1.54,-16.11 -0.77,-6.44 -1.44,-17.8 -6.32,-19.92 -12.61,-5.49 -11.62,25.37 -10.89,31.05 3.77,29.34 6.73,62.5 16.69,89.08 5.64,15.05 10.96,25.07 9.18,42.88 -0.41,4.11 -2.48,12.51 -1.58,16.06 8.8,4.76 44.48,2.54 56.25,1.87l0.23 -4.81z"/>
    <path class="fil1" d="M37.57 157.77l14.87 -4.86c-0.54,-14.19 -2.92,-30.11 -4.23,-44.55 -0.67,-7.45 -1.29,-14.87 -2.03,-22.32 -0.54,-5.43 -1.91,-17.55 -9.15,-15.12 -8.05,2.7 -4.3,33.8 -3.52,42.17 1.38,14.89 2.68,29.79 4.06,44.68zm41.6 -7.33c4.1,1.3 10.14,1.13 14.16,2.76 -0.61,0.64 0.05,1.11 -3.73,0.33 -9.97,-2.07 -21.75,-1.78 -31.64,-0.14 -15.08,2.49 -25.33,9.27 -29.1,10.25 1.48,-3.09 3.99,-0.38 3.45,-7.19 -0.72,-9.12 -2.18,-41.65 -6.59,-46.29 -2.36,-2.48 -5.56,-1.85 -7.04,0.4 -1.36,2.08 -1.7,5.63 -2.25,8.3 -2.7,13.3 -0.42,25.63 1.13,38.74 0.72,6.09 4.15,33.75 6.29,36.5 3.99,0.78 12.95,-2.05 16.49,-3.44 7.59,-2.97 8.76,-4.86 13.09,-7.05 -1.3,-14.62 -0.69,-4.22 22.2,-16.11 7.94,-4.12 13.93,-6.17 24.06,-6.53 -1.4,-14.38 -3.75,-28.75 -5.62,-43.05 -1.7,-12.98 -3.31,-30.54 -7.83,-41.59 -2.78,-6.78 -10.8,-5.45 -11.28,4.88 -0.33,6.93 2.95,64.27 4.21,69.23zm13.94 132.83c-0.54,-25.91 0.99,-27.74 11.76,-46.72 5.83,-10.29 15.69,-27.59 17.5,-41.37 2.43,-18.53 -9.32,-33.08 -26.09,-32.73 -7.16,0.15 -20.93,6.16 -26.79,10.02 -5.98,3.8 -3.91,2.74 -12.76,5.85 -6.6,2.31 1.57,6.89 4.84,7.26 19.39,2.19 26.64,-7.51 32.65,-8.31 -0.16,1.65 1.08,0.3 -1.48,1.78 -1.45,0.84 -1.35,0.45 -2.7,1.57 0.11,0.08 0.27,0.07 0.32,0.24 0.34,1.1 10.28,5.25 13.66,6.11 4.17,1.06 2.94,0.41 4.78,1.3l0.67 0.4c-4.09,1.66 -13,-2.4 -16.35,-4.38 -4.61,-2.72 -3.88,-5.16 -13.45,3.39 -3.32,2.97 -7.29,8.6 -9.1,13.05 -4.18,10.27 -2.18,14.75 -4,18.18 -0.46,-0.47 -1.21,1.06 -0.7,-5.06 0.15,-1.83 0.38,-3.72 0.75,-5.47 1.59,-7.62 6.04,-15.46 11.19,-21.03l1.65 -1.92c-8.95,1.51 -7.29,1.36 -11.51,5.63 -4.03,4.1 -12.63,8.35 -19.95,8.05 3.29,-1.74 8.34,-2.75 12.01,-4.4 2.94,-1.33 8.11,-5.27 9.07,-7.52 -19.92,0.95 -7.36,-5.93 -20.57,1.05 -2.82,1.48 -5.89,2.89 -9.03,4.07 -2.2,0.82 -8.61,1.93 -9.89,3.15 -1.92,-0.09 -4.09,0.32 -5.74,1.27 0.08,9.7 9.28,32.84 12.74,41.6 7.54,19.12 4.76,27.47 2.99,47.82 8.65,0.7 16.98,2 25.98,2.32 9.52,0.33 18.36,-0.32 27.75,-1.07l-0.2 -4.13zm-13.08 -212.44c6.25,-0.15 7.26,3.97 9.12,9.14 2.81,7.83 6.23,36.97 7.5,46.32 6.33,46.61 1.42,30.79 14.82,39.13 24.64,15.34 7.11,48.02 -0.81,63.83 -6.01,12.01 -15.23,22.3 -16.23,37.6 -0.27,4.06 -1.12,14.09 0.49,17.06 3.03,-0.56 5.76,-1.15 7.81,-1.24 0.51,-2.63 -0.49,-14.35 -0.38,-18.45 0.18,-6.66 1.07,-10.56 3.07,-16.11 6.42,-17.75 40.46,-58.83 20.98,-82.52 -2.8,-3.41 -5.68,-6.17 -10.84,-8.32 -7.55,-3.16 -5.77,0.65 -7.38,-11.81 -1.64,-12.7 -7.3,-57.49 -9.54,-66.96 -0.95,-4.02 -3.29,-10.98 -6.23,-12.92 -5.99,-3.97 -8.84,3.73 -10.38,4.49l-2 0.76zm-22.35 80.88l15.88 -1.29c-0.29,-15.48 -2.61,-32.53 -3.64,-48.2 -0.33,-4.91 -2.01,-32.1 -3.4,-35.86 -2.84,-7.69 -12.61,-6.49 -15.18,0.81 -1.54,4.35 1.5,30.81 1.99,36.37 0.71,8.1 1.4,16.21 2.05,24.28 0.44,5.48 0.98,19.52 2.3,23.89z"/>
   </g>
   <g>
    <path class="fil0" d="M208.24 164.18c0.22,-2.51 -0.03,-6.33 0.8,-8.49 0.68,-1.79 3.2,-3.75 5.25,-4.33 5.56,-1.58 7.38,4.15 9.86,7.41 0.29,-2.07 -3.97,-30.37 -6.06,-32.79 -3.67,-4.22 -13.62,-3.1 -16.41,5.73 -1.9,6.05 3.3,28.94 6.56,32.47zm54.1 -8.89c2.76,0.27 11.83,-4.72 14.85,-5.88l-5.71 -10.4c-0.46,-0.61 -0.43,-0.57 -0.82,-0.98 0.21,4.02 0.18,7.86 -1.68,11.11 -0.61,1.08 -2.13,2.7 -3.03,3.52 -1.03,0.92 -2.58,1.4 -3.61,2.63zm11.64 -69.72c-1.45,1.21 -0.58,0.51 -1.88,0.61 -1,1.52 -2.59,1.92 -3.9,3.75 -0.99,1.37 -1.91,3.32 -2.31,5.31 -0.11,-0.1 -0.24,-0.24 -0.31,-0.32 -2.7,-2.98 -3.9,-9.09 -15.42,-6.41 -1.72,1.66 -2.7,1.08 -4.7,3.37 -4.28,4.91 -3.83,13.65 -3.72,20.54 -2.64,-0.43 -6.24,-4.41 -15.63,-0.61 -5.73,2.32 -6.22,5.45 -7,12.66 -3.22,-1.77 -4.75,-3.3 -9.96,-1.9 -4.08,1.1 -5.77,2.88 -7.36,5.75 -4.1,7.36 -0.87,13.88 0.23,21.74 2.63,18.99 -1.87,27.69 5.87,46.55 5.06,12.33 12.07,23.31 16.11,36.26 6.43,20.59 2.39,28.59 1.33,46.46 5.39,3.87 23.13,8.68 31.1,9.28 6.27,0.47 12.23,-0.18 18.16,-1.37 3.16,-0.63 13.62,-4.13 15.28,-3.88l0 0c0.06,-0.44 0.11,-0.88 0.15,-1.33 0.07,-0.66 0.12,-1.32 0.16,-1.98 0.03,-0.44 0.05,-0.88 0.06,-1.32 0.03,-0.88 0.04,-1.77 0.04,-2.65 0,-0.89 -0.01,-1.78 -0.04,-2.68 -0.02,-0.9 -0.06,-1.8 -0.1,-2.72l-0.02 -0.68 -0.03 -0.7 -0.03 -0.69 -0.03 -0.7c-0.03,-0.7 -0.06,-1.41 -0.09,-2.13l-0.05 -1.44c-0.01,-0.48 -0.02,-0.97 -0.03,-1.46 -0.01,-0.5 -0.02,-0.99 -0.02,-1.5l0 -0.75 0 -0.76c0.01,-0.51 0.01,-1.03 0.03,-1.55 0.01,-0.52 0.03,-1.05 0.05,-1.58 0.11,-2.66 0.36,-5.45 0.81,-8.43 0.05,-0.29 0.09,-0.59 0.15,-0.89 0.05,-0.3 0.1,-0.61 0.15,-0.91 0.06,-0.31 0.11,-0.61 0.17,-0.92 0.12,-0.62 0.25,-1.24 0.39,-1.88 0.07,-0.31 0.14,-0.63 0.21,-0.95 0.15,-0.64 0.31,-1.29 0.48,-1.95 0.25,-0.98 0.53,-1.99 0.84,-3.01 0.1,-0.35 0.21,-0.69 0.32,-1.04 0.11,-0.34 0.22,-0.69 0.33,-1.04 0.12,-0.35 0.24,-0.71 0.36,-1.06 0.12,-0.36 0.24,-0.72 0.37,-1.08 0.13,-0.36 0.26,-0.72 0.39,-1.09 0.16,-0.41 0.31,-0.82 0.47,-1.23 0.16,-0.41 0.32,-0.82 0.49,-1.22 0.16,-0.41 0.33,-0.82 0.5,-1.22 0.17,-0.41 0.35,-0.81 0.53,-1.22 0.18,-0.4 0.36,-0.8 0.54,-1.21 0.18,-0.4 0.37,-0.8 0.56,-1.2 0.19,-0.4 0.38,-0.8 0.58,-1.2 0.19,-0.4 0.39,-0.8 0.59,-1.2 0.2,-0.4 0.4,-0.8 0.6,-1.19 0.2,-0.4 0.41,-0.8 0.62,-1.19 0.2,-0.4 0.41,-0.8 0.62,-1.19l0.64 -1.19 0.65 -1.18c0.22,-0.39 0.44,-0.79 0.66,-1.18l0.66 -1.18 0.67 -1.18 0.68 -1.17 0.68 -1.18 0.68 -1.18 0.68 -1.17 0.69 -1.18 0.68 -1.17 0.69 -1.18 0.68 -1.18 0.68 -1.18 0.68 -1.18 0.67 -1.18 0.66 -1.19c0.44,-0.79 0.88,-1.58 1.3,-2.38 0.22,-0.4 0.43,-0.79 0.64,-1.19 0.21,-0.4 0.42,-0.8 0.63,-1.2 0.21,-0.4 0.41,-0.8 0.62,-1.2 0.2,-0.4 0.4,-0.81 0.6,-1.21 0.2,-0.4 0.4,-0.81 0.59,-1.21 0.19,-0.4 0.39,-0.81 0.57,-1.22 0.19,-0.4 0.38,-0.81 0.56,-1.22 0.19,-0.4 0.37,-0.81 0.55,-1.22 0.18,-0.41 0.35,-0.82 0.52,-1.24 0.69,-1.64 1.33,-3.3 1.9,-4.99 0.15,-0.42 0.29,-0.84 0.42,-1.26 0.27,-0.85 0.53,-1.7 0.77,-2.56 0.12,-0.43 0.23,-0.86 0.34,-1.29 0.22,-0.86 0.42,-1.73 0.61,-2.6 0.18,-0.88 0.34,-1.76 0.48,-2.64 0.08,-0.45 0.14,-0.89 0.2,-1.34 0.06,-0.44 0.12,-0.89 0.17,-1.34 0.1,-0.9 0.17,-1.81 0.22,-2.72 0.03,-0.46 0.05,-0.92 0.06,-1.38 0.02,-0.46 0.03,-0.93 0.03,-1.39 0,-0.46 -0.01,-0.93 -0.02,-1.4 -0.06,-2.81 -0.36,-5.7 -0.93,-8.66 -0.37,-1.91 -0.79,-3.68 -1.25,-5.31 -0.57,-2.04 -1.21,-3.87 -1.9,-5.51 -0.28,-0.65 -0.56,-1.28 -0.85,-1.88 -0.3,-0.59 -0.6,-1.16 -0.9,-1.7 -0.15,-0.27 -0.31,-0.54 -0.47,-0.8 -0.31,-0.51 -0.63,-1 -0.95,-1.46 -0.33,-0.47 -0.66,-0.9 -0.99,-1.32 -0.17,-0.21 -0.34,-0.41 -0.51,-0.61 -0.17,-0.19 -0.34,-0.38 -0.51,-0.57 -0.17,-0.18 -0.34,-0.36 -0.51,-0.54 -0.35,-0.34 -0.7,-0.67 -1.05,-0.98 -0.18,-0.15 -0.36,-0.3 -0.53,-0.45 -0.18,-0.14 -0.36,-0.28 -0.54,-0.42 -0.17,-0.13 -0.35,-0.26 -0.53,-0.39 -0.18,-0.12 -0.36,-0.25 -0.54,-0.36 -0.18,-0.12 -0.36,-0.24 -0.54,-0.34 -0.36,-0.22 -0.72,-0.43 -1.07,-0.62 -0.18,-0.09 -0.36,-0.18 -0.54,-0.27 -0.18,-0.08 -0.36,-0.17 -0.54,-0.25 -0.18,-0.08 -0.36,-0.16 -0.53,-0.23 -0.18,-0.07 -0.36,-0.14 -0.54,-0.21 -0.17,-0.07 -0.35,-0.14 -0.53,-0.2 -0.17,-0.06 -0.35,-0.12 -0.52,-0.18 -0.18,-0.06 -0.35,-0.11 -0.52,-0.16 -0.17,-0.06 -0.35,-0.11 -0.52,-0.16 -0.17,-0.04 -0.34,-0.09 -0.51,-0.13 -0.17,-0.05 -0.33,-0.09 -0.5,-0.13l-0.5 -0.12 -0.48 -0.1 -0.49 -0.1 -0.47 -0.09 -0.46 -0.09 -0.45 -0.08 -0.44 -0.07 -0.43 -0.08 -0.42 -0.07 -0.4 -0.07 -0.4 -0.07 -0.37 -0.07 -0.37 -0.08 -0.34 -0.08c-0.12,-0.03 -0.23,-0.05 -0.34,-0.08 -0.1,-0.03 -0.21,-0.06 -0.31,-0.09 -0.1,-0.03 -0.2,-0.07 -0.3,-0.1 -0.09,-0.03 -0.19,-0.07 -0.28,-0.11 -0.09,-0.03 -0.18,-0.07 -0.26,-0.11 -0.09,-0.04 -0.17,-0.09 -0.25,-0.13 -0.07,-0.04 -0.15,-0.09 -0.22,-0.14 -0.07,-0.04 -0.14,-0.1 -0.2,-0.15 -0.07,-0.05 -0.13,-0.1 -0.18,-0.16 -0.06,-0.06 -0.12,-0.12 -0.16,-0.18 -1.22,-2.72 -2.67,-22.49 -3.56,-27.56 -1.81,-10.3 -8.37,-14.22 -18.3,-11.58zm-63 86.74c-3.56,-4.07 -3.5,-7.87 -6.23,-11.62 -2.58,5.24 0.85,26.52 2.94,32.1 6.97,18.57 17.55,30.76 20.59,52.06 1.55,10.83 -1.78,32.33 -1.06,33.6 1.78,3.12 23.66,8.49 31.4,8.81 6.55,0.26 11.86,-0.66 18,-2.04 14.04,-3.15 11.97,-2.39 12.11,-7.56 -2.8,-42.15 8.05,-52.41 23.69,-81.55 6.86,-12.79 12.26,-24.97 9.83,-42.44 -2.15,-15.45 -10.26,-26.16 -26.52,-26.54 0.08,12.31 -0.57,20.9 -12.45,23.22 1.65,1.75 2.58,1.94 4.98,3.17 2.14,1.09 3.85,1.67 6.17,2.37 5.62,1.69 8.98,1.3 14.53,2.13 -8.56,4.27 -24.32,-6.04 -29.67,-7.9 -4.87,3.23 -13.36,15.95 -15.96,22.6 -3.41,8.73 -4.72,14.54 -5.23,24l-0.6 9.91c-2.11,-15.3 1.43,-29.73 8.62,-42.71l7.2 -10.63c-14.09,4.36 -10.05,4.38 -26.71,5.72 -1.88,10.47 -12.92,11.26 -18.37,3.65 -0.73,-1.01 -1.11,-1.9 -2.02,-3.02 -1.48,3.29 -0.14,8.63 -3.41,12.34 -2.62,2.99 -8.75,3.29 -11.83,0.33zm62.77 -32.56c1.68,-4.11 -1.36,-17.66 9.56,-17.43 7.46,0.16 8.68,9.94 10.21,16.96 1.67,-3.27 -0.16,-37.31 -4.57,-46.89 -2.09,-4.54 -4.97,-7.14 -11.25,-6.01 -6.05,1.09 -8.04,2.59 -10.1,7.49 -2.08,4.97 0.1,10.46 0.7,15.61 1.19,10.13 0.57,21.93 5.45,30.27zm-23 7.9c-0.34,-8.68 -2.88,-19.14 6.88,-20.08 10.98,-1.05 9.52,11.52 11.5,15.75 0.82,-7.09 -1.26,-26.23 -2.23,-33.99 -1.17,-9.38 -3.43,-23.38 -15.1,-19.71 -5.53,1.74 -7.28,3.87 -8.03,10.26 -1.31,11.31 0.16,22.63 1.77,33.9 0.37,2.6 0.57,5.32 1.46,7.58 0.44,1.11 0.92,2.03 1.46,3.08l2.29 3.21zm-22.39 13.01c2.07,-3.23 -3.89,-14.39 5.31,-18.61 9.79,-4.5 10.27,5.6 12.14,11.6 -0.04,-5.04 -1.74,-36.12 -5.12,-39.7 -2.6,-2.76 -9,-2.5 -13.25,-1.26 -9.05,2.63 -6.62,14.31 -5.2,22.7 1.53,9.07 3.02,17.69 6.12,25.27z"/>
    <path class="fil1" d="M208.24 164.18c0.22,-2.51 -0.03,-6.33 0.8,-8.49 0.68,-1.79 3.2,-3.75 5.25,-4.33 5.56,-1.58 7.38,4.15 9.86,7.41 0.29,-2.07 -3.97,-30.37 -6.06,-32.79 -3.67,-4.22 -13.62,-3.1 -16.41,5.73 -1.9,6.05 3.3,28.94 6.56,32.47zm41.92 -75.67c11.52,-2.68 12.72,3.43 15.42,6.41 0.07,0.08 0.2,0.22 0.31,0.32 0.4,-1.99 1.32,-3.94 2.31,-5.31 1.31,-1.83 2.9,-2.23 3.9,-3.75 -1.64,-1.55 -2.15,-3.08 -4.18,-4.53 -2.02,-1.46 -4.61,-2.04 -7.73,-1.66 -4.07,0.48 -9.8,4.62 -10.03,8.52zm-39.18 83.8c-3.56,-4.07 -3.5,-7.87 -6.23,-11.62 -2.58,5.24 0.85,26.52 2.94,32.1 6.97,18.57 17.55,30.76 20.59,52.06 1.55,10.83 -1.78,32.33 -1.06,33.6 1.78,3.12 23.66,8.49 31.4,8.81 6.55,0.26 11.86,-0.66 18,-2.04 14.04,-3.15 11.97,-2.39 12.11,-7.56 -2.8,-42.15 8.05,-52.41 23.69,-81.55 6.86,-12.79 12.26,-24.97 9.83,-42.44 -2.15,-15.45 -10.26,-26.16 -26.52,-26.54 0.08,12.31 -0.57,20.9 -12.45,23.22 1.65,1.75 2.58,1.94 4.98,3.17 2.14,1.09 3.85,1.67 6.17,2.37 5.62,1.69 8.98,1.3 14.53,2.13 -8.56,4.27 -24.32,-6.04 -29.67,-7.9 -4.87,3.23 -13.36,15.95 -15.96,22.6 -3.41,8.73 -4.72,14.54 -5.23,24l-0.6 9.91c-2.11,-15.3 1.43,-29.73 8.62,-42.71l7.2 -10.63c-14.09,4.36 -10.05,4.38 -26.71,5.72 -1.88,10.47 -12.92,11.26 -18.37,3.65 -0.73,-1.01 -1.11,-1.9 -2.02,-3.02 -1.48,3.29 -0.14,8.63 -3.41,12.34 -2.62,2.99 -8.75,3.29 -11.83,0.33zm63 -86.74c9.93,-2.64 16.49,1.28 18.3,11.58 0.89,5.07 2.34,24.84 3.56,27.56 3.19,4 21.52,-3 27.41,27.6 6.09,31.64 -18.66,53.87 -28.36,80.18 -6.37,17.29 -5.06,29.08 -4.69,39.77 0.03,0.62 0.04,1.24 0.06,1.85 0.02,0.92 0.03,1.83 0.02,2.74 0,0 0.86,1.31 6.72,-2.05 0.55,-13.18 -1.14,-22.79 1.11,-36.18 3.05,-18.11 14.39,-35.43 23.17,-50.81 7.78,-13.64 12.42,-29.66 8.56,-45.22 -3.06,-12.37 -6.64,-20.51 -19.95,-23.8 -9.05,-2.23 -6.93,0.81 -8.16,-9.37 -1.06,-8.68 -1.27,-23.57 -6.5,-28.85 -2.96,-2.99 -7.5,-5.06 -13.3,-3.1 -3.28,1.12 -9.17,5.47 -7.95,8.1zm-0.23 54.18c1.68,-4.11 -1.36,-17.66 9.56,-17.43 7.46,0.16 8.68,9.94 10.21,16.96 1.67,-3.27 -0.16,-37.31 -4.57,-46.89 -2.09,-4.54 -4.97,-7.14 -11.25,-6.01 -6.05,1.09 -8.04,2.59 -10.1,7.49 -2.08,4.97 0.1,10.46 0.7,15.61 1.19,10.13 0.57,21.93 5.45,30.27zm-23 7.9c-0.34,-8.68 -2.88,-19.14 6.88,-20.08 10.98,-1.05 9.52,11.52 11.5,15.75 0.82,-7.09 -1.26,-26.23 -2.23,-33.99 -1.17,-9.38 -3.43,-23.38 -15.1,-19.71 -5.53,1.74 -7.28,3.87 -8.03,10.26 -1.31,11.31 0.16,22.63 1.77,33.9 0.37,2.6 0.57,5.32 1.46,7.58 0.44,1.11 0.92,2.03 1.46,3.08l2.29 3.21zm-22.39 13.01c2.07,-3.23 -3.89,-14.39 5.31,-18.61 9.79,-4.5 10.27,5.6 12.14,11.6 -0.04,-5.04 -1.74,-36.12 -5.12,-39.7 -2.6,-2.76 -9,-2.5 -13.25,-1.26 -9.05,2.63 -6.62,14.31 -5.2,22.7 1.53,9.07 3.02,17.69 6.12,25.27z"/>
    <path class="fil0" d="M256.91 129.2c-6.57,1.58 -5.41,7.64 -4.77,15.14 0.31,3.71 0.22,5.84 2.44,8.1 5.05,5.14 12.37,-2.11 12.92,-3.79 0.56,-1.73 -0.61,-7.09 -0.86,-9.32 -0.69,-6.01 -2.87,-11.77 -9.73,-10.13z"/>
    <path class="fil0" d="M281.1 124.22c-5.96,2.21 -4.99,6.37 -4.99,15.6 -0.01,4.28 -0.08,5.6 2.7,7.54 2.87,2 16.7,3.81 11.91,-13.92 -1.39,-5.16 -3,-11.68 -9.62,-9.22z"/>
    <path class="fil0" d="M234.66 143.31c-5.84,2.43 -5.1,6.5 -4.26,13.61 0.73,6.22 1.65,11.47 9.83,8.76 6.05,-2 4.09,-7.58 3.46,-13.56 -0.6,-5.78 -1.96,-11.76 -9.03,-8.81z"/>
    <path class="fil0" d="M214.25 152.65c-4.24,1.41 -5.46,7.5 -4.02,12.4 1.45,4.95 1.83,9.73 8.67,7.57 9.5,-3 2.62,-22.39 -4.65,-19.97z"/>
    <path class="fil1" d="M262.34 155.29c2.76,0.27 11.83,-4.72 14.85,-5.88l-5.71 -10.4c-0.46,-0.61 -0.43,-0.57 -0.82,-0.98 0.21,4.02 0.18,7.86 -1.68,11.11 -0.61,1.08 -2.13,2.7 -3.03,3.52 -1.03,0.92 -2.58,1.4 -3.61,2.63z"/>
    <path class="fil1" d="M247.15 157.4l11.45 -1.2c-4.15,-1.97 -3.51,-0.91 -6.74,-4.06 -1.83,-1.78 -3.37,-5.29 -4.55,-6.14l-0.16 11.4z"/>
   </g>
   <g>
    <g>
     <circle class="fil2" cx="27.88" cy="27.89" r="27.89"/>
    </g>
    <path class="fil3" d="M30.06 11.47c1.15,0 2.11,0.27 2.89,0.81 0.78,0.55 1.42,1.49 1.92,2.83 0.43,1.12 0.78,2.65 1.05,4.6 0.26,1.95 0.4,4.31 0.4,7.08 0,1.74 -0.1,3.5 -0.28,5.27 -0.19,1.78 -0.42,3.41 -0.7,4.89 -0.28,1.48 -0.6,2.64 -0.94,3.48 -0.56,1.4 -1.18,2.39 -1.87,2.99 -0.68,0.59 -1.52,0.88 -2.52,0.88 -1.15,0 -2.09,-0.3 -2.83,-0.91 -0.73,-0.6 -1.26,-1.61 -1.61,-3.01 -0.22,-0.81 -0.37,-1.76 -0.46,-2.85 -0.1,-1.09 -0.14,-2.26 -0.14,-3.5 0,-1.56 0.1,-3.18 0.32,-4.86 0.22,-1.68 0.52,-3.34 0.89,-4.97 0.37,-1.64 0.79,-3.13 1.26,-4.47l0.75 0.52c-0.81,1.12 -1.73,1.99 -2.76,2.61 -1.03,0.63 -1.99,0.94 -2.89,0.94 -0.97,0 -1.72,-0.31 -2.27,-0.91 -0.54,-0.61 -0.82,-1.46 -0.82,-2.55 0,-1.03 0.32,-2.06 0.96,-3.11 0.64,-1.04 1.48,-2 2.52,-2.87 1.05,-0.87 2.19,-1.57 3.44,-2.1 1.24,-0.53 2.47,-0.79 3.69,-0.79z"/>
   </g>
   <g>
    <g>
     <circle class="fil2" cx="317.12" cy="27.89" r="27.89"/>
    </g>
    <path class="fil3" d="M321.02 11.7c3.98,0 6.96,0.85 8.92,2.55 1.96,1.69 2.94,3.91 2.94,6.65 0,2.03 -0.51,3.88 -1.54,5.56 -1.03,1.68 -2.56,3.24 -4.6,4.67 -2.04,1.43 -4.59,2.79 -7.64,4.06l0.23 -1.02c4.46,-0.22 7.63,0.11 9.51,1 1.88,0.89 2.83,2.28 2.83,4.18 0,1.62 -0.56,2.87 -1.69,3.74 -1.12,0.87 -2.8,1.31 -5.04,1.31 -1.12,0 -2.38,-0.05 -3.78,-0.14 -1.4,-0.1 -2.81,-0.24 -4.21,-0.45 -1.4,-0.2 -2.69,-0.46 -3.87,-0.77 -1.41,-0.4 -2.41,-0.98 -3.02,-1.73 -0.6,-0.74 -0.91,-1.79 -0.91,-3.13 0,-1.02 0.27,-1.97 0.8,-2.82 0.53,-0.86 1.34,-1.74 2.45,-2.64 1.1,-0.9 2.51,-1.93 4.23,-3.08 1.55,-1.03 2.81,-1.9 3.78,-2.62 0.96,-0.71 1.67,-1.35 2.12,-1.91 0.46,-0.56 0.68,-1.13 0.68,-1.69 0,-0.59 -0.26,-1.05 -0.77,-1.37 -0.51,-0.33 -1.31,-0.49 -2.4,-0.49 -0.66,0 -1.34,0.07 -2.04,0.21 -0.7,0.14 -1.43,0.28 -2.19,0.42 -0.77,0.14 -1.6,0.21 -2.5,0.21 -1.31,0 -2.3,-0.31 -2.97,-0.94 -0.67,-0.62 -1,-1.49 -1,-2.61 0,-1.28 0.48,-2.46 1.45,-3.55 0.96,-1.09 2.32,-1.97 4.08,-2.62 1.76,-0.65 3.81,-0.98 6.15,-0.98z"/>
   </g>
  </g>
 </g>
</svg>
