<?xml version="1.0" encoding="UTF-8"?>
<!DOCTYPE svg PUBLIC "-//W3C//DTD SVG 1.1//EN" "http://www.w3.org/Graphics/SVG/1.1/DTD/svg11.dtd">
<!-- Creator: CorelDRAW -->
<svg xmlns="http://www.w3.org/2000/svg" xml:space="preserve" width="114px" height="146px" version="1.1" style="shape-rendering:geometricPrecision; text-rendering:geometricPrecision; image-rendering:optimizeQuality; fill-rule:evenodd; clip-rule:evenodd"
viewBox="0 0 103.87 132.12"
 xmlns:xlink="http://www.w3.org/1999/xlink"
 xmlns:xodm="http://www.corel.com/coreldraw/odm/2003">
 <defs>
  <style type="text/css">
   <![CDATA[
    .fil0 {fill:#0F2B72;fill-rule:nonzero}
    .fil2 {fill:#4762B2;fill-rule:nonzero}
    .fil1 {fill:#99AADD;fill-rule:nonzero}
    .fil6 {fill:#BC005E;fill-rule:nonzero}
    .fil3 {fill:#CCF5F6;fill-rule:nonzero}
    .fil7 {fill:white;fill-rule:nonzero}
    .fil4 {fill:url(#id0)}
    .fil5 {fill:url(#id1)}
   ]]>
  </style>
  <linearGradient id="id0" gradientUnits="userSpaceOnUse" x1="11.85" y1="65.92" x2="92.59" y2="56.63">
   <stop offset="0" style="stop-opacity:1; stop-color:#00CBD4"/>
   <stop offset="0.611765" style="stop-opacity:1; stop-color:#7FE5E9"/>
   <stop offset="1" style="stop-opacity:1; stop-color:white"/>
  </linearGradient>
  <linearGradient id="id1" gradientUnits="userSpaceOnUse" x1="45.2" y1="45.52" x2="65.87" y2="52.21">
   <stop offset="0" style="stop-opacity:1; stop-color:#ED9DE2"/>
   <stop offset="0.270588" style="stop-opacity:1; stop-color:#E56C9B"/>
   <stop offset="0.709804" style="stop-opacity:1; stop-color:#DC3B53"/>
   <stop offset="1" style="stop-opacity:1; stop-color:#DC3B53"/>
  </linearGradient>
 </defs>
 <g id="Camada_x0020_1">
  <metadata id="CorelCorpID_0Corel-Layer"/>
  <g id="_2658902919296">
   <path class="fil0" d="M9.38 92.89c-0.63,2.16 -1.2,4.33 -1.9,6.47 -0.7,2.11 -0.88,4.19 -0.19,6.33 0.21,0.67 0.41,1.37 0.54,2.07 0.06,0.28 -0.07,0.6 -0.11,0.91 -0.24,-0.17 -0.55,-0.29 -0.7,-0.52 -1.02,-1.54 -1.3,-3.28 -1.16,-5.08 0.29,-3.65 2.04,-6.87 3.05,-10.31 0.16,0.04 0.31,0.09 0.47,0.13z"/>
   <path class="fil0" d="M100.78 29.24c-0.01,2.69 -1.01,5.15 -1.87,7.63 -2.29,6.64 -4.62,13.26 -6.95,19.88 -2.74,7.84 -5.51,15.68 -8.23,23.53 -3.75,10.77 -7.47,21.56 -11.21,32.34 -0.76,2.19 -1.53,4.37 -2.35,6.53 -0.23,0.6 -0.68,1.12 -1.03,1.68 -0.2,0.31 -0.53,0.59 -0.61,0.92 -0.73,3.11 -3.07,4.74 -5.65,6.05 -4.02,2.04 -8.1,1.33 -12.23,0.11 -5.63,-1.66 -11.33,-3.12 -16.99,-4.67 -6.14,-1.68 -12.27,-3.37 -18.41,-5.05 -1.75,-0.48 -3.53,-0.87 -5.25,-1.47 -0.9,-0.31 -1.95,-0.63 -2.44,-2.02 0.61,0.06 1.01,0.04 1.38,0.14 13,3.46 26.01,6.92 39.02,10.4 1.11,0.3 2.21,0.68 3.31,1 2.78,0.8 5.62,1.04 8.36,0.08 4.77,-1.67 8.22,-4.66 9.54,-9.88 1,-3.92 2.43,-7.74 3.73,-11.59 2.25,-6.69 4.52,-13.37 6.82,-20.05 2.58,-7.44 5.2,-14.85 7.79,-22.28 2.59,-7.39 5.17,-14.79 7.76,-22.19 1.41,-4.05 2.83,-8.09 4.26,-12.13 0.12,-0.34 0.32,-0.65 0.51,-1.02 1.02,0.5 0.74,1.35 0.74,2.06zm-96.93 76.9c-0.86,-2.72 -0.34,-5.23 0.5,-7.74 5.31,-15.76 10.64,-31.51 16.01,-47.24 3.63,-10.64 7.34,-21.25 11.02,-31.86 1.06,-3.07 2.09,-6.15 3.25,-9.18 2.01,-5.26 7.8,-8.1 13.19,-6.61 6.56,1.81 13.1,3.69 19.67,5.5 7.41,2.05 14.85,4.05 22.27,6.09 2.61,0.72 4.79,2.08 6.06,4.57 0.39,0.76 0.62,1.59 0.93,2.39 0.83,2.46 0.48,4.85 -0.35,7.22 -2.94,8.39 -5.9,16.77 -8.83,25.17 -4.67,13.43 -9.36,26.87 -13.98,40.33 -2.3,6.7 -4.73,13.38 -6.63,20.2 -1.92,6.89 -9.13,10.31 -15.97,8.2 -9.31,-2.87 -18.77,-5.23 -28.16,-7.83 -4.62,-1.27 -9.27,-2.48 -13.84,-3.92 -2.56,-0.8 -4.28,-2.58 -5.14,-5.29zm98.82 -83.48c-2.08,-4.76 -5.69,-8.11 -10.46,-9.84 -4.7,-1.71 -9.63,-2.8 -14.46,-4.15 -9.71,-2.7 -19.43,-5.41 -29.15,-8.08 -2.86,-0.79 -5.79,-0.87 -8.55,0.28 -4.39,1.83 -7.28,5.1 -8.8,9.67 -1.97,5.95 -4.11,11.86 -6.17,17.79 -4.2,12.06 -8.45,24.11 -12.57,36.21 -3.88,11.36 -7.62,22.76 -11.41,34.15 -1.36,4.09 -1.53,8.19 -0.1,12.31 1.63,4.75 4.83,7.9 9.66,9.27 5.04,1.43 10.13,2.69 15.19,4.05 8.62,2.29 17.24,4.64 25.87,6.89 3.18,0.84 6.41,1.39 9.69,0.33 4.97,-1.43 8.48,-4.66 10.5,-9.31 1.67,-3.83 2.9,-7.84 4.29,-11.79 3.88,-11.03 7.74,-22.06 11.6,-33.1 5.05,-14.49 10.09,-28.99 15.1,-43.5 1.29,-3.73 1.37,-7.51 -0.23,-11.18z"/>
   <path class="fil1" d="M92.46 30.53c-1.72,4.8 -3.5,9.59 -5.16,14.41 -4.75,13.74 -9.46,27.48 -14.17,41.23 -2.44,7.12 -4.86,14.25 -7.3,21.37 -0.75,2.18 -2.44,3.8 -5.35,2.94 -9.71,-2.86 -19.44,-5.64 -29.18,-8.42 -5.32,-1.52 -10.66,-3 -16.01,-4.46 -1.74,-0.47 -3.29,-1.07 -4.22,-2.8 -0.57,-1.08 -0.42,-2.13 -0.11,-3.12 1,-3.2 2.11,-6.37 3.2,-9.54 1.98,-5.77 3.98,-11.53 5.96,-17.3 4.05,-11.78 8.1,-23.55 12.15,-35.33 1.65,-4.8 3.33,-9.6 4.96,-14.41 0.57,-1.66 1.56,-2.86 3.62,-3.53 0.53,0.06 1.44,0.04 2.28,0.27 10.12,2.78 20.22,5.61 30.34,8.4 5.15,1.42 10.33,2.78 15.5,4.2 1.22,0.34 2.39,0.82 3.18,1.94 0.95,1.33 0.82,2.73 0.31,4.15zm-56.35 85.97c-3.11,0.53 -5.64,-0.84 -6.83,-3.88 -0.62,-3.15 1.32,-6.16 4.24,-6.87 2.78,-0.67 5.95,1.09 6.62,3.76 0.7,2.77 -1.36,6.53 -4.03,6.99zm-28.63 -17.14c-0.7,2.11 -0.88,4.19 -0.19,6.33 0.21,0.68 0.41,1.37 0.54,2.06 0.06,0.3 -0.07,0.61 -0.11,0.92 -0.24,-0.17 -0.55,-0.3 -0.7,-0.53 -1.02,-1.53 -1.3,-3.27 -1.16,-5.06 0.29,-3.67 2.04,-6.88 3.05,-10.32 0.16,0.04 0.31,0.09 0.47,0.13 -0.63,2.16 -1.2,4.33 -1.9,6.47zm31.44 -91.57c1.12,-1.1 2.53,-1.89 3.85,-2.79 0.2,-0.14 0.55,-0.07 0.83,-0.1 -0.19,0.24 -0.32,0.56 -0.55,0.72 -1.76,1.19 -3.53,2.36 -4.64,4.25 -0.47,0.81 -0.9,1.64 -1.34,2.47 -0.22,0.42 -0.43,0.85 -0.64,1.27 -0.12,-0.07 -0.25,-0.13 -0.37,-0.2 0.4,-2.14 1.29,-4.1 2.86,-5.62zm18.52 2.62c2.39,0.57 4.75,1.22 7.11,1.85 3.77,1 7.53,2.01 11.3,3.03 1.4,0.38 1.87,1.35 1.01,2.21 -0.31,0.3 -1.02,0.4 -1.48,0.29 -3.38,-0.84 -6.75,-1.75 -10.12,-2.65 -2.58,-0.68 -5.17,-1.35 -7.75,-2.08 -0.65,-0.18 -1.25,-0.6 -1.62,-0.79 -0.37,-1.48 0.32,-2.15 1.55,-1.86zm39.31 11.65c-0.3,-0.8 -0.54,-1.63 -0.93,-2.39 -1.27,-2.49 -3.45,-3.85 -6.06,-4.57 -7.42,-2.04 -14.86,-4.04 -22.27,-6.09 -6.57,-1.81 -13.11,-3.69 -19.67,-5.5 -5.39,-1.49 -11.18,1.35 -13.19,6.61 -1.16,3.03 -2.19,6.11 -3.25,9.18 -3.68,10.61 -7.39,21.22 -11.02,31.86 -5.37,15.73 -10.7,31.48 -16.01,47.24 -0.84,2.51 -1.36,5.02 -0.5,7.74 0.86,2.71 2.58,4.49 5.14,5.29 4.57,1.44 9.22,2.65 13.84,3.92 9.39,2.6 18.85,4.96 28.16,7.83 6.84,2.11 14.05,-1.31 15.97,-8.2 1.9,-6.82 4.33,-13.5 6.63,-20.2 4.62,-13.46 9.31,-26.9 13.98,-40.33 2.93,-8.4 5.89,-16.78 8.83,-25.17 0.83,-2.37 1.18,-4.76 0.35,-7.22z"/>
   <path class="fil2" d="M7.56 114.7c0.61,0.06 1.01,0.04 1.37,0.14 13.01,3.46 26.02,6.92 39.03,10.4 1.11,0.3 2.21,0.68 3.32,1 2.77,0.8 5.62,1.04 8.34,0.08 4.78,-1.68 8.23,-4.66 9.55,-9.88 0.99,-3.92 2.43,-7.74 3.73,-11.59 2.25,-6.69 4.52,-13.37 6.83,-20.05 2.57,-7.43 5.19,-14.85 7.78,-22.28 2.59,-7.39 5.17,-14.79 7.76,-22.19 1.41,-4.04 2.83,-8.09 4.26,-12.13 0.12,-0.34 0.32,-0.65 0.51,-1.02 1.02,0.5 0.74,1.35 0.73,2.06 0,2.69 -1,5.15 -1.86,7.63 -2.29,6.64 -4.62,13.26 -6.94,19.88 -2.75,7.84 -5.51,15.68 -8.24,23.52 -3.75,10.78 -7.47,21.57 -11.21,32.35 -0.76,2.18 -1.52,4.37 -2.35,6.52 -0.23,0.61 -0.68,1.13 -1.03,1.69 -0.2,0.31 -0.53,0.59 -0.61,0.93 -0.73,3.1 -3.06,4.73 -5.65,6.04 -4.02,2.04 -8.1,1.33 -12.23,0.11 -5.63,-1.66 -11.32,-3.12 -16.99,-4.67 -6.14,-1.68 -12.27,-3.37 -18.4,-5.05 -1.76,-0.48 -3.54,-0.87 -5.26,-1.46 -0.9,-0.32 -1.95,-0.64 -2.44,-2.03z"/>
   <path class="fil2" d="M35.42 113.68c-1.7,0.46 -2.6,-0.07 -3.06,-1.8 -0.43,-1.62 0.11,-2.56 1.75,-2.99 1.46,-0.39 2.68,0.31 3.07,1.77 0.42,1.58 -0.17,2.59 -1.76,3.02zm4.72 -4.17c-0.67,-2.67 -3.84,-4.43 -6.62,-3.76 -2.92,0.71 -4.86,3.72 -4.24,6.87 1.19,3.04 3.72,4.41 6.83,3.88 2.67,-0.46 4.73,-4.22 4.03,-6.99z"/>
   <path class="fil0" d="M55.88 12.27c-0.36,-1.48 0.33,-2.15 1.57,-1.86 2.38,0.57 4.74,1.22 7.1,1.85 3.77,1 7.54,2.01 11.3,3.03 1.4,0.38 1.86,1.35 1,2.21 -0.3,0.3 -1.01,0.4 -1.47,0.29 -3.38,-0.84 -6.75,-1.76 -10.12,-2.65 -2.59,-0.68 -5.17,-1.35 -7.75,-2.08 -0.65,-0.18 -1.25,-0.6 -1.63,-0.79z"/>
   <path class="fil0" d="M36.06 13.41c0.4,-2.14 1.29,-4.1 2.86,-5.62 1.12,-1.09 2.53,-1.9 3.85,-2.79 0.2,-0.14 0.55,-0.07 0.83,-0.1 -0.18,0.24 -0.32,0.56 -0.55,0.72 -1.76,1.19 -3.53,2.36 -4.64,4.25 -0.47,0.81 -0.9,1.64 -1.34,2.47 -0.22,0.42 -0.42,0.85 -0.63,1.27 -0.13,-0.07 -0.26,-0.13 -0.38,-0.2z"/>
   <path class="fil3" d="M90.05 28.07c-0.12,0.72 -0.13,1.21 -0.28,1.66 -3.54,10.24 -7.12,20.46 -10.63,30.7 -4.13,12.03 -8.22,24.07 -12.31,36.1 -1.02,3.01 -1.98,6.03 -2.99,9.04 -0.7,2.09 -1.56,2.5 -3.64,1.9 -11.87,-3.41 -23.74,-6.82 -35.62,-10.22 -2.93,-0.84 -5.88,-1.61 -8.83,-2.39 -2.05,-0.55 -2.58,-1.43 -1.9,-3.42 3.13,-9.27 6.26,-18.53 9.43,-27.78 3.42,-10 6.88,-19.99 10.33,-29.99 2.01,-5.83 4.02,-11.66 6.04,-17.49 0.67,-1.94 1.33,-2.25 3.26,-1.71 8.85,2.46 17.71,4.9 26.57,7.35 5.48,1.51 10.97,3.02 16.46,4.52 0.86,0.24 1.76,0.35 2.58,0.67 0.57,0.22 1.04,0.71 1.53,1.06z"/>
   <path class="fil0" d="M32.36 111.88c-0.44,-1.62 0.11,-2.56 1.74,-2.99 1.47,-0.4 2.69,0.31 3.08,1.77 0.42,1.58 -0.17,2.59 -1.76,3.02 -1.7,0.46 -2.6,-0.07 -3.06,-1.8z"/>
   <polygon class="fil4" points="26.87,67.03 48.4,68.98 15.13,94.43 32.74,100.3 73.85,61.16 52.32,59.2 89.03,25.67 73.85,22.01 "/>
   <path class="fil2" d="M89.77 29.73c-3.54,10.24 -7.11,20.46 -10.63,30.7 -4.13,12.03 -8.22,24.07 -12.31,36.11 -1.02,3 -1.98,6.02 -2.99,9.03 -0.7,2.09 -1.55,2.5 -3.64,1.9 -5.93,-1.71 -11.87,-3.41 -17.81,-5.11 -3.02,-0.87 -6.05,-1.74 -9.07,-2.6 -2.92,-0.84 -5.83,-1.68 -8.74,-2.51 -1.1,-0.31 -2.19,-0.62 -3.29,-0.91 -0.77,-0.21 -1.53,-0.42 -2.29,-0.62 -0.01,0 -0.02,-0.01 -0.03,-0.01 -1.07,-0.29 -2.15,-0.57 -3.22,-0.86 -2.05,-0.54 -2.57,-1.42 -1.9,-3.42 3.13,-9.26 6.26,-18.52 9.42,-27.77 3.43,-10 6.89,-19.99 10.34,-29.99 2.01,-5.83 4.02,-11.66 6.03,-17.49 0.68,-1.94 1.34,-2.25 3.27,-1.71 8.85,2.46 17.71,4.9 26.56,7.35 1.19,0.32 2.37,0.65 3.55,0.98 1.56,0.42 3.13,0.86 4.69,1.28 2.74,0.76 5.48,1.51 8.23,2.26 0.61,0.17 1.25,0.27 1.86,0.44 0.25,0.06 0.49,0.14 0.72,0.23 0.57,0.23 1.04,0.71 1.53,1.06 -0.12,0.72 -0.13,1.21 -0.28,1.66zm2.38 -3.35c-0.79,-1.12 -1.96,-1.6 -3.18,-1.94 -5.17,-1.42 -10.35,-2.78 -15.5,-4.2 -10.12,-2.79 -20.22,-5.62 -30.34,-8.4 -0.84,-0.23 -1.75,-0.21 -2.28,-0.27 -2.06,0.67 -3.05,1.87 -3.62,3.53 -1.63,4.81 -3.31,9.61 -4.96,14.41 -4.05,11.78 -8.1,23.55 -12.15,35.33 -1.98,5.77 -3.98,11.53 -5.96,17.3 -1.09,3.17 -2.2,6.34 -3.2,9.54 -0.31,0.99 -0.46,2.04 0.11,3.12 0.93,1.73 2.48,2.33 4.22,2.8 5.35,1.46 10.69,2.94 16.01,4.46 9.74,2.78 19.47,5.56 29.18,8.42 2.91,0.86 4.6,-0.76 5.35,-2.94 2.44,-7.12 4.86,-14.25 7.3,-21.37 4.71,-13.75 9.42,-27.49 14.17,-41.23 1.66,-4.82 3.44,-9.61 5.16,-14.41 0.51,-1.42 0.64,-2.82 -0.31,-4.15z"/>
   <path class="fil5" d="M48.32 39.09c-2.26,1.38 -2.59,3.99 -2.7,4.85 -0.31,2.42 0.66,4.28 1.04,4.94 0.53,1.41 1.39,3.24 2.79,5.15 1.04,1.41 2.12,2.5 3.05,3.32 1.7,-0.16 4.09,-0.58 6.75,-1.68 2.59,-1.07 4.54,-2.41 5.85,-3.46 0.39,-0.3 1.89,-1.48 2.28,-3.59 0.58,-3.07 -1.7,-5.29 -1.87,-5.45 -0.49,-0.4 -1.89,-1.45 -3.98,-1.6 -2.46,-0.18 -4.21,1.02 -4.68,1.36 -0.12,-0.57 -0.52,-2.14 -1.94,-3.31 -1.03,-0.86 -2.37,-1.31 -3.71,-1.31 -1,0 -2.01,0.25 -2.88,0.78z"/>
   <path class="fil6" d="M52.97 77.04c0.49,-0.37 0.89,-0.74 1.35,-1.01 0.18,-0.11 0.54,-0.11 0.72,-0.01 2.04,1.22 3.97,2.58 5.25,4.65 1.6,2.59 0.87,4.94 -1.93,6.15 -2.32,1 -4.78,1.04 -7.23,0.8 -6.21,-0.58 -11.97,-2.47 -17.02,-6.2 -1.15,-0.84 -2.18,-1.94 -3,-3.11 -1.74,-2.47 -0.9,-5.04 1.87,-6.21 2.24,-0.94 4.6,-0.98 6.97,-0.8 0.22,0.01 0.5,0.29 0.6,0.51 0.21,0.43 0.31,0.91 0.49,1.48 -0.84,-0.04 -1.62,-0.17 -2.37,-0.09 -1.61,0.16 -3.27,0.25 -4.81,0.72 -1.81,0.54 -2.13,1.81 -1.08,3.4 1.27,1.92 3.13,3.18 5.11,4.25 4.98,2.7 10.28,4.27 15.99,4.14 1.21,-0.03 2.47,-0.29 3.62,-0.69 1.76,-0.61 2.1,-1.79 1.09,-3.35 -1.19,-1.87 -3,-3.04 -4.85,-4.16 -0.23,-0.14 -0.45,-0.28 -0.77,-0.47z"/>
   <path class="fil6" d="M72.08 41.46c-4.83,-11 -20.57,-14.29 -29.02,-6.09 -3.58,3.47 -4.84,7.76 -4.57,12.58 0.54,9.25 3.94,17.98 7.53,26.67 0.41,1 1.51,1.26 2.45,0.66 6.43,-4.11 12.67,-8.41 17.95,-13.75 2.73,-2.76 5.13,-5.72 6.34,-9.28 1.1,-3.67 0.89,-7.23 -0.68,-10.79z"/>
   <path class="fil7" d="M63.78 52.76c-3.13,2.44 -6.81,3.93 -10.85,4.75 -0.22,0.05 -0.59,-0.06 -0.74,-0.22 -2.95,-3.08 -5.2,-6.5 -6.33,-10.44 -0.5,-1.73 -0.64,-3.47 -0.01,-5.16 1.16,-3.12 4.94,-4.42 8.1,-2.76 1.42,0.75 2.27,1.93 2.78,3.32 0.09,0.24 0.17,0.48 0.29,0.83 0.39,-0.28 0.69,-0.5 1.01,-0.71 2.05,-1.32 4.53,-1.32 6.52,0 2.05,1.36 3.02,3.7 2.45,5.91 -0.48,1.87 -1.69,3.29 -3.22,4.48z"/>
  </g>
 </g>
</svg>
