<?xml version="1.0" encoding="UTF-8"?>
<!DOCTYPE svg PUBLIC "-//W3C//DTD SVG 1.1//EN" "http://www.w3.org/Graphics/SVG/1.1/DTD/svg11.dtd">
<!-- Creator: CorelDRAW -->
<svg xmlns="http://www.w3.org/2000/svg" xml:space="preserve" width="81px" height="81px" version="1.1" style="shape-rendering:geometricPrecision; text-rendering:geometricPrecision; image-rendering:optimizeQuality; fill-rule:evenodd; clip-rule:evenodd"
viewBox="0 0 40.07 40.07"
 xmlns:xlink="http://www.w3.org/1999/xlink"
 xmlns:xodm="http://www.corel.com/coreldraw/odm/2003">
 <defs>
  <style type="text/css">
   <![CDATA[
    .fil0 {fill:#FEFEFE}
    .fil1 {fill:#BC005E;fill-rule:nonzero}
   ]]>
  </style>
 </defs>
 <g id="Camada_x0020_1">
  <metadata id="CorelCorpID_0Corel-Layer"/>
  <g id="_2659302158368">
   <circle class="fil0" cx="20.03" cy="20.03" r="20.03"/>
   <path class="fil1" d="M8.73 29.97l7.28 -10.33 -6.75 -9.62c-0.47,-0.67 -0.31,-1.59 0.36,-2.06 0.26,-0.18 0.55,-0.26 0.85,-0.26l4.53 -0.01c0.55,0 1.03,0.31 1.29,0.76 1.23,1.85 2.48,3.69 3.7,5.55l4.01 -5.68c0.29,-0.41 0.74,-0.62 1.21,-0.62l4.5 -0.01c0.81,0 1.47,0.66 1.47,1.48 0,0.35 -0.12,0.68 -0.32,0.93l-6.74 9.55 7.27 10.41c0.47,0.66 0.3,1.58 -0.36,2.04 -0.26,0.18 -0.55,0.27 -0.84,0.27l-4.48 0.01c-0.56,0 -1.04,-0.31 -1.29,-0.76l-4.29 -6.39 -4.54 6.51c-0.29,0.41 -0.74,0.63 -1.21,0.63l-4.5 0.01c-0.81,0 -1.48,-0.67 -1.48,-1.48 0,-0.35 0.13,-0.68 0.33,-0.93z"/>
  </g>
 </g>
</svg>
