<?xml version="1.0" encoding="UTF-8"?>
<!DOCTYPE svg PUBLIC "-//W3C//DTD SVG 1.1//EN" "http://www.w3.org/Graphics/SVG/1.1/DTD/svg11.dtd">
<!-- Creator: CorelDRAW -->
<svg xmlns="http://www.w3.org/2000/svg" xml:space="preserve" width="39px" height="36px" version="1.1" style="shape-rendering:geometricPrecision; text-rendering:geometricPrecision; image-rendering:optimizeQuality; fill-rule:evenodd; clip-rule:evenodd"
viewBox="0 0 4.02 3.74"
 xmlns:xlink="http://www.w3.org/1999/xlink"
 xmlns:xodm="http://www.corel.com/coreldraw/odm/2003">
 <defs>
  <style type="text/css">
   <![CDATA[
    .fil0 {fill:#FEFEFE}
   ]]>
  </style>
 </defs>
 <g id="Camada_x0020_1">
  <metadata id="CorelCorpID_0Corel-Layer"/>
  <path class="fil0" d="M1.84 3.71c0.19,0.06 0.57,0.02 0.77,-0.03 0.68,-0.17 1.23,-0.72 1.37,-1.42 0.09,-0.4 0.04,-0.86 -0.13,-1.19 -0.07,-0.12 -0.12,-0.22 -0.2,-0.33 -0.09,-0.12 -0.12,-0.13 -0.21,-0.22 -0.03,-0.05 -0.2,-0.17 -0.24,-0.2 -0.4,-0.27 -0.87,-0.37 -1.32,-0.3 -0.12,0.01 -0.25,0.15 -0.23,0.28 0.02,0.1 0.13,0.21 0.31,0.2 0.05,0 0.1,-0.01 0.15,-0.01 0.29,-0.01 0.57,0.07 0.78,0.21 0.11,0.07 0.1,0.07 0.2,0.15 0.17,0.14 0.34,0.44 0.4,0.65 0.13,0.51 -0.02,0.97 -0.33,1.32 -0.03,0.04 -0.06,0.05 -0.09,0.08 -0.04,0.03 -0.06,0.06 -0.1,0.08 -0.13,0.1 -0.29,0.18 -0.48,0.23 -0.18,0.04 -0.37,0.05 -0.54,0.02 -0.17,-0.03 -0.27,0.07 -0.29,0.19 -0.03,0.11 0.05,0.25 0.18,0.29zm-1.82 -1.69c0,0 0,0 0,0 0,-0.01 0,-0.01 0,-0.01 -0.01,-0.02 -0.02,-0.05 -0.02,-0.08l0 0c0,0 0,0 0,-0.01l0 0c0,0 0,0 0,0 0,0 0,0 0,0l0 -0.01c0,-0.03 0.01,-0.06 0.02,-0.09l0 0c0,0 0,0 0,0 0.01,-0.01 0.02,-0.03 0.03,-0.04l0.71 -0.99c0.07,-0.1 0.22,-0.12 0.32,-0.05 0.1,0.08 0.12,0.22 0.05,0.32l-0.41 0.56 1.28 0c0.08,0 0.25,-0.01 0.32,0.02 0.07,0.02 0.13,0.09 0.15,0.17 0.02,0.11 -0.03,0.2 -0.08,0.25 -0.09,0.06 -0.16,0.05 -0.28,0.05l-1.46 0 0.48 0.67c0.07,0.1 0.05,0.24 -0.05,0.32 -0.1,0.07 -0.25,0.05 -0.32,-0.06l-0.71 -0.98c-0.01,-0.02 -0.02,-0.03 -0.03,-0.04z"/>
 </g>
</svg>
