<svg id="Camada_1" data-name="Camada 1" xmlns="http://www.w3.org/2000/svg" viewBox="0 0 243.01 331.42"><defs><style>.cls-1,.cls-2{fill:#d91e3e;}.cls-1{fill-rule:evenodd;}</style></defs><title>acompanha_me - FOOTER</title><path class="cls-1" d="M119.31,97.9l26.28.59c.87-17.85.23-37.06.22-55.07,0-17.81,5-43.26-13.75-43.42-18.22-.15-13.17,24.7-13.13,41.52,0,17.46-1.18,39.53.38,56.38"/><path class="cls-1" d="M155,100.39c4.24.24,10.13.64,11.08,5.69-1.13,8.2-20.24,1-51.08.87a253.33,253.33,0,0,0-29.79,1.73c-10.45,1.18-23.32,5.3-22.69-2.6,2.14-2.61,6.3-5.1,11.59-5.69.15-13.29,0-26.62.06-39.93C74.25,46,75.63,33.83,58,35.46c-12.48,4-8.33,31.63-8.33,51.63,0,85.27-11,120.27,59.6,120.17,38.58,0,76,4.29,82.49-35.49,3.27-19.92,5.8-41-15.88-41.94-12.67-.57-50.53-2.22-59.33,2.35-12.24,9.52-.8,19.23,8.41,22.68,16.42,6.17,26.19,3.52,30.07,5.16,3.72,1.57,2.92,6.34-3.28,7.4-17.17,2.92-55.33-7.2-48.34-32.47,6.22-22.46,55-13.26,77.75-14,.65-19,4.6-96.59-5.15-104.43-6.08-4.9-14.44-3.24-18.26,1.24-6.06,7.13-3.91,73.3-2.78,82.65"/><path class="cls-1" d="M83.43,99.59l26-1.46c1.48-14.83.47-33.73.48-49,0-16,4-36.45-13.76-35.48-16.51.89-13,21.12-13,35.48,0,16.41-.65,34.27.23,50.47"/><path class="cls-2" d="M0,310.62l12-1.18c.72,4,2.16,6.93,4.36,8.81s5.15,2.82,8.87,2.82q5.9,0,8.9-2.51a7.48,7.48,0,0,0,3-5.85A5.62,5.62,0,0,0,35.84,309a9.92,9.92,0,0,0-4.4-2.62q-2.14-.77-9.78-2.66-9.83-2.46-13.79-6a16.08,16.08,0,0,1-3-21,16.42,16.42,0,0,1,7.57-6.17,30.05,30.05,0,0,1,11.93-2.12q11.39,0,17.16,5.06t6,13.53l-12.31.42q-.78-4.71-3.35-6.76c-1.71-1.37-4.29-2.07-7.71-2.07s-6.31.74-8.31,2.21A4.49,4.49,0,0,0,14,284.62a4.63,4.63,0,0,0,1.82,3.69q2.31,2,11.25,4.09c6,1.4,10.36,2.87,13.2,4.37A17.05,17.05,0,0,1,47,303a18,18,0,0,1,2.43,9.68,17.86,17.86,0,0,1-2.91,9.78,17.28,17.28,0,0,1-8.2,6.78,34.24,34.24,0,0,1-13.23,2.22q-11.52,0-17.7-5.31T0,310.62"/><path class="cls-2" d="M59.76,330.32V286.26H71.39v44.06Zm0-50V269.54H71.39v10.78Z"/><path class="cls-2" d="M123.41,330.32H111.78V307.87q0-7.14-.75-9.21a6.49,6.49,0,0,0-2.45-3.26,7,7,0,0,0-4.07-1.16A9.4,9.4,0,0,0,99,295.9a8.26,8.26,0,0,0-3.33,4.38c-.61,1.83-.91,5.19-.91,10.12v19.92H83.17V286.26H94v6.47q5.79-7.41,14.58-7.4a17.92,17.92,0,0,1,7.08,1.38,11.91,11.91,0,0,1,4.85,3.54,12.63,12.63,0,0,1,2.29,4.9,35.44,35.44,0,0,1,.65,7.82Z"/><path class="cls-2" d="M159.48,309.27c-1.49.49-3.85,1.09-7.09,1.78s-5.35,1.37-6.34,2a4.9,4.9,0,0,0-2.28,4.11,5.7,5.7,0,0,0,1.83,4.23,6.38,6.38,0,0,0,4.64,1.78,10.19,10.19,0,0,0,6-2.07,7.33,7.33,0,0,0,2.77-3.86,23,23,0,0,0,.46-5.67Zm-15.62-9.42L133.33,298q1.78-6.45,6.14-9.55c2.9-2.07,7.22-3.1,12.93-3.1q7.8,0,11.62,1.84a11.54,11.54,0,0,1,5.36,4.68c1,1.9,1.56,5.36,1.56,10.43l-.17,13.58a47.78,47.78,0,0,0,.55,8.56,24.65,24.65,0,0,0,2.08,5.9H161.85c-.29-.76-.68-1.9-1.11-3.4a13.21,13.21,0,0,0-.42-1.35A20.74,20.74,0,0,1,154,330a18,18,0,0,1-7.23,1.47c-4.51,0-8.08-1.23-10.68-3.69a12.23,12.23,0,0,1-3.91-9.32,12.52,12.52,0,0,1,1.79-6.65,11.54,11.54,0,0,1,5-4.47,39,39,0,0,1,9.25-2.72,63.86,63.86,0,0,0,11.31-2.86v-1.17c0-2.27-.55-3.88-1.66-4.85s-3.21-1.45-6.28-1.45a8.13,8.13,0,0,0-4.85,1.25A8.5,8.5,0,0,0,143.86,299.85Z"/><path class="cls-2" d="M182.41,330.32V286.26H194v44.06Zm0-50V269.54H194v10.78Z"/><path class="cls-2" d="M201.84,317.93l11.71-1.79a8.46,8.46,0,0,0,3,5.13A10.23,10.23,0,0,0,223,323q4.51,0,6.81-1.66a3.74,3.74,0,0,0,1.52-3.12,3,3,0,0,0-.83-2.19,9.15,9.15,0,0,0-3.89-1.55q-14.12-3.12-17.89-5.69a11.38,11.38,0,0,1-5.23-9.93,12.26,12.26,0,0,1,4.53-9.65q4.52-3.9,14-3.9,9,0,13.44,3a15.13,15.13,0,0,1,6.06,8.75l-10.95,2a6.92,6.92,0,0,0-2.69-4,9.86,9.86,0,0,0-5.65-1.37q-4.62,0-6.63,1.29a2.76,2.76,0,0,0-1.33,2.36,2.57,2.57,0,0,0,1.16,2.13q1.59,1.15,10.92,3.28t13,5.19a10.74,10.74,0,0,1,3.67,8.67,13.33,13.33,0,0,1-5.07,10.42q-5.06,4.35-15,4.35-9,0-14.26-3.63a16.65,16.65,0,0,1-6.86-9.86"/></svg>