<?xml version="1.0" encoding="UTF-8"?>
<!DOCTYPE svg PUBLIC "-//W3C//DTD SVG 1.1//EN" "http://www.w3.org/Graphics/SVG/1.1/DTD/svg11.dtd">
<!-- Creator: CorelDRAW -->
<svg xmlns="http://www.w3.org/2000/svg" xml:space="preserve" width="364px" height="336px" version="1.1" style="shape-rendering:geometricPrecision; text-rendering:geometricPrecision; image-rendering:optimizeQuality; fill-rule:evenodd; clip-rule:evenodd"
viewBox="0 0 367.04 339.02"
 xmlns:xlink="http://www.w3.org/1999/xlink"
 xmlns:xodm="http://www.corel.com/coreldraw/odm/2003">
 <defs>
  <style type="text/css">
   <![CDATA[
    .fil1 {fill:#BC005E;fill-rule:nonzero}
    .fil2 {fill:#DC3B53;fill-rule:nonzero}
    .fil3 {fill:white;fill-rule:nonzero}
    .fil0 {fill:url(#id0)}
   ]]>
  </style>
  <linearGradient id="id0" gradientUnits="userSpaceOnUse" x1="279.74" y1="130.27" x2="84.43" y2="309.96">
   <stop offset="0" style="stop-opacity:1; stop-color:#00CBD4"/>
   <stop offset="0.580392" style="stop-opacity:1; stop-color:#65DFE5"/>
   <stop offset="1" style="stop-opacity:1; stop-color:#CBF4F6"/>
  </linearGradient>
 </defs>
 <g id="Camada_x0020_1">
  <metadata id="CorelCorpID_0Corel-Layer"/>
  <g id="_2659219837392">
   <path class="fil0" d="M263.57 145.57c-0.41,-4.18 -79.62,6.69 -114.05,23.84 -3.62,1.81 -9.65,5.03 -9.48,8.72 0.28,5.97 16.66,9.47 25.27,11.2 57.67,11.6 100.26,11.2 101.08,17.42 0.94,7.05 -49.68,21.56 -52.64,22.41 -70.53,20.02 -132.67,27.38 -132.67,27.38 -27.31,3.23 -41.78,3.71 -45.89,14.72 -5.85,15.66 14.14,40.87 25.88,53.73 53.64,58.76 275.51,-83.57 262.18,-124.46 -8.87,-27.21 -118.84,-15.81 -119.07,-28.06 -0.11,-6.29 28.7,-16.17 49.35,-23.25 8.61,-2.95 10.1,-3.08 10.04,-3.65z"/>
   <path class="fil1" d="M315.13 34.28c-0.83,-1.48 -3.29,-5.43 -8.19,-7.44 -6.3,-2.58 -14.1,-0.91 -18.62,4.23 -5.05,5.75 -3.71,13.19 -3.27,15.65 1.25,6.92 5.52,11.21 7.13,12.69 2.68,3.42 6.63,7.72 12.14,11.75 4.08,2.98 7.99,5.06 11.27,6.52 4.54,-1.92 10.76,-5.12 17.15,-10.43 6.22,-5.17 10.43,-10.53 13.13,-14.57 0.83,-1.15 3.93,-5.69 3.2,-11.83 -1.05,-8.95 -9.27,-13.07 -9.87,-13.36 -1.69,-0.69 -6.46,-2.36 -12.34,-0.98 -6.95,1.64 -10.74,6.43 -11.73,7.77z"/>
   <path class="fil1" d="M333.89 131.43c1.02,-1.46 1.81,-2.81 2.83,-3.96 0.41,-0.46 1.4,-0.77 2,-0.63 6.67,1.59 13.16,3.67 18.47,8.26 6.64,5.73 6.65,12.83 -0.01,18.57 -5.52,4.76 -12.27,6.97 -19.24,8.44 -17.61,3.72 -35.12,3.5 -52.26,-2.4 -3.89,-1.34 -7.69,-3.46 -10.96,-5.97 -6.91,-5.3 -6.83,-13.09 -0.19,-18.7 5.36,-4.52 11.82,-6.64 18.5,-8.19 0.62,-0.15 1.63,0.35 2.11,0.88 0.94,1 1.64,2.23 2.63,3.66 -2.36,0.61 -4.61,0.92 -6.62,1.78 -4.3,1.85 -8.79,3.52 -12.62,6.12 -4.54,3.06 -4.33,6.82 -0.06,10.28 5.17,4.2 11.38,6.04 17.76,7.29 16.06,3.13 32.02,2.9 47.63,-2.38 3.34,-1.12 6.57,-2.93 9.41,-5.02 4.31,-3.19 4.22,-6.71 0.11,-10.16 -4.9,-4.1 -10.9,-5.76 -16.95,-7.24 -0.76,-0.19 -1.51,-0.38 -2.54,-0.63zm-326.39 50.26c1.86,0 3.41,0.84 4.63,2.49 1.21,1.68 2.07,4.3 2.56,7.88l-1.59 0.99c0.92,-3.54 2.62,-6.25 5.09,-8.12 2.47,-1.87 5.39,-2.79 8.78,-2.79 3.18,0 6.02,0.82 8.53,2.43 2.49,1.61 4.45,4.06 5.86,7.3 1.42,3.27 2.13,7.35 2.13,12.24 0,7.93 -1.46,13.77 -4.38,17.53 -2.94,3.76 -6.92,5.65 -11.92,5.65 -3.37,0 -6.06,-0.76 -8.01,-2.28 -1.98,-1.5 -3.35,-3.35 -4.1,-5.52l0.9 -0.45c0.41,2.88 0.75,5.71 1.03,8.53 0.28,2.81 0.41,5.26 0.41,7.38 0,2.52 -0.6,4.64 -1.78,6.36 -1.19,1.72 -3.08,2.58 -5.63,2.58 -2.39,0 -4.19,-0.8 -5.46,-2.39 -1.26,-1.59 -2.17,-3.75 -2.66,-6.48 -0.3,-2.13 -0.6,-4.81 -0.9,-8.1 -0.3,-3.29 -0.54,-6.83 -0.71,-10.65 -0.19,-3.8 -0.28,-7.56 -0.28,-11.26 0,-3.67 0.15,-7.13 0.43,-10.37 0.28,-3.24 0.6,-5.86 1.01,-7.88 0.45,-1.72 1.2,-2.99 2.23,-3.82 1.03,-0.84 2.3,-1.25 3.83,-1.25zm4.61 -9.7c-2.51,0 -4.45,-0.77 -5.78,-2.32 -1.35,-1.54 -2.02,-4.33 -2.02,-8.37 0,-1.91 0.22,-4.21 0.65,-6.9 0.43,-2.68 1.03,-5.54 1.82,-8.57 0.78,-3.02 1.68,-6.05 2.73,-9.08 1.03,-3.03 2.15,-5.84 3.37,-8.48 1.57,-3.33 3.16,-5.93 4.81,-7.78 1.64,-1.82 3.35,-3.13 5.16,-3.88 1.78,-0.76 3.69,-1.14 5.71,-1.14 3.03,0 5.82,0.92 8.38,2.75 2.55,1.84 4.74,5.06 6.61,9.68 1.12,2.82 2.17,6.02 3.16,9.56 0.99,3.56 1.78,7.3 2.36,11.19 0.58,3.89 0.86,7.71 0.86,11.45 0,4.1 -0.84,7.1 -2.49,9.02 -1.67,1.91 -3.99,2.87 -6.98,2.87 -2.58,0 -4.62,-0.77 -6.1,-2.32 -1.48,-1.54 -2.4,-4.08 -2.77,-7.6 -0.19,-2.27 -0.3,-4.64 -0.3,-7.06 0,-2.43 0.11,-4.75 0.3,-6.96l3.93 5.75c-1.4,0.45 -3.16,0.73 -5.24,0.84 -2.1,0.11 -4.27,0.04 -6.53,-0.15 -2.25,-0.19 -4.36,-0.6 -6.34,-1.22l6 -5.07c0.06,2.47 -0.07,4.89 -0.37,7.23 -0.32,2.35 -0.66,4.49 -1.07,6.41 -0.3,2.21 -0.84,4.08 -1.63,5.6 -0.8,1.53 -1.85,2.66 -3.18,3.42 -1.33,0.75 -3.01,1.13 -5.05,1.13zm16 -28.41c2.28,0 4.04,-0.49 5.26,-1.48 1.23,-0.99 1.85,-2.32 1.85,-3.98 0,-0.81 -0.17,-1.74 -0.52,-2.77 -0.36,-1.03 -0.83,-1.99 -1.43,-2.87 -0.63,-0.88 -1.36,-1.64 -2.22,-2.24 -0.86,-0.6 -1.78,-0.9 -2.79,-0.9 -1.05,0 -2.02,0.32 -2.88,0.95 -0.86,0.62 -1.59,1.41 -2.19,2.34 -0.62,0.92 -1.11,1.95 -1.48,3.05 -0.39,1.11 -0.58,2.12 -0.58,3.05 0,1.46 0.62,2.64 1.87,3.52 1.22,0.88 2.94,1.33 5.11,1.33zm52.51 28.71c-7.24,0 -12.54,-1.82 -15.96,-5.45 -3.41,-3.63 -5.11,-8.7 -5.11,-15.16 0,-5.01 1.01,-9.43 3.03,-13.3 2.02,-3.86 4.94,-6.89 8.76,-9.1 3.8,-2.19 8.4,-3.29 13.75,-3.29 4.85,0 8.57,0.9 11.14,2.73 2.56,1.82 3.85,4.29 3.85,7.43 0,2.17 -0.71,3.89 -2.11,5.15 -1.41,1.27 -3.45,1.89 -6.14,1.89 -1.12,0 -2.19,-0.08 -3.22,-0.23 -1.03,-0.15 -2.04,-0.26 -3.03,-0.37 -0.99,-0.1 -1.97,-0.15 -2.98,-0.15 -2.43,0 -4.28,0.58 -5.54,1.74 -1.27,1.16 -1.89,2.88 -1.89,5.16 0,2.08 0.62,3.6 1.89,4.57 1.26,0.99 2.98,1.48 5.15,1.48 0.97,0 1.97,-0.11 3.03,-0.34 1.05,-0.24 2.17,-0.45 3.31,-0.65 1.13,-0.19 2.23,-0.3 3.28,-0.3 2.02,0 3.7,0.56 5.05,1.7 1.33,1.14 2,2.83 2,5.05 0,2.21 -0.67,4.21 -2,5.95 -1.35,1.74 -3.37,3.09 -6.06,4.06 -2.7,0.96 -6.1,1.43 -10.2,1.43zm49.85 -0.6c-4.41,0 -8.23,-0.9 -11.52,-2.7 -3.28,-1.79 -5.81,-4.36 -7.6,-7.69 -1.8,-3.33 -2.7,-7.3 -2.7,-11.9 0,-4.79 0.9,-9 2.72,-12.59 1.83,-3.58 4.41,-6.37 7.73,-8.39 3.33,-2.02 7.2,-3.03 11.6,-3.03 4.75,0 8.85,0.97 12.31,2.92 3.46,1.95 6.16,4.66 8.07,8.14 1.92,3.5 2.88,7.56 2.88,12.2 0,4.74 -0.96,8.85 -2.92,12.28 -1.95,3.44 -4.68,6.08 -8.18,7.95 -3.5,1.87 -7.65,2.81 -12.39,2.81zm1.05 -14.26c2.28,0 4.1,-0.88 5.48,-2.66 1.35,-1.76 2.04,-4.1 2.04,-7.02 0,-2.95 -0.69,-5.29 -2.04,-7.07 -1.38,-1.76 -3.2,-2.64 -5.48,-2.64 -2.32,0 -4.17,0.88 -5.52,2.62 -1.35,1.74 -2.04,4.1 -2.04,7.09 0,2.92 0.69,5.26 2.04,7.02 1.35,1.78 3.2,2.66 5.52,2.66zm70.94 -20.68c0.49,-2.06 1.41,-3.93 2.72,-5.61 1.31,-1.65 2.92,-2.98 4.81,-3.97 1.89,-0.99 3.96,-1.48 6.17,-1.48 2.73,0 5.15,0.62 7.26,1.89 2.08,1.27 3.73,3.35 4.96,6.23 1.2,2.88 1.8,6.72 1.8,11.51 0,2.38 -0.1,4.77 -0.3,7.19 -0.19,2.43 -0.45,4.66 -0.75,6.75 -0.32,2.08 -0.64,3.82 -0.99,5.22 -0.62,2.38 -1.67,4.14 -3.15,5.3 -1.49,1.18 -3.31,1.76 -5.48,1.76 -2.04,0 -3.63,-0.62 -4.79,-1.87 -1.16,-1.22 -1.74,-2.98 -1.74,-5.26 0,-0.92 0.13,-2.12 0.39,-3.65 0.23,-1.5 0.51,-3.13 0.83,-4.92 0.3,-1.76 0.58,-3.5 0.84,-5.22 0.24,-1.71 0.37,-3.2 0.37,-4.46 0,-1.87 -0.35,-3.33 -1.06,-4.36 -0.71,-1.03 -1.71,-1.55 -3.02,-1.55 -1.57,0 -2.86,0.97 -3.83,2.88 -0.99,1.91 -1.61,4.7 -1.87,8.33 -0.15,2.88 -0.34,5.44 -0.53,7.69 -0.2,2.26 -0.58,4.12 -1.14,5.65 -0.54,1.7 -1.38,2.98 -2.49,3.84 -1.12,0.86 -2.6,1.29 -4.47,1.29 -2.02,0 -3.65,-0.6 -4.87,-1.82 -1.25,-1.21 -1.92,-3.1 -2.02,-5.67 -0.07,-1.61 -0.07,-3.53 -0.05,-5.7 0.02,-2.16 0.07,-4.29 0.09,-6.42 0.02,-2.12 -0.02,-3.88 -0.13,-5.3 -0.11,-2.21 -0.49,-3.85 -1.2,-4.9 -0.71,-1.03 -1.76,-1.54 -3.12,-1.54 -1.46,0 -2.62,0.75 -3.48,2.23 -0.85,1.48 -1.41,3.56 -1.67,6.25 -0.11,1.27 -0.13,2.79 -0.11,4.62 0.02,1.82 0.07,3.63 0.09,5.41 0.02,1.8 0,3.33 -0.04,4.6 -0.11,3.47 -0.8,5.97 -2.09,7.45 -1.29,1.48 -3.07,2.23 -5.35,2.23 -2.57,0 -4.48,-0.73 -5.71,-2.19 -1.24,-1.46 -2.02,-3.82 -2.32,-7.11 -0.19,-2.08 -0.34,-4.14 -0.45,-6.23 -0.11,-2.06 -0.15,-4.12 -0.15,-6.2 0,-2.09 0.09,-4.3 0.24,-6.68 0.15,-2.37 0.32,-4.64 0.51,-6.81 0.41,-3.14 1.16,-5.76 2.28,-7.88 1.12,-2.13 2.94,-3.18 5.45,-3.18 2.28,0 3.91,0.71 4.9,2.15 0.97,1.44 1.46,3.65 1.46,6.63 0,1.01 -0.06,1.96 -0.21,2.82l-0.24 -1.53c1.01,-3.29 2.68,-5.84 5,-7.69 2.32,-1.84 4.9,-2.77 7.74,-2.77 3.67,0 6.55,1.14 8.59,3.44 2.04,2.3 3.17,5.47 3.37,9.53l-1.05 -0.92zm-180.64 57.14c-2.13,0 -3.8,1.03 -5.07,3.09 -1.27,2.08 -1.91,4.75 -1.91,8.03 0,3.4 0.64,5.93 1.91,7.58 1.27,1.68 2.9,2.52 4.92,2.52 2.43,0 4.15,-0.95 5.2,-2.81 1.03,-1.87 1.54,-4.32 1.54,-7.35 0,-3.8 -0.66,-6.59 -1.97,-8.38 -1.31,-1.78 -2.86,-2.68 -4.62,-2.68zm61.06 35.52c-2.58,0 -4.3,-0.66 -5.13,-2.02 -0.86,-1.33 -1.29,-3.45 -1.29,-6.38l1.12 0.37c-2.73,5.52 -7.97,8.27 -15.75,8.27 -3.54,0 -6.46,-0.65 -8.78,-1.91 -2.34,-1.27 -4.06,-2.92 -5.2,-4.96 -1.14,-2.04 -1.72,-4.3 -1.72,-6.77 0,-4.23 1.55,-7.6 4.64,-10.07 3.07,-2.47 7.17,-3.72 12.26,-3.72 3.18,0 5.98,0.47 8.38,1.44 2.38,0.97 4.4,2.3 6.01,4.02l-2.1 -0.15c-0.11,-4.26 -0.92,-7.28 -2.49,-9.07 -1.57,-1.78 -3.85,-2.68 -6.83,-2.68 -1.38,0 -2.79,0.21 -4.25,0.64 -1.46,0.43 -2.9,0.86 -4.34,1.31 -1.44,0.45 -2.9,0.69 -4.38,0.69 -1.83,0 -3.23,-0.51 -4.23,-1.52 -1.01,-1.01 -1.53,-2.32 -1.53,-3.93 0,-2.22 0.97,-4.21 2.88,-6 1.91,-1.76 4.47,-3.15 7.62,-4.18 3.16,-1.04 6.57,-1.55 10.27,-1.55 4.7,0 8.78,0.92 12.24,2.79 3.46,1.87 5.93,4.73 7.45,8.57 1.16,2.88 1.98,6.12 2.47,9.73 0.48,3.61 0.71,7.45 0.71,11.55 0,4.11 -0.26,7.26 -0.79,9.52 -0.54,2.25 -1.4,3.8 -2.58,4.68 -1.18,0.88 -2.75,1.33 -4.66,1.33zm-15.29 -10.37c1.16,0 2.34,-0.19 3.56,-0.58 1.21,-0.37 2.24,-0.92 3.07,-1.63 0.84,-0.71 1.25,-1.59 1.25,-2.65 0,-0.96 -0.32,-1.76 -0.99,-2.38 -0.66,-0.62 -1.54,-1.09 -2.64,-1.37 -1.12,-0.28 -2.3,-0.41 -3.57,-0.41 -2.23,0 -3.97,0.43 -5.24,1.29 -1.26,0.86 -1.89,1.97 -1.89,3.33 0,1.31 0.58,2.38 1.74,3.17 1.16,0.82 2.73,1.23 4.71,1.23zm38.03 -37.5c2.28,0 3.87,0.64 4.75,1.95 0.88,1.31 1.31,3.27 1.31,5.85 0,0.6 -0.04,1.24 -0.11,1.93 -0.06,0.69 -0.19,1.31 -0.34,1.85l-0.15 -1.51c1.22,-3.28 3.07,-5.84 5.54,-7.69 2.47,-1.84 5.09,-2.77 7.86,-2.77 3.39,0 6.21,0.93 8.42,2.8 2.21,1.86 3.89,4.51 5,7.88 1.1,3.39 1.66,7.39 1.66,11.98 0,2.47 -0.11,4.9 -0.3,7.26 -0.2,2.38 -0.48,4.55 -0.82,6.53 -0.37,1.98 -0.82,3.59 -1.37,4.85 -0.76,1.83 -1.83,3.18 -3.18,4.08 -1.36,0.93 -3.01,1.38 -4.92,1.38 -2.04,0 -3.61,-0.69 -4.7,-2.08 -1.12,-1.4 -1.68,-3.33 -1.68,-5.8 0,-1.57 0.09,-3.44 0.28,-5.59 0.17,-2.12 0.34,-4.29 0.49,-6.46 0.15,-2.17 0.22,-4.02 0.22,-5.54 0,-4.84 -1.53,-7.26 -4.56,-7.26 -1.65,0 -3.05,0.77 -4.18,2.3 -1.14,1.54 -1.89,3.71 -2.24,6.48 -0.15,1.27 -0.25,2.82 -0.3,4.68 -0.06,1.87 -0.11,3.74 -0.15,5.59 -0.06,1.84 -0.13,3.39 -0.23,4.66 -0.3,3.48 -1.12,5.97 -2.45,7.45 -1.36,1.48 -3.18,2.23 -5.52,2.23 -2.77,0 -4.88,-0.88 -6.27,-2.62 -1.42,-1.73 -2.13,-4.66 -2.13,-8.8 0,-2.13 0.04,-4.49 0.15,-7.13 0.11,-2.62 0.24,-5.26 0.43,-7.93 0.17,-2.64 0.39,-5.04 0.62,-7.21 0.52,-4.15 1.46,-7.41 2.86,-9.8 1.4,-2.36 3.39,-3.54 6.01,-3.54zm49.4 -12.89c2.51,0 4.27,0.76 5.26,2.24 0.99,1.48 1.48,3.69 1.48,6.63 0,2.13 -0.12,4.53 -0.4,7.26 -0.28,2.73 -0.69,5.22 -1.19,7.43l-0.45 0c1.57,-2.62 3.59,-4.74 6.06,-6.35 2.47,-1.61 5.11,-2.43 7.88,-2.43 2.69,0 5.07,0.64 7.15,1.95 2.09,1.31 3.81,3.35 5.12,6.08 1.16,2.32 2.01,5.07 2.57,8.25 0.56,3.2 0.84,6.23 0.84,9.11 0,4.7 -0.41,8.44 -1.24,11.21 -0.84,2.77 -1.98,4.79 -3.44,6.01 -1.48,1.25 -3.2,1.87 -5.18,1.87 -4.74,0 -7.11,-3.01 -7.11,-9.02 0,-2.39 0.15,-4.79 0.43,-7.24 0.28,-2.45 0.41,-4.68 0.41,-6.7 0,-2.54 -0.41,-4.42 -1.24,-5.65 -0.84,-1.22 -2.02,-1.85 -3.55,-1.85 -1.82,0 -3.28,0.86 -4.42,2.56 -1.14,1.72 -1.7,4.1 -1.7,7.13 0,1.87 0.13,3.8 0.41,5.76 0.28,1.97 0.41,4.14 0.41,6.52 0,3.55 -0.73,6.08 -2.19,7.61 -1.46,1.54 -3.33,2.32 -5.61,2.32 -1.52,0 -2.88,-0.24 -4.08,-0.73 -1.22,-0.48 -2.23,-1.46 -3.07,-2.94 -0.84,-1.49 -1.48,-3.68 -1.93,-6.58 -0.33,-1.86 -0.6,-4.03 -0.84,-6.51 -0.26,-2.46 -0.47,-5.06 -0.65,-7.77 -0.19,-2.68 -0.34,-5.33 -0.45,-7.9 -0.13,-2.58 -0.19,-4.88 -0.19,-6.9 0,-7.43 0.95,-12.84 2.84,-16.25 1.89,-3.42 4.57,-5.12 8.07,-5.12zm74.4 60.76c-2.58,0 -4.3,-0.66 -5.14,-2.02 -0.86,-1.33 -1.28,-3.45 -1.28,-6.38l1.11 0.37c-2.73,5.52 -7.97,8.27 -15.74,8.27 -3.54,0 -6.47,-0.65 -8.79,-1.91 -2.34,-1.27 -4.05,-2.92 -5.19,-4.96 -1.14,-2.04 -1.72,-4.3 -1.72,-6.77 0,-4.23 1.55,-7.6 4.64,-10.07 3.07,-2.47 7.17,-3.72 12.26,-3.72 3.18,0 5.97,0.47 8.38,1.44 2.38,0.97 4.4,2.3 6.01,4.02l-2.1 -0.15c-0.11,-4.26 -0.93,-7.28 -2.49,-9.07 -1.57,-1.78 -3.85,-2.68 -6.83,-2.68 -1.38,0 -2.8,0.21 -4.26,0.64 -1.46,0.43 -2.9,0.86 -4.33,1.31 -1.44,0.45 -2.9,0.69 -4.39,0.69 -1.82,0 -3.22,-0.51 -4.23,-1.52 -1.01,-1.01 -1.52,-2.32 -1.52,-3.93 0,-2.22 0.96,-4.21 2.88,-6 1.91,-1.76 4.46,-3.15 7.62,-4.18 3.16,-1.04 6.57,-1.55 10.27,-1.55 4.7,0 8.78,0.92 12.24,2.79 3.46,1.87 5.93,4.73 7.45,8.57 1.16,2.88 1.98,6.12 2.47,9.73 0.47,3.61 0.71,7.45 0.71,11.55 0,4.11 -0.26,7.26 -0.79,9.52 -0.54,2.25 -1.4,3.8 -2.58,4.68 -1.18,0.88 -2.75,1.33 -4.66,1.33zm-15.29 -10.37c1.15,0 2.34,-0.19 3.56,-0.58 1.2,-0.37 2.23,-0.92 3.07,-1.63 0.84,-0.71 1.25,-1.59 1.25,-2.65 0,-0.96 -0.33,-1.76 -0.99,-2.38 -0.67,-0.62 -1.55,-1.09 -2.64,-1.37 -1.12,-0.28 -2.3,-0.41 -3.57,-0.41 -2.23,0 -3.97,0.43 -5.24,1.29 -1.27,0.86 -1.89,1.97 -1.89,3.33 0,1.31 0.58,2.38 1.74,3.17 1.16,0.82 2.73,1.23 4.71,1.23zm141.73 -201.92c-22.83,-26.08 -69.06,-21.6 -85.26,8.23 -6.87,12.65 -6.65,25.54 -1.73,38.54 9.47,24.99 26.38,46.06 43.77,66.86 1.99,2.39 5.24,2.18 7.33,-0.31 14.15,-16.82 27.66,-34.02 37.6,-53.26 5.13,-9.93 9.19,-20.14 9.47,-30.97 -0.13,-11.05 -3.79,-20.65 -11.18,-29.09z"/>
   <path class="fil2" d="M252.9 211.09c2.53,0 4.57,0.75 6.12,2.23 1.53,1.49 2.3,3.68 2.3,6.55 0,2.58 -0.73,4.79 -2.19,6.62 -1.48,1.85 -3.82,2.77 -7.07,2.77 -2.68,0 -4.64,-0.75 -5.86,-2.28 -1.22,-1.5 -1.85,-3.63 -1.85,-6.35 0,-1.61 0.26,-3.16 0.75,-4.62 0.5,-1.46 1.38,-2.64 2.65,-3.57 1.26,-0.9 2.98,-1.35 5.15,-1.35zm54.32 15.74c-1.61,0 -3.03,-0.32 -4.23,-0.98 -1.22,-0.65 -2.17,-1.79 -2.83,-3.4 -0.69,-1.61 -1.03,-3.89 -1.03,-6.83 0,-2.77 0.1,-5.73 0.3,-8.87 0.19,-3.11 0.47,-6.29 0.79,-9.49 0.32,-3.2 0.69,-6.29 1.1,-9.28l-0.3 0c-1.53,5.87 -3.18,10.1 -4.97,12.72 -1.8,2.64 -3.82,3.95 -6.03,3.95 -1.35,0 -2.6,-0.47 -3.7,-1.44 -1.11,-0.97 -2.16,-2.71 -3.17,-5.24 -1.01,-2.51 -2.13,-6.1 -3.35,-10.76l-0.31 0c0.26,2.23 0.5,4.62 0.69,7.17 0.2,2.56 0.39,5.09 0.56,7.65 0.17,2.55 0.3,4.98 0.39,7.3 0.06,2.34 0.1,4.4 0.1,6.23 0,2.12 -0.23,4.04 -0.7,5.78 -0.5,1.73 -1.36,3.13 -2.58,4.16 -1.25,1.05 -2.96,1.57 -5.13,1.57 -2.69,0 -4.69,-0.9 -6.02,-2.71 -1.35,-1.78 -2.02,-4.74 -2.02,-8.89 0,-1.95 0.07,-4.23 0.2,-6.78 0.13,-2.56 0.3,-5.16 0.53,-7.84 0.24,-2.69 0.52,-5.27 0.84,-7.78 0.32,-2.49 0.69,-4.74 1.1,-6.76 0.86,-4.3 2.04,-7.41 3.56,-9.37 1.53,-1.93 3.46,-2.9 5.82,-2.9 1.78,0 3.48,0.48 5.14,1.4 1.63,0.92 3.17,2.58 4.61,4.92 1.44,2.34 2.69,5.69 3.74,10.05l0.3 0c1.07,-4.55 2.28,-8.14 3.59,-10.74 1.31,-2.6 2.75,-4.42 4.31,-5.5 1.57,-1.05 3.18,-1.59 4.84,-1.59 2.53,0 4.55,1.03 6.07,3.07 1.51,2.04 2.71,4.81 3.63,8.32 0.71,2.68 1.31,5.67 1.83,8.99 0.49,3.33 0.88,6.75 1.14,10.23 0.23,3.5 0.36,6.85 0.36,10.09 0,4.96 -0.84,8.44 -2.49,10.48 -1.67,2.04 -3.91,3.07 -6.68,3.07zm40.24 -51.82c3.47,0 6.2,0.32 8.18,0.99 1.95,0.66 3.37,1.61 4.21,2.88 0.83,1.26 1.24,2.79 1.24,4.61 0,2.9 -1.09,5.05 -3.26,6.45 -2.17,1.41 -5.54,2.12 -10.07,2.12 -1.87,0 -3.98,-0.04 -6.3,-0.1 -2.32,-0.07 -4.76,-0.22 -7.34,-0.43l0.6 -0.67c0.45,1.46 0.67,3.03 0.62,4.72 -0.06,1.7 -0.34,3.33 -0.86,4.9l-0.45 -0.54c1.01,-0.15 2.21,-0.28 3.61,-0.38 1.4,-0.11 2.84,-0.17 4.36,-0.24 1.5,-0.04 2.9,-0.06 4.17,-0.06 3.11,0 5.32,0.53 6.59,1.63 1.27,1.09 1.89,2.4 1.89,3.97 0,1.79 -0.69,3.27 -2.04,4.45 -1.37,1.18 -3.69,1.78 -6.98,1.78 -1.83,0 -3.76,-0.19 -5.8,-0.58 -2.04,-0.36 -4.1,-1.12 -6.16,-2.23l0.6 -0.15c0.45,0.96 0.77,2.08 0.94,3.37 0.18,1.29 0.2,2.56 0.05,3.82 -0.15,1.27 -0.5,2.36 -0.99,3.33l-0.24 -0.67c1.53,-0.45 3.25,-0.83 5.2,-1.13 1.95,-0.3 3.93,-0.54 5.95,-0.73 2.02,-0.17 3.91,-0.26 5.67,-0.26 3.39,0 5.93,0.47 7.6,1.44 1.65,0.96 2.49,2.55 2.49,4.77 0,1.46 -0.34,2.66 -1.05,3.63 -0.71,0.96 -1.93,1.84 -3.65,2.66 -1.27,0.6 -2.86,1.12 -4.77,1.54 -1.91,0.43 -3.97,0.76 -6.14,0.99 -2.17,0.24 -4.3,0.35 -6.36,0.35 -3.8,0 -6.94,-0.48 -9.43,-1.44 -2.51,-0.97 -4.31,-2.34 -5.43,-4.17 -1.01,-1.82 -1.74,-4.21 -2.23,-7.17 -0.5,-2.94 -0.73,-7 -0.73,-12.16 0,-7.21 0.4,-12.86 1.22,-16.97 0.79,-4.1 1.85,-7.02 3.11,-8.78 1.21,-1.61 2.97,-2.81 5.31,-3.61 2.32,-0.77 4.94,-1.29 7.88,-1.54 2.92,-0.26 5.84,-0.39 8.79,-0.39z"/>
   <path class="fil3" d="M342.72 55.35c-6.51,9.4 -15.37,16.65 -25.8,22.4 -0.57,0.31 -1.69,0.35 -2.25,0.04 -10.79,-5.92 -19.93,-13.42 -26.46,-23.27 -2.87,-4.34 -4.74,-9 -4.47,-14.18 0.49,-9.59 9.79,-16.42 19.94,-14.57 4.57,0.84 7.93,3.35 10.53,6.74 0.45,0.58 0.87,1.17 1.51,2.03 0.83,-1.09 1.47,-1.97 2.17,-2.81 4.51,-5.39 11.36,-7.53 17.97,-5.63 6.84,1.97 11.53,7.59 11.87,14.13 0.29,5.58 -1.82,10.52 -5.01,15.12z"/>
  </g>
 </g>
</svg>
