<?xml version="1.0" encoding="UTF-8"?>
<!DOCTYPE svg PUBLIC "-//W3C//DTD SVG 1.1//EN" "http://www.w3.org/Graphics/SVG/1.1/DTD/svg11.dtd">
<!-- Creator: CorelDRAW -->
<svg xmlns="http://www.w3.org/2000/svg" xml:space="preserve" width="94px" height="150px" version="1.1" style="shape-rendering:geometricPrecision; text-rendering:geometricPrecision; image-rendering:optimizeQuality; fill-rule:evenodd; clip-rule:evenodd"
viewBox="0 0 23.72 37.99"
 xmlns:xlink="http://www.w3.org/1999/xlink"
 xmlns:xodm="http://www.corel.com/coreldraw/odm/2003">
 <defs>
  <style type="text/css">
   <![CDATA[
    .fil0 {fill:#FEFEFE;fill-rule:nonzero}
   ]]>
  </style>
 </defs>
 <g id="Camada_x0020_1">
  <metadata id="CorelCorpID_0Corel-Layer"/>
  <path class="fil0" d="M15.16 29.47l0.18 -0.27c0.16,-0.24 0.31,-0.46 0.51,-0.69l0.05 -0.06c0.14,-0.12 0.32,-0.22 0.49,-0.28 0.22,-0.07 0.46,-0.09 0.66,-0.04l0.06 0.01c0.75,0.19 1.5,0.4 2.21,0.69 0.75,0.31 1.47,0.72 2.12,1.28l0.5 0.5c0.58,0.67 0.87,1.4 0.87,2.15 0,0.74 -0.29,1.47 -0.87,2.14l-0.5 0.49c-0.67,0.58 -1.42,1.01 -2.21,1.33 -0.76,0.32 -1.56,0.54 -2.36,0.7 -1.99,0.43 -3.98,0.62 -5.96,0.55 -1.98,-0.07 -3.96,-0.43 -5.91,-1.1 -0.46,-0.15 -0.92,-0.36 -1.36,-0.6l-0.03 -0.02c-0.44,-0.24 -0.86,-0.52 -1.24,-0.81 -0.25,-0.19 -0.48,-0.41 -0.66,-0.62 -0.52,-0.61 -0.78,-1.31 -0.78,-2.01 -0.01,-0.7 0.23,-1.4 0.71,-2.03 0.18,-0.23 0.4,-0.46 0.66,-0.68 0.65,-0.55 1.37,-0.96 2.12,-1.27 0.74,-0.31 1.5,-0.52 2.26,-0.7l0.12 -0.02c0.2,-0.02 0.41,0.02 0.59,0.09l0.05 0.03c0.18,0.07 0.36,0.2 0.47,0.33 0.19,0.2 0.32,0.4 0.46,0.62l0.19 0.27c0.25,0.37 0.15,0.86 -0.21,1.11l-0.26 0.11 -0.57 0.14c-0.28,0.06 -0.54,0.12 -0.76,0.21l-0.5 0.21c-0.75,0.32 -1.51,0.64 -2.13,1.06l-0.3 0.26 -0.08 0.17c0.14,0.33 0.14,0.28 0.43,0.56 0.49,0.4 1.04,0.69 1.62,0.91 0.61,0.24 1.26,0.4 1.91,0.52 1.71,0.34 3.41,0.49 5.08,0.42 1.67,-0.06 3.33,-0.36 4.96,-0.91l0.03 -0.01c0.29,-0.1 0.59,-0.24 0.89,-0.39l0.03 -0.02c0.32,-0.17 0.62,-0.36 0.89,-0.57 0.26,-0.23 0.25,-0.18 0.39,-0.45 0,-0.06 -0.04,-0.14 -0.11,-0.23l-0.29 -0.3c-0.47,-0.39 -0.99,-0.67 -1.54,-0.88 -0.58,-0.23 -1.22,-0.4 -1.86,-0.55l-0.55 -0.14c-0.42,-0.11 -0.69,-0.54 -0.58,-0.96l0.11 -0.25zm3.25 -15.81c-0.75,1.11 -1.64,2.1 -2.63,2.97 -0.98,0.86 -2.08,1.63 -3.27,2.3 -0.17,0.09 -0.39,0.14 -0.59,0.15 -0.21,0 -0.44,-0.04 -0.61,-0.14l-0.05 -0.03c-1.21,-0.69 -2.33,-1.47 -3.32,-2.35 -1.02,-0.91 -1.93,-1.93 -2.68,-3.1 -0.34,-0.54 -0.63,-1.1 -0.82,-1.69 -0.2,-0.61 -0.3,-1.25 -0.27,-1.93 0.01,-0.19 0.03,-0.38 0.07,-0.57 0.19,-1.05 0.78,-1.94 1.59,-2.56 0.8,-0.61 1.83,-0.95 2.93,-0.9 0.2,0.01 0.42,0.04 0.63,0.08 0.6,0.11 1.13,0.34 1.59,0.65 0.34,0.24 0.65,0.52 0.92,0.84 0.57,-0.66 1.28,-1.13 2.05,-1.38 0.81,-0.26 1.7,-0.28 2.56,-0.02 0.89,0.26 1.64,0.77 2.19,1.44 0.54,0.67 0.88,1.5 0.92,2.39l0 0.02c0.04,0.72 -0.08,1.4 -0.3,2.04 -0.22,0.63 -0.54,1.23 -0.91,1.79zm1.6 -8.62c-0.84,-0.99 -1.84,-1.78 -2.94,-2.35 -1.95,-1.04 -4.2,-1.42 -6.38,-1.19 -2.18,0.22 -4.28,1.06 -5.93,2.47 -0.9,0.76 -1.67,1.7 -2.25,2.79 -0.7,1.33 -1.04,2.67 -1.08,4 -0.03,1.35 0.23,2.72 0.74,4.11 1.02,2.76 2.44,5.31 4.07,7.74 1.64,2.45 3.51,4.79 5.41,7.12l0.05 0.06c0.05,0.04 0.1,0.06 0.15,0.06 0.05,0 0.13,-0.03 0.2,-0.09l0.09 -0.1c1.55,-1.89 3.06,-3.8 4.44,-5.75 1.38,-1.97 2.65,-3.99 3.71,-6.12 0.55,-1.09 1.04,-2.19 1.4,-3.31 0.35,-1.1 0.58,-2.22 0.6,-3.36 -0.01,-1.15 -0.2,-2.23 -0.58,-3.24 -0.38,-1.01 -0.94,-1.96 -1.7,-2.84zm-2.27 -3.62c1.25,0.66 2.4,1.55 3.36,2.69 0.87,1.02 1.52,2.11 1.95,3.27 0.44,1.16 0.66,2.4 0.67,3.73l0 0.04c-0.03,1.29 -0.28,2.54 -0.67,3.76 -0.38,1.2 -0.9,2.38 -1.48,3.52 -1.1,2.21 -2.41,4.29 -3.82,6.3 -1.42,2.01 -2.95,3.94 -4.5,5.84 -0.09,0.11 -0.2,0.21 -0.3,0.3 -0.32,0.26 -0.69,0.4 -1.06,0.41 -0.39,0.01 -0.77,-0.11 -1.09,-0.38 -0.09,-0.07 -0.17,-0.15 -0.24,-0.24l-0.03 -0.02c-1.91,-2.36 -3.8,-4.73 -5.48,-7.24 -1.69,-2.52 -3.17,-5.17 -4.22,-8.04 -0.57,-1.54 -0.87,-3.09 -0.83,-4.64 0.05,-1.55 0.44,-3.1 1.24,-4.62 0.67,-1.27 1.56,-2.34 2.59,-3.22 1.88,-1.6 4.26,-2.55 6.71,-2.81 2.45,-0.25 4.99,0.18 7.2,1.35z"/>
 </g>
</svg>
